<svg xmlns="http://www.w3.org/2000/svg" style="fill:none;font:Helvetica" width="100%" height="100%" version="1.1" viewBox="0 0 1024 768"><rect width="1024" height="768" x="0" y="0" fill="#fff" stroke="none"/><text x="358" y="752" fill="#00f" stroke="none" font-size="16">v(unregulated)</text><text x="20" y="444" fill="#00f" stroke="none" font-size="16" transform="rotate(-90, 20, 444)">v(regulated)</text><text x="10" y="16" fill="#00f" stroke="none" font-size="16">tran13: output line</text><path stroke="#00f" stroke-dasharray="1 2" d="M95 704l0 -640"/><text x="75" y="728" fill="#00f" stroke="none" font-size="16">13.0</text><path stroke="#00f" stroke-dasharray="1 2" d="M173 704l0 -640"/><text x="153" y="728" fill="#00f" stroke="none" font-size="16">14.0</text><path stroke="#00f" stroke-dasharray="1 2" d="M251 704l0 -640"/><text x="231" y="728" fill="#00f" stroke="none" font-size="16">15.0</text><path stroke="#00f" stroke-dasharray="1 2" d="M329 704l0 -640"/><text x="309" y="728" fill="#00f" stroke="none" font-size="16">16.0</text><path stroke="#00f" stroke-dasharray="1 2" d="M407 704l0 -640"/><text x="387" y="728" fill="#00f" stroke="none" font-size="16">17.0</text><path stroke="#00f" stroke-dasharray="1 2" d="M485 704l0 -640"/><text x="465" y="728" fill="#00f" stroke="none" font-size="16">18.0</text><path stroke="#00f" stroke-dasharray="1 2" d="M563 704l0 -640"/><text x="543" y="728" fill="#00f" stroke="none" font-size="16">19.0</text><path stroke="#00f" stroke-dasharray="1 2" d="M641 704l0 -640"/><text x="621" y="728" fill="#00f" stroke="none" font-size="16">20.0</text><path stroke="#00f" stroke-dasharray="1 2" d="M719 704l0 -640"/><text x="699" y="728" fill="#00f" stroke="none" font-size="16">21.0</text><path stroke="#00f" stroke-dasharray="1 2" d="M797 704l0 -640"/><text x="777" y="728" fill="#00f" stroke="none" font-size="16">22.0</text><path stroke="#00f" stroke-dasharray="1 2" d="M875 704l0 -640"/><text x="855" y="728" fill="#00f" stroke="none" font-size="16">23.0</text><path stroke="#00f" stroke-dasharray="1 2" d="M953 704l0 -640"/><text x="933" y="728" fill="#00f" stroke="none" font-size="16">24.0</text><path stroke="#00f" stroke-dasharray="1 2" d="M95 704l858 0"/><text x="43" y="712" fill="#00f" stroke="none" font-size="16">11.85</text><path stroke="#00f" stroke-dasharray="1 2" d="M95 624l858 0"/><text x="43" y="632" fill="#00f" stroke="none" font-size="16">11.90</text><path stroke="#00f" stroke-dasharray="1 2" d="M95 544l858 0"/><text x="43" y="552" fill="#00f" stroke="none" font-size="16">11.95</text><path stroke="#00f" stroke-dasharray="1 2" d="M95 464l858 0"/><text x="43" y="472" fill="#00f" stroke="none" font-size="16">12.00</text><path stroke="#00f" stroke-dasharray="1 2" d="M95 384l858 0"/><text x="43" y="392" fill="#00f" stroke="none" font-size="16">12.05</text><path stroke="#00f" stroke-dasharray="1 2" d="M95 304l858 0"/><text x="43" y="312" fill="#00f" stroke="none" font-size="16">12.10</text><path stroke="#00f" stroke-dasharray="1 2" d="M95 224l858 0"/><text x="43" y="232" fill="#00f" stroke="none" font-size="16">12.15</text><path stroke="#00f" stroke-dasharray="1 2" d="M95 144l858 0"/><text x="43" y="152" fill="#00f" stroke="none" font-size="16">12.20</text><path stroke="#00f" stroke-dasharray="1 2" d="M95 64l858 0"/><text x="43" y="72" fill="#00f" stroke="none" font-size="16">12.25</text><path stroke="red" d="M429 23l42 0"/><text x="481" y="32" fill="#00f" stroke="none" font-size="16">vec_output_rms</text><path stroke="red" d="M109 678l77 -127 76 -80 76 -63 76 -53 77 -48 76 -43 76 -41 76 -38 77 -37 76 -35 76 -33"/></svg>