<svg xmlns="http://www.w3.org/2000/svg" width="100%" height="100%" version="1.1" viewBox="0 0 1024 768" style="fill:none;font:Helvetica"><rect width="1024" height="768" x="0" y="0" fill="#fff" stroke="none"/><text x="358" y="752" fill="#00f" stroke="none" font-size="16">i(regulated)</text><text x="20" y="449" fill="#00f" stroke="none" font-size="16" transform="rotate(-90, 20, 449)">ripple factor</text><text x="10" y="16" fill="#00f" stroke="none" font-size="16">tran25: ripple factor</text><path stroke="#00f" d="M85 704l0 -636"/><text x="70" y="728" fill="#00f" stroke="none" font-size="16">0.0</text><path stroke="#00f" stroke-dasharray="1 2" d="M182 704l0 -636"/><text x="162" y="728" fill="#00f" stroke="none" font-size="16">10.0</text><path stroke="#00f" stroke-dasharray="1 2" d="M279 704l0 -636"/><text x="259" y="728" fill="#00f" stroke="none" font-size="16">20.0</text><path stroke="#00f" stroke-dasharray="1 2" d="M376 704l0 -636"/><text x="356" y="728" fill="#00f" stroke="none" font-size="16">30.0</text><path stroke="#00f" stroke-dasharray="1 2" d="M473 704l0 -636"/><text x="453" y="728" fill="#00f" stroke="none" font-size="16">40.0</text><path stroke="#00f" stroke-dasharray="1 2" d="M570 704l0 -636"/><text x="550" y="728" fill="#00f" stroke="none" font-size="16">50.0</text><path stroke="#00f" stroke-dasharray="1 2" d="M667 704l0 -636"/><text x="647" y="728" fill="#00f" stroke="none" font-size="16">60.0</text><path stroke="#00f" stroke-dasharray="1 2" d="M764 704l0 -636"/><text x="744" y="728" fill="#00f" stroke="none" font-size="16">70.0</text><path stroke="#00f" stroke-dasharray="1 2" d="M861 704l0 -636"/><text x="841" y="728" fill="#00f" stroke="none" font-size="16">80.0</text><path stroke="#00f" stroke-dasharray="1 2" d="M958 704l0 -636"/><text x="938" y="728" fill="#00f" stroke="none" font-size="16">90.0</text><text x="614" y="752" fill="#00f" stroke="none" font-size="16">m</text><path stroke="#00f" stroke-dasharray="1 2" d="M85 704l873 0"/><text x="43" y="712" fill="#00f" stroke="none" font-size="16">0.45</text><path stroke="#00f" stroke-dasharray="1 2" d="M85 651l873 0"/><text x="43" y="659" fill="#00f" stroke="none" font-size="16">0.50</text><path stroke="#00f" stroke-dasharray="1 2" d="M85 598l873 0"/><text x="43" y="606" fill="#00f" stroke="none" font-size="16">0.55</text><path stroke="#00f" stroke-dasharray="1 2" d="M85 545l873 0"/><text x="43" y="553" fill="#00f" stroke="none" font-size="16">0.60</text><path stroke="#00f" stroke-dasharray="1 2" d="M85 492l873 0"/><text x="43" y="500" fill="#00f" stroke="none" font-size="16">0.65</text><path stroke="#00f" stroke-dasharray="1 2" d="M85 439l873 0"/><text x="43" y="447" fill="#00f" stroke="none" font-size="16">0.70</text><path stroke="#00f" stroke-dasharray="1 2" d="M85 386l873 0"/><text x="43" y="394" fill="#00f" stroke="none" font-size="16">0.75</text><path stroke="#00f" stroke-dasharray="1 2" d="M85 333l873 0"/><text x="43" y="341" fill="#00f" stroke="none" font-size="16">0.80</text><path stroke="#00f" stroke-dasharray="1 2" d="M85 280l873 0"/><text x="43" y="288" fill="#00f" stroke="none" font-size="16">0.85</text><path stroke="#00f" stroke-dasharray="1 2" d="M85 227l873 0"/><text x="43" y="235" fill="#00f" stroke="none" font-size="16">0.90</text><path stroke="#00f" stroke-dasharray="1 2" d="M85 174l873 0"/><text x="43" y="182" fill="#00f" stroke="none" font-size="16">0.95</text><path stroke="#00f" stroke-dasharray="1 2" d="M85 121l873 0"/><text x="43" y="129" fill="#00f" stroke="none" font-size="16">1.00</text><path stroke="#00f" stroke-dasharray="1 2" d="M85 68l873 0"/><text x="43" y="76" fill="#00f" stroke="none" font-size="16">1.05</text><text x="10" y="32" fill="#00f" stroke="none" font-size="16">m</text><path stroke="red" d="M888 82l-279 220 -135 107 -80 63 -53 42 -37 29 -28 23 -21 17 -17 13 -14 12 -12 9 -10 8 -8 6 -8 6 -6 5 -6 5 -5 4 -4 3 -4 4 -4 3 -3 2 -3 3 -3 2 -2 2"/></svg>