<?xml version="1.0" standalone="yes"?>
<!DOCTYPE svg PUBLIC "-//W3C//DTD SVG 1.1//EN"
 "http://www.w3.org/Graphics/SVG/1.1/DTD/svg11.dtd">
<svg xmlns="http://www.w3.org/2000/svg" version="1.1"
  width="100%" height="100%" viewBox="0 0 1024 768"
  style="fill: none; font-family: Helvetica;
 font: Helvetica;
">

<!-- Creator: NGspice -->

<rect x="0" y="0" width="1024" height="768" fill="white" stroke="none"/>
<text stroke="none" fill="blue" font-size="16" x="358" y="752">
i(regulated)
</text>
<text transform="rotate(-90, 20, 449)"  stroke="none" fill="blue" font-size="16" x="20" y="449">
ripple factor
</text>
<text stroke="none" fill="blue" font-size="16" x="10" y="16">
tran25: ripple factor
</text>
<path stroke="blue" d="M85 704l0 -636"/>
<text stroke="none" fill="blue" font-size="16" x="70" y="728">
0.0
</text>
<path stroke="blue" stroke-dasharray="1,2" d="M182 704l0 -636"/>
<text stroke="none" fill="blue" font-size="16" x="162" y="728">
10.0
</text>
<path stroke="blue" stroke-dasharray="1,2" d="M279 704l0 -636"/>
<text stroke="none" fill="blue" font-size="16" x="259" y="728">
20.0
</text>
<path stroke="blue" stroke-dasharray="1,2" d="M376 704l0 -636"/>
<text stroke="none" fill="blue" font-size="16" x="356" y="728">
30.0
</text>
<path stroke="blue" stroke-dasharray="1,2" d="M473 704l0 -636"/>
<text stroke="none" fill="blue" font-size="16" x="453" y="728">
40.0
</text>
<path stroke="blue" stroke-dasharray="1,2" d="M570 704l0 -636"/>
<text stroke="none" fill="blue" font-size="16" x="550" y="728">
50.0
</text>
<path stroke="blue" stroke-dasharray="1,2" d="M667 704l0 -636"/>
<text stroke="none" fill="blue" font-size="16" x="647" y="728">
60.0
</text>
<path stroke="blue" stroke-dasharray="1,2" d="M764 704l0 -636"/>
<text stroke="none" fill="blue" font-size="16" x="744" y="728">
70.0
</text>
<path stroke="blue" stroke-dasharray="1,2" d="M861 704l0 -636"/>
<text stroke="none" fill="blue" font-size="16" x="841" y="728">
80.0
</text>
<path stroke="blue" stroke-dasharray="1,2" d="M958 704l0 -636"/>
<text stroke="none" fill="blue" font-size="16" x="938" y="728">
90.0
</text>
<text stroke="none" fill="blue" font-size="16" x="614" y="752">
m     
</text>
<path stroke="blue" stroke-dasharray="1,2" d="M85 704l873 0"/>
<text stroke="none" fill="blue" font-size="16" x="43" y="712">
0.45
</text>
<path stroke="blue" stroke-dasharray="1,2" d="M85 651l873 0"/>
<text stroke="none" fill="blue" font-size="16" x="43" y="659">
0.50
</text>
<path stroke="blue" stroke-dasharray="1,2" d="M85 598l873 0"/>
<text stroke="none" fill="blue" font-size="16" x="43" y="606">
0.55
</text>
<path stroke="blue" stroke-dasharray="1,2" d="M85 545l873 0"/>
<text stroke="none" fill="blue" font-size="16" x="43" y="553">
0.60
</text>
<path stroke="blue" stroke-dasharray="1,2" d="M85 492l873 0"/>
<text stroke="none" fill="blue" font-size="16" x="43" y="500">
0.65
</text>
<path stroke="blue" stroke-dasharray="1,2" d="M85 439l873 0"/>
<text stroke="none" fill="blue" font-size="16" x="43" y="447">
0.70
</text>
<path stroke="blue" stroke-dasharray="1,2" d="M85 386l873 0"/>
<text stroke="none" fill="blue" font-size="16" x="43" y="394">
0.75
</text>
<path stroke="blue" stroke-dasharray="1,2" d="M85 333l873 0"/>
<text stroke="none" fill="blue" font-size="16" x="43" y="341">
0.80
</text>
<path stroke="blue" stroke-dasharray="1,2" d="M85 280l873 0"/>
<text stroke="none" fill="blue" font-size="16" x="43" y="288">
0.85
</text>
<path stroke="blue" stroke-dasharray="1,2" d="M85 227l873 0"/>
<text stroke="none" fill="blue" font-size="16" x="43" y="235">
0.90
</text>
<path stroke="blue" stroke-dasharray="1,2" d="M85 174l873 0"/>
<text stroke="none" fill="blue" font-size="16" x="43" y="182">
0.95
</text>
<path stroke="blue" stroke-dasharray="1,2" d="M85 121l873 0"/>
<text stroke="none" fill="blue" font-size="16" x="43" y="129">
1.00
</text>
<path stroke="blue" stroke-dasharray="1,2" d="M85 68l873 0"/>
<text stroke="none" fill="blue" font-size="16" x="43" y="76">
1.05
</text>
<text stroke="none" fill="blue" font-size="16" x="10" y="32">
m     
</text>
<path stroke="red" d="M888 82l-279 220 -135 107 -80 63 -53 42 -37 29 -28 23 -21 17 -17 13 -14 12 -12 9 -10 8 -8 6 -8 6 -6 5 -6 5 -5 4 -4 3 -4 4 -4 3 -3 2 -3 3 -3 2 -2 2"/>
</svg>
