<?xml version="1.0" standalone="yes"?>
<!DOCTYPE svg PUBLIC "-//W3C//DTD SVG 1.1//EN"
 "http://www.w3.org/Graphics/SVG/1.1/DTD/svg11.dtd">
<svg xmlns="http://www.w3.org/2000/svg" version="1.1"
  width="100%" height="100%" viewBox="0 0 1024 768"
  style="fill: none; font-family: Helvetica;
 font: Helvetica;
">

<!-- Creator: NGspice -->

<rect x="0" y="0" width="1024" height="768" fill="white" stroke="none"/>
<text stroke="none" fill="blue" font-size="16" x="358" y="752">
v(regulated)
</text>
<text transform="rotate(-90, 20, 444)"  stroke="none" fill="blue" font-size="16" x="20" y="444">
i(regulated)
</text>
<text stroke="none" fill="blue" font-size="16" x="10" y="16">
tran25: load line
</text>
<path stroke="blue" stroke-dasharray="1,2" d="M85 704l0 -639"/>
<text stroke="none" fill="blue" font-size="16" x="55" y="728">
12.005
</text>
<path stroke="blue" stroke-dasharray="1,2" d="M194 704l0 -639"/>
<text stroke="none" fill="blue" font-size="16" x="164" y="728">
12.010
</text>
<path stroke="blue" stroke-dasharray="1,2" d="M303 704l0 -639"/>
<text stroke="none" fill="blue" font-size="16" x="273" y="728">
12.015
</text>
<path stroke="blue" stroke-dasharray="1,2" d="M412 704l0 -639"/>
<text stroke="none" fill="blue" font-size="16" x="382" y="728">
12.020
</text>
<path stroke="blue" stroke-dasharray="1,2" d="M521 704l0 -639"/>
<text stroke="none" fill="blue" font-size="16" x="491" y="728">
12.025
</text>
<path stroke="blue" stroke-dasharray="1,2" d="M630 704l0 -639"/>
<text stroke="none" fill="blue" font-size="16" x="600" y="728">
12.030
</text>
<path stroke="blue" stroke-dasharray="1,2" d="M739 704l0 -639"/>
<text stroke="none" fill="blue" font-size="16" x="709" y="728">
12.035
</text>
<path stroke="blue" stroke-dasharray="1,2" d="M848 704l0 -639"/>
<text stroke="none" fill="blue" font-size="16" x="818" y="728">
12.040
</text>
<path stroke="blue" stroke-dasharray="1,2" d="M957 704l0 -639"/>
<text stroke="none" fill="blue" font-size="16" x="927" y="728">
12.045
</text>
<text stroke="none" fill="blue" font-size="16" x="614" y="752">
     
</text>
<path stroke="blue" d="M85 704l872 0"/>
<text stroke="none" fill="blue" font-size="16" x="53" y="712">
0.0
</text>
<path stroke="blue" stroke-dasharray="1,2" d="M85 633l872 0"/>
<text stroke="none" fill="blue" font-size="16" x="43" y="641">
10.0
</text>
<path stroke="blue" stroke-dasharray="1,2" d="M85 562l872 0"/>
<text stroke="none" fill="blue" font-size="16" x="43" y="570">
20.0
</text>
<path stroke="blue" stroke-dasharray="1,2" d="M85 491l872 0"/>
<text stroke="none" fill="blue" font-size="16" x="43" y="499">
30.0
</text>
<path stroke="blue" stroke-dasharray="1,2" d="M85 420l872 0"/>
<text stroke="none" fill="blue" font-size="16" x="43" y="428">
40.0
</text>
<path stroke="blue" stroke-dasharray="1,2" d="M85 349l872 0"/>
<text stroke="none" fill="blue" font-size="16" x="43" y="357">
50.0
</text>
<path stroke="blue" stroke-dasharray="1,2" d="M85 278l872 0"/>
<text stroke="none" fill="blue" font-size="16" x="43" y="286">
60.0
</text>
<path stroke="blue" stroke-dasharray="1,2" d="M85 207l872 0"/>
<text stroke="none" fill="blue" font-size="16" x="43" y="215">
70.0
</text>
<path stroke="blue" stroke-dasharray="1,2" d="M85 136l872 0"/>
<text stroke="none" fill="blue" font-size="16" x="43" y="144">
80.0
</text>
<path stroke="blue" stroke-dasharray="1,2" d="M85 65l872 0"/>
<text stroke="none" fill="blue" font-size="16" x="43" y="73">
90.0
</text>
<text stroke="none" fill="blue" font-size="16" x="10" y="32">
m     
</text>
<path stroke="red" d="M162 136l274 197 128 96 73 56 49 37 35 27 26 19 20 16 17 12 13 10 11 8 10 7 8 6 7 5 5 5 6 4 5 3 4 3 4 3 4 3 3 2 3 2 3 2 2 2"/>
</svg>
