<svg xmlns="http://www.w3.org/2000/svg" width="100%" height="100%" version="1.1" viewBox="0 0 1024 768" style="fill:none;font:Helvetica"><rect width="1024" height="768" x="0" y="0" fill="#fff" stroke="none"/><text x="358" y="752" fill="#00f" stroke="none" font-size="16">i(regulated)</text><text x="20" y="449" fill="#00f" stroke="none" font-size="16" transform="rotate(-90, 20, 449)">ripple factor</text><text x="10" y="16" fill="#00f" stroke="none" font-size="16">tran25: ripple factor</text><path stroke="#00f" d="M75 704l0 -640"/><text x="60" y="728" fill="#00f" stroke="none" font-size="16">0.0</text><path stroke="#00f" stroke-dasharray="1 2" d="M174 704l0 -640"/><text x="154" y="728" fill="#00f" stroke="none" font-size="16">10.0</text><path stroke="#00f" stroke-dasharray="1 2" d="M273 704l0 -640"/><text x="253" y="728" fill="#00f" stroke="none" font-size="16">20.0</text><path stroke="#00f" stroke-dasharray="1 2" d="M372 704l0 -640"/><text x="352" y="728" fill="#00f" stroke="none" font-size="16">30.0</text><path stroke="#00f" stroke-dasharray="1 2" d="M471 704l0 -640"/><text x="451" y="728" fill="#00f" stroke="none" font-size="16">40.0</text><path stroke="#00f" stroke-dasharray="1 2" d="M570 704l0 -640"/><text x="550" y="728" fill="#00f" stroke="none" font-size="16">50.0</text><path stroke="#00f" stroke-dasharray="1 2" d="M669 704l0 -640"/><text x="649" y="728" fill="#00f" stroke="none" font-size="16">60.0</text><path stroke="#00f" stroke-dasharray="1 2" d="M768 704l0 -640"/><text x="748" y="728" fill="#00f" stroke="none" font-size="16">70.0</text><path stroke="#00f" stroke-dasharray="1 2" d="M867 704l0 -640"/><text x="847" y="728" fill="#00f" stroke="none" font-size="16">80.0</text><path stroke="#00f" stroke-dasharray="1 2" d="M966 704l0 -640"/><text x="946" y="728" fill="#00f" stroke="none" font-size="16">90.0</text><text x="614" y="752" fill="#00f" stroke="none" font-size="16">m</text><path stroke="#00f" stroke-dasharray="1 2" d="M75 704l891 0"/><text x="43" y="712" fill="#00f" stroke="none" font-size="16">0.4</text><path stroke="#00f" stroke-dasharray="1 2" d="M75 624l891 0"/><text x="43" y="632" fill="#00f" stroke="none" font-size="16">0.6</text><path stroke="#00f" stroke-dasharray="1 2" d="M75 544l891 0"/><text x="43" y="552" fill="#00f" stroke="none" font-size="16">0.8</text><path stroke="#00f" stroke-dasharray="1 2" d="M75 464l891 0"/><text x="43" y="472" fill="#00f" stroke="none" font-size="16">1.0</text><path stroke="#00f" stroke-dasharray="1 2" d="M75 384l891 0"/><text x="43" y="392" fill="#00f" stroke="none" font-size="16">1.2</text><path stroke="#00f" stroke-dasharray="1 2" d="M75 304l891 0"/><text x="43" y="312" fill="#00f" stroke="none" font-size="16">1.4</text><path stroke="#00f" stroke-dasharray="1 2" d="M75 224l891 0"/><text x="43" y="232" fill="#00f" stroke="none" font-size="16">1.6</text><path stroke="#00f" stroke-dasharray="1 2" d="M75 144l891 0"/><text x="43" y="152" fill="#00f" stroke="none" font-size="16">1.8</text><path stroke="#00f" stroke-dasharray="1 2" d="M75 64l891 0"/><text x="43" y="72" fill="#00f" stroke="none" font-size="16">2.0</text><text x="10" y="32" fill="#00f" stroke="none" font-size="16">m</text><path stroke="red" d="M868 138l-276 234 -133 103 -79 58 -52 37 -36 26 -28 20 -21 15 -17 11 -14 10 -12 8 -9 7 -9 5 -7 5 -6 4 -6 4 -5 4 -4 2 -4 3 -4 2 -3 3 -3 2 -3 1 -2 2"/></svg>