<svg xmlns="http://www.w3.org/2000/svg" style="fill:none;font:Helvetica" width="100%" height="100%" version="1.1" viewBox="0 0 1024 768"><rect width="1024" height="768" x="0" y="0" fill="#fff" stroke="none"/><text x="358" y="752" fill="#00f" stroke="none" font-size="16">v(regulated)</text><text x="20" y="444" fill="#00f" stroke="none" font-size="16" transform="rotate(-90, 20, 444)">i(regulated)</text><text x="10" y="16" fill="#00f" stroke="none" font-size="16">tran25: load line</text><path stroke="#00f" stroke-dasharray="1 2" d="M85 704l0 -639"/><text x="55" y="728" fill="#00f" stroke="none" font-size="16">12.414</text><path stroke="#00f" stroke-dasharray="1 2" d="M194 704l0 -639"/><text x="164" y="728" fill="#00f" stroke="none" font-size="16">12.416</text><path stroke="#00f" stroke-dasharray="1 2" d="M303 704l0 -639"/><text x="273" y="728" fill="#00f" stroke="none" font-size="16">12.418</text><path stroke="#00f" stroke-dasharray="1 2" d="M412 704l0 -639"/><text x="382" y="728" fill="#00f" stroke="none" font-size="16">12.420</text><path stroke="#00f" stroke-dasharray="1 2" d="M521 704l0 -639"/><text x="491" y="728" fill="#00f" stroke="none" font-size="16">12.422</text><path stroke="#00f" stroke-dasharray="1 2" d="M630 704l0 -639"/><text x="600" y="728" fill="#00f" stroke="none" font-size="16">12.424</text><path stroke="#00f" stroke-dasharray="1 2" d="M739 704l0 -639"/><text x="709" y="728" fill="#00f" stroke="none" font-size="16">12.426</text><path stroke="#00f" stroke-dasharray="1 2" d="M848 704l0 -639"/><text x="818" y="728" fill="#00f" stroke="none" font-size="16">12.428</text><path stroke="#00f" stroke-dasharray="1 2" d="M957 704l0 -639"/><text x="927" y="728" fill="#00f" stroke="none" font-size="16">12.430</text><path stroke="#00f" d="M85 704l872 0"/><text x="53" y="712" fill="#00f" stroke="none" font-size="16">0.0</text><path stroke="#00f" stroke-dasharray="1 2" d="M85 633l872 0"/><text x="43" y="641" fill="#00f" stroke="none" font-size="16">10.0</text><path stroke="#00f" stroke-dasharray="1 2" d="M85 562l872 0"/><text x="43" y="570" fill="#00f" stroke="none" font-size="16">20.0</text><path stroke="#00f" stroke-dasharray="1 2" d="M85 491l872 0"/><text x="43" y="499" fill="#00f" stroke="none" font-size="16">30.0</text><path stroke="#00f" stroke-dasharray="1 2" d="M85 420l872 0"/><text x="43" y="428" fill="#00f" stroke="none" font-size="16">40.0</text><path stroke="#00f" stroke-dasharray="1 2" d="M85 349l872 0"/><text x="43" y="357" fill="#00f" stroke="none" font-size="16">50.0</text><path stroke="#00f" stroke-dasharray="1 2" d="M85 278l872 0"/><text x="43" y="286" fill="#00f" stroke="none" font-size="16">60.0</text><path stroke="#00f" stroke-dasharray="1 2" d="M85 207l872 0"/><text x="43" y="215" fill="#00f" stroke="none" font-size="16">70.0</text><path stroke="#00f" stroke-dasharray="1 2" d="M85 136l872 0"/><text x="43" y="144" fill="#00f" stroke="none" font-size="16">80.0</text><path stroke="#00f" stroke-dasharray="1 2" d="M85 65l872 0"/><text x="43" y="73" fill="#00f" stroke="none" font-size="16">90.0</text><text x="10" y="32" fill="#00f" stroke="none" font-size="16">m</text><path stroke="red" d="M165 116l265 205 132 98 80 59 53 38 39 28 29 20 23 16 18 12 15 11 13 8 11 7 9 7 8 5 7 5 7 4 5 3 5 4 5 3 4 2 4 3 3 2 4 2 3 2"/></svg>