<svg xmlns="http://www.w3.org/2000/svg" width="100%" height="100%" version="1.1" viewBox="0 0 1024 768" style="fill:none;font:Helvetica"><rect width="1024" height="768" x="0" y="0" fill="#fff" stroke="none"/><text x="358" y="752" fill="#00f" stroke="none" font-size="16">v-sweep</text><text x="10" y="16" fill="#00f" stroke="none" font-size="16">dc1: ecl (or-nor) [vb(5)-sweep]</text><path stroke="#00f" stroke-dasharray="1 2" d="M50 704l0 -639"/><text x="25" y="728" fill="#00f" stroke="none" font-size="16">-1.60</text><path stroke="#00f" stroke-dasharray="1 2" d="M127 704l0 -639"/><text x="102" y="728" fill="#00f" stroke="none" font-size="16">-1.55</text><path stroke="#00f" stroke-dasharray="1 2" d="M204 704l0 -639"/><text x="179" y="728" fill="#00f" stroke="none" font-size="16">-1.50</text><path stroke="#00f" stroke-dasharray="1 2" d="M281 704l0 -639"/><text x="256" y="728" fill="#00f" stroke="none" font-size="16">-1.45</text><path stroke="#00f" stroke-dasharray="1 2" d="M358 704l0 -639"/><text x="333" y="728" fill="#00f" stroke="none" font-size="16">-1.40</text><path stroke="#00f" stroke-dasharray="1 2" d="M435 704l0 -639"/><text x="410" y="728" fill="#00f" stroke="none" font-size="16">-1.35</text><path stroke="#00f" stroke-dasharray="1 2" d="M512 704l0 -639"/><text x="487" y="728" fill="#00f" stroke="none" font-size="16">-1.30</text><path stroke="#00f" stroke-dasharray="1 2" d="M589 704l0 -639"/><text x="564" y="728" fill="#00f" stroke="none" font-size="16">-1.25</text><path stroke="#00f" stroke-dasharray="1 2" d="M666 704l0 -639"/><text x="641" y="728" fill="#00f" stroke="none" font-size="16">-1.20</text><path stroke="#00f" stroke-dasharray="1 2" d="M743 704l0 -639"/><text x="718" y="728" fill="#00f" stroke="none" font-size="16">-1.15</text><path stroke="#00f" stroke-dasharray="1 2" d="M820 704l0 -639"/><text x="795" y="728" fill="#00f" stroke="none" font-size="16">-1.10</text><path stroke="#00f" stroke-dasharray="1 2" d="M897 704l0 -639"/><text x="872" y="728" fill="#00f" stroke="none" font-size="16">-1.05</text><path stroke="#00f" stroke-dasharray="1 2" d="M974 704l0 -639"/><text x="949" y="728" fill="#00f" stroke="none" font-size="16">-1.00</text><text x="614" y="752" fill="#00f" stroke="none" font-size="16">V</text><path stroke="#00f" stroke-dasharray="1 2" d="M50 704l924 0"/><text x="8" y="712" fill="#00f" stroke="none" font-size="16">-1.8</text><path stroke="#00f" stroke-dasharray="1 2" d="M50 633l924 0"/><text x="8" y="641" fill="#00f" stroke="none" font-size="16">-1.6</text><path stroke="#00f" stroke-dasharray="1 2" d="M50 562l924 0"/><text x="8" y="570" fill="#00f" stroke="none" font-size="16">-1.4</text><path stroke="#00f" stroke-dasharray="1 2" d="M50 491l924 0"/><text x="8" y="499" fill="#00f" stroke="none" font-size="16">-1.2</text><path stroke="#00f" stroke-dasharray="1 2" d="M50 420l924 0"/><text x="8" y="428" fill="#00f" stroke="none" font-size="16">-1.0</text><path stroke="#00f" stroke-dasharray="1 2" d="M50 349l924 0"/><text x="8" y="357" fill="#00f" stroke="none" font-size="16">-0.8</text><path stroke="#00f" stroke-dasharray="1 2" d="M50 278l924 0"/><text x="8" y="286" fill="#00f" stroke="none" font-size="16">-0.6</text><path stroke="#00f" stroke-dasharray="1 2" d="M50 207l924 0"/><text x="8" y="215" fill="#00f" stroke="none" font-size="16">-0.4</text><path stroke="#00f" stroke-dasharray="1 2" d="M50 136l924 0"/><text x="8" y="144" fill="#00f" stroke="none" font-size="16">-0.2</text><path stroke="#00f" d="M50 65l924 0"/><text x="18" y="73" fill="#00f" stroke="none" font-size="16">0.0</text><text x="10" y="32" fill="#00f" stroke="none" font-size="16">V</text><path stroke="green" d="M462 23l46 0"/><text x="518" y="32" fill="#00f" stroke="none" font-size="16">v(2)</text><path stroke="green" d="M50 65l46 0 46 0 47 0 46 1 46 1 46 4 46 11 47 34 46 82 46 139 46 141 46 87 47 40 46 16 46 9 46 4 46 -1 47 -3 46 -6 46 -7"/><path stroke="red" d="M50 23l46 0"/><text x="106" y="32" fill="#00f" stroke="none" font-size="16">v(4)</text><path stroke="red" d="M50 607l46 0 46 0 47 0 46 -1 46 -1 46 -4 46 -12 47 -33 46 -82 46 -137 46 -137 46 -83 47 -34 46 -12 46 -4 46 -1 46 -1 47 0 46 0 46 0"/></svg>