<?xml version="1.0" standalone="yes"?>
<!DOCTYPE svg PUBLIC "-//W3C//DTD SVG 1.1//EN"
 "http://www.w3.org/Graphics/SVG/1.1/DTD/svg11.dtd">
<svg xmlns="http://www.w3.org/2000/svg" version="1.1"
  width="100%" height="100%" viewBox="0 0 1024 768"
  style="fill: none; font-family: Helvetica;
 font: Helvetica;
">

<!-- Creator: NGspice -->

<rect x="0" y="0" width="1024" height="768" fill="white" stroke="none"/>
<text stroke="none" fill="blue" font-size="16" x="358" y="752">
time
</text>
<text stroke="none" fill="blue" font-size="16" x="10" y="16">
tran1: astable multiibrator (set1).
</text>
<path stroke="blue" stroke-dasharray="1,2" d="M60 704l0 -637"/>
<text stroke="none" fill="blue" font-size="16" x="35" y="728">
198.0
</text>
<path stroke="blue" stroke-dasharray="1,2" d="M150 704l0 -637"/>
<text stroke="none" fill="blue" font-size="16" x="125" y="728">
198.2
</text>
<path stroke="blue" stroke-dasharray="1,2" d="M240 704l0 -637"/>
<text stroke="none" fill="blue" font-size="16" x="215" y="728">
198.4
</text>
<path stroke="blue" stroke-dasharray="1,2" d="M330 704l0 -637"/>
<text stroke="none" fill="blue" font-size="16" x="305" y="728">
198.6
</text>
<path stroke="blue" stroke-dasharray="1,2" d="M420 704l0 -637"/>
<text stroke="none" fill="blue" font-size="16" x="395" y="728">
198.8
</text>
<path stroke="blue" stroke-dasharray="1,2" d="M510 704l0 -637"/>
<text stroke="none" fill="blue" font-size="16" x="485" y="728">
199.0
</text>
<path stroke="blue" stroke-dasharray="1,2" d="M600 704l0 -637"/>
<text stroke="none" fill="blue" font-size="16" x="575" y="728">
199.2
</text>
<path stroke="blue" stroke-dasharray="1,2" d="M690 704l0 -637"/>
<text stroke="none" fill="blue" font-size="16" x="665" y="728">
199.4
</text>
<path stroke="blue" stroke-dasharray="1,2" d="M780 704l0 -637"/>
<text stroke="none" fill="blue" font-size="16" x="755" y="728">
199.6
</text>
<path stroke="blue" stroke-dasharray="1,2" d="M870 704l0 -637"/>
<text stroke="none" fill="blue" font-size="16" x="845" y="728">
199.8
</text>
<path stroke="blue" stroke-dasharray="1,2" d="M960 704l0 -637"/>
<text stroke="none" fill="blue" font-size="16" x="935" y="728">
200.0
</text>
<text stroke="none" fill="blue" font-size="16" x="614" y="752">
ms
</text>
<path stroke="blue" d="M60 704l900 0"/>
<text stroke="none" fill="blue" font-size="16" x="28" y="712">
0.0
</text>
<path stroke="blue" stroke-dasharray="1,2" d="M60 613l900 0"/>
<text stroke="none" fill="blue" font-size="16" x="28" y="621">
2.0
</text>
<path stroke="blue" stroke-dasharray="1,2" d="M60 522l900 0"/>
<text stroke="none" fill="blue" font-size="16" x="28" y="530">
4.0
</text>
<path stroke="blue" stroke-dasharray="1,2" d="M60 431l900 0"/>
<text stroke="none" fill="blue" font-size="16" x="28" y="439">
6.0
</text>
<path stroke="blue" stroke-dasharray="1,2" d="M60 340l900 0"/>
<text stroke="none" fill="blue" font-size="16" x="28" y="348">
8.0
</text>
<path stroke="blue" stroke-dasharray="1,2" d="M60 249l900 0"/>
<text stroke="none" fill="blue" font-size="16" x="18" y="257">
10.0
</text>
<path stroke="blue" stroke-dasharray="1,2" d="M60 158l900 0"/>
<text stroke="none" fill="blue" font-size="16" x="18" y="166">
12.0
</text>
<path stroke="blue" stroke-dasharray="1,2" d="M60 67l900 0"/>
<text stroke="none" fill="blue" font-size="16" x="18" y="75">
14.0
</text>
<text stroke="none" fill="blue" font-size="16" x="10" y="32">
V
</text>
<path stroke="red" d="M450 23l45 0"/>
<text stroke="none" fill="blue" font-size="16" x="505" y="32">
d
</text>
<path stroke="red" d="M60 553l1 -8 0 -13 1 -7 0 -13 1 -7 0 -12 0 -6 1 -11 0 -7 1 -10 0 -6 1 -10 0 -6 1 -10 0 -4 1 -10 0 -4 0 -10 1 -4 0 -9 1 -3 0 -9 1 -3 0 -8 1 -3 0 -8 0 -3 1 -8 0 -2 1 -7 0 -2 1 -8 0 -1 1 -8 0 -1 1 -7 0 -1 0 -7 1 -1 0 -6 1 -1"/>
<path stroke="red" d="M79 289l0 -6 1 -1 0 -6 1 0 0 -6 0 -1 1 -5 1 -6 1 -5 1 -5 1 -5 0 -5 1 1 0 -5 1 1 0 -5 1 1 0 -5 1 1 0 -5 0 1 1 -4 0 1 1 -5 0 2 1 -5 0 2 1 -5 0 2 1 -5 0 2 0 -4 1 2 0 -5 1 2 0 -4 1 2 0 -4 1 2 0 -4 0 2 1 -4 0 2 1 -4 0 2 1 -4"/>
<path stroke="red" d="M102 189l0 2 1 -4 0 2 1 -4 0 3 0 -4 1 2 0 -4 1 3 0 -4 1 3 0 -4 1 2 0 -3 0 2 1 -4 0 3 1 -4 0 3 1 -4 0 3 1 -4 0 3 1 -4 0 3 0 -4 1 3 0 -3 1 2 0 -3 1 3 0 -4 1 3 0 -4 0 3 1 -3 0 3 1 -4 0 3 1 -4 0 3 1 -3 0 3 1 -4 0 3 0 -3 1 3"/>
<path stroke="red" d="M123 169l0 -4 1 3 0 -3 1 3 0 -4 1 3 0 -3 0 3 1 -4 0 4 1 -4 0 3 1 -3 0 3 1 -4 0 4 1 -4 0 3 0 -3 1 3 0 -3 1 3 0 -4 1 3 0 -3 1 3 0 -3 0 3 1 -3 0 3 1 -4 0 3 1 -3 0 3 1 -3 0 3 1 -3 0 3 0 -3 1 3 0 -4 1 4 0 -4 1 3 0 -3 1 3 0 -3"/>
<path stroke="red" d="M144 159l0 3 1 -3 0 3 1 -3 0 3 1 -3 0 3 1 -4 0 4 1 -4 0 4 0 -4 1 3 0 -3 0 3 0 -3 0 3 1 -3 0 3 0 -3 1 3 0 -3 0 3 1 -3 0 3 1 -3 0 3 1 -3 0 3 1 -3 0 3 0 -3 1 3 0 -3 1 3 0 -3 1 3 0 -4 1 4 0 -4 1 4 0 -4 0 3 1 -3 0 3 1 -3 0 3"/>
<path stroke="red" d="M163 160l1 -3 0 3 1 -3 0 3 0 -3 1 3 0 -3 1 3 0 542 1 0 1 0 1 0 1 0 1 0 1 0 1 0 1 0 1 0 1 0 1 0 1 0 1 0 1 0 1 0 1 0 1 0 1 0 1 0 1 0 1 0 1 0 1 0 1 0 1 0 1 0 1 0 1 0 1 0 1 0 1 0 1 0 1 0 1 0 0 -1 0 1 1 -1 0 1 1 -1 0 1 1 -1 1 0"/>
<path stroke="red" d="M205 701l1 0 1 0 1 0 1 0 1 0 1 0 1 0 1 0 1 0 1 0 1 0 1 0 1 0 1 0 1 0 1 0 1 0 1 0 1 0 1 0 1 0 1 0 1 0 1 0 1 0 1 0 1 0 1 0 1 0 1 0 1 0 1 0 1 0 1 0 1 0 1 0 1 0 1 0 1 0 1 0 1 0 1 0 1 0 1 0 1 0 1 0 1 0 1 0 1 0 1 0 1 0 1 0 1 0"/>
<path stroke="red" d="M258 701l1 0 1 0 1 0 1 0 1 0 1 0 1 0 1 0 1 0 1 0 1 0 1 0 1 0 1 0 1 0 1 0 1 0 1 0 1 0 1 0 1 0 1 0 1 0 1 0 0 -1 0 -1 0 -1 0 -1 0 -19 0 -2 0 8 0 -22 0 17 0 -9 0 11 0 -6 0 8 0 -5 0 6 0 -5 0 2 1 -9 0 -2 0 -12 0 -6 1 -17 0 -9"/>
<path stroke="red" d="M284 626l1 -17 0 -8 1 -16 0 -7 1 -16 0 -6 0 -15 1 -6 0 -15 1 -5 0 -14 1 -5 0 -14 1 -4 0 -13 1 -4 0 -13 0 -3 1 -12 0 -3 1 -12 0 -2 1 -12 0 -2 1 -11 0 -1 0 -12 1 -1 0 -10 1 -1 0 -11 1 0 0 -10 1 0 0 -10 1 0 0 -10 0 1 1 -10"/>
<path stroke="red" d="M302 316l0 1 1 -10 0 2 1 -10 0 2 1 -9 0 1 0 -9 1 2 0 -8 1 2 0 -9 1 3 0 -9 1 3 0 -9 1 3 0 -8 0 3 1 -9 0 4 1 -9 0 4 1 -8 0 3 1 -8 0 4 0 -8 1 4 0 -8 1 4 0 -8 1 4 0 -7 1 4 0 -8 1 5 0 -8 0 5 1 -8 0 5 1 -8 0 5 1 -8 0 5 1 -7 0 5"/>
<path stroke="red" d="M323 206l0 -8 1 6 0 -8 1 5 0 -7 1 5 0 -7 1 5 0 -7 1 5 0 -7 0 6 1 -8 0 6 1 -7 0 5 1 -7 0 6 1 -8 0 6 0 -7 1 6 0 -7 1 6 0 -8 1 6 0 -7 1 6 0 -7 1 6 0 -7 0 6 1 -7 0 6 1 -7 0 6 1 -7 0 6 1 -7 0 7 0 -8 1 7 0 -8 1 7 0 -7 1 6 0 -7"/>
<path stroke="red" d="M344 167l1 7 0 -8 1 7 0 -7 0 6 1 -7 0 7 1 -7 0 6 1 -7 0 7 1 -7 0 6 0 -7 1 7 0 -7 1 6 0 -7 1 7 0 -7 1 7 0 -8 1 7 0 -7 0 7 1 -7 0 7 1 -8 0 7 1 -7 0 7 1 -7 0 7 0 -8 1 7 0 -7 1 7 0 -7 1 7 0 -7 1 7 0 -8 1 8 0 -8 0 7 1 -7 0 7"/>
<path stroke="red" d="M365 165l1 -7 0 7 1 -7 0 7 1 -8 0 8 0 -8 1 7 0 -7 1 7 0 -7 1 7 0 -7 1 7 0 -7 1 7 0 -7 0 7 1 -8 0 8 1 -8 0 8 1 -8 0 7 1 -7 0 7 0 -7 1 7 0 -7 1 7 0 -7 1 7 0 -7 1 7 0 -7 1 7 0 -7 0 7 1 -7 0 7 1 -7 0 7 1 -8 0 8 1 -8 0 8 0 -8"/>
<path stroke="red" d="M386 155l1 8 0 -8 1 8 0 -8 1 7 0 -7 1 7 0 -7 1 7 0 -7 0 7 1 -7 0 7 1 -7 0 7 1 -7 0 7 1 -7 0 7 0 -7 1 7 0 -7 1 15 0 -4 0 105 0 246 0 178 0 3 0 1 0 1 0 1 0 1 1 0 1 0 1 0 1 0 1 0 1 0 1 0 1 0 1 0 1 0 1 0 1 0 1 0 1 0 1 0 1 0"/>
<path stroke="red" d="M413 702l1 0 1 0 1 0 1 0 1 0 1 0 1 0 1 0 1 0 1 0 1 0 1 0 1 0 1 0 1 0 1 0 1 0 1 0 0 -1 1 1 0 -1 1 0 1 0 1 0 1 0 1 0 1 0 1 0 1 0 1 0 1 0 1 0 1 0 1 0 1 0 1 0 1 0 1 0 1 0 1 0 1 0 1 0 1 0 1 0 1 0 1 0 1 0 1 0 1 0 1 0 1 0 1 0 1 0"/>
<path stroke="red" d="M464 701l1 0 1 0 1 0 1 0 1 0 1 0 1 0 1 0 1 0 1 0 1 0 1 0 1 0 1 0 1 0 1 0 1 0 1 0 1 0 1 0 1 0 1 0 1 0 1 0 1 0 1 0 1 0 1 0 1 0 1 0 1 0 1 0 1 0 1 0 1 0 1 0 1 0 1 0 1 0 1 0 1 0 1 0 1 0 1 0 1 0 1 0 1 0 1 0 0 -1 0 -18 0 -4 0 6"/>
<path stroke="red" d="M512 684l0 -5 0 4 0 -4 0 2 0 -6 0 -2 1 -10 0 -6 0 -16 1 -10 0 -16 1 -9 0 -15 1 -9 0 -14 1 -8 0 -14 0 -7 1 -14 0 -7 1 -13 0 -6 1 -12 0 -6 1 -12 0 -5 0 -11 1 -5 0 -11 1 -4 0 -11 1 -4 0 -10 1 -3 0 -11 1 -2 0 -10 0 -3 1 -9 0 -2"/>
<path stroke="red" d="M527 368l1 -10 0 -1 1 -9 0 -2 1 -9 0 -1 0 -8 1 -1 0 -8 1 -1 0 -8 1 0 0 -8 1 0 0 -8 1 0 0 -7 1 -7 1 -7 0 1 1 -7 0 1 1 -7 0 1 0 -6 1 1 0 -7 1 2 0 -7 1 2 0 -6 1 1 0 -6 1 2 0 -6 0 2 1 -6 0 2 1 -6 0 2 1 -6 0 3 1 -6 0 3 0 -6 1 2"/>
<path stroke="red" d="M549 216l0 -5 1 2 0 -5 1 3 0 -6 1 3 0 -6 1 3 0 -5 0 3 1 -5 0 3 1 -6 0 4 1 -6 0 4 1 -6 0 4 0 -6 1 4 0 -5 1 3 0 -5 1 4 0 -6 1 4 0 -5 1 4 0 -6 0 4 1 -5 0 4 1 -5 0 4 1 -5 0 3 1 -5 0 4 0 -5 1 4 0 -5 1 4 0 -5 1 4 0 -5 1 4 0 -5"/>
<path stroke="red" d="M570 171l1 5 0 -5 0 4 1 -5 0 4 1 -5 0 4 1 -5 0 5 1 -5 0 4 0 -5 1 4 0 -4 1 4 0 -5 1 4 0 -5 1 5 0 -5 1 4 0 -5 0 5 1 -5 0 4 1 -4 0 4 1 -5 0 4 1 -4 0 4 0 -5 1 5 0 -5 1 4 0 -4 1 4 0 -5 1 5 0 -5 1 4 0 -4 0 4 1 -4 0 4 1 -5 0 5"/>
<path stroke="red" d="M591 165l1 -5 0 4 1 -4 0 4 0 -4 1 4 0 -5 1 5 0 -5 1 5 0 -5 1 4 0 -4 1 4 0 -4 0 4 1 -4 0 4 1 -5 0 5 1 -5 0 5 1 -5 0 4 0 -4 1 4 0 -4 1 4 0 -4 1 4 0 -4 1 4 0 -4 1 4 0 -4 0 4 1 -5 0 5 1 -5 0 5 1 -5 0 5 1 -5 0 4 0 -4 1 4 0 -4"/>
<path stroke="red" d="M612 157l1 4 0 -4 1 4 0 -4 1 4 0 -4 1 4 0 -4 0 4 1 -4 0 4 1 -4 0 4 1 -4 0 4 1 541 1 0 1 0 1 0 1 0 1 0 1 0 1 0 1 0 1 0 1 0 1 0 1 0 1 0 1 0 1 0 1 0 1 0 1 0 1 0 1 0 1 0 1 0 1 0 1 0 1 0 1 0 1 0 1 0 1 0 1 0 1 0 1 -1 0 1 1 -1"/>
<path stroke="red" d="M653 701l0 1 1 -1 0 1 1 -1 0 1 0 -1 1 1 0 -1 1 0 1 0 1 0 1 0 1 0 1 0 1 0 1 0 1 0 1 0 1 0 1 0 1 0 1 0 1 0 1 0 1 0 1 0 1 0 1 0 1 0 1 0 1 0 1 0 1 0 1 0 1 0 1 0 1 0 1 0 1 0 1 0 1 0 1 0 1 0 1 0 1 0 1 0 1 0 1 0 1 0 1 0 1 0 1 0"/>
<path stroke="red" d="M700 701l1 0 1 0 1 0 1 0 1 0 1 0 1 0 1 0 1 0 1 0 1 0 1 0 1 0 1 0 1 0 1 0 1 0 1 0 1 0 1 0 1 0 1 0 1 0 1 0 1 0 1 0 1 0 1 0 1 0 1 0 1 0 1 0 1 0 1 0 0 -1 1 0 0 -1 0 -1 0 -1 0 -20 0 -1 0 9 0 -21 0 12 0 -5 0 9 0 -5 0 7 0 -4 0 6"/>
<path stroke="red" d="M735 684l0 -5 0 3 0 -8 0 -1 0 -11 1 -5 0 -17 0 -10 1 -16 0 -9 1 -16 0 -7 1 -16 0 -7 1 -14 0 -7 0 -14 1 -6 0 -14 1 -5 0 -13 1 -5 0 -13 1 -4 0 -12 1 -4 0 -12 0 -4 1 -11 0 -3 1 -11 0 -3 1 -10 0 -3 1 -10 0 -2 0 -10 1 -2 0 -9"/>
<path stroke="red" d="M750 358l1 -2 0 -9 1 -1 0 -9 1 -1 0 -9 1 0 0 -9 1 -9 0 1 1 -9 0 1 1 -9 0 1 1 -8 0 1 0 -8 1 2 0 -8 1 1 0 -8 1 2 0 -7 1 1 0 -7 1 2 0 -7 0 2 1 -7 0 2 1 -7 0 3 1 -8 0 3 1 -7 0 3 0 -7 1 3 0 -7 1 4 0 -7 1 3 0 -7 1 4 0 -7 1 4 0 -7"/>
<path stroke="red" d="M772 210l0 4 1 -7 0 4 1 -7 0 4 1 -6 0 4 1 -7 0 4 0 -6 1 4 0 -6 1 4 0 -6 1 4 0 -6 1 4 0 -6 1 4 0 -6 0 5 1 -7 0 5 1 -6 0 5 1 -7 0 5 1 -6 0 5 0 -7 1 5 0 -6 1 5 0 -6 1 5 0 -6 1 5 0 -6 1 5 0 -6 0 5 1 -6 0 5 1 -6 0 5 1 -6 0 5"/>
<path stroke="red" d="M793 176l1 -6 0 5 0 -6 1 6 0 -7 1 6 0 -6 1 5 0 -6 1 6 0 -7 1 6 0 -6 0 5 1 -6 0 6 1 -6 0 5 1 -6 0 6 1 -6 0 5 0 -6 1 6 0 -6 1 6 0 -7 1 6 0 -6 1 6 0 -6 1 5 0 -6 0 6 1 -6 0 6 1 -6 0 6 1 -7 0 6 1 -6 0 6 0 -6 1 6 0 -7 1 6 0 -6"/>
<path stroke="red" d="M814 159l1 6 0 -6 1 6 0 -6 1 6 0 -6 0 6 1 -7 0 6 1 -6 0 6 1 -6 0 6 1 -6 0 6 0 -6 1 6 0 -6 1 6 0 -7 1 7 0 -7 1 6 0 -6 1 6 0 -6 0 6 1 -6 0 6 1 -6 0 6 1 -6 0 6 1 -6 0 6 0 -6 1 6 0 -7 1 7 0 -7 1 7 0 -7 1 6 0 -6 1 6 0 -6 0 6"/>
<path stroke="red" d="M835 162l1 -6 0 6 1 -6 0 6 1 -6 0 6 1 -6 0 6 0 -6 1 6 0 -6 1 6 0 -6 1 6 0 -6 1 6 0 -6 1 6 0 -6 0 6 1 -6 0 6 1 -6 0 6 1 -6 0 6 1 -6 0 6 0 -6 1 14 0 522 0 8 0 -1 0 1 0 1 0 1 1 0 1 0 1 0 1 0 1 0 1 0 1 0 1 0 1 0 1 0 1 0 1 0"/>
<path stroke="red" d="M861 702l1 0 1 0 1 0 1 0 1 0 1 0 1 0 1 0 1 0 1 0 1 0 1 0 1 0 1 0 1 0 1 0 1 0 1 0 1 0 1 0 1 0 1 0 1 -1 0 1 1 -1 1 0 1 0 1 0 1 0 1 0 1 0 1 0 1 0 1 0 1 0 1 0 1 0 1 0 1 0 1 0 1 0 1 0 1 0 1 0 1 0 1 0 1 0 1 0 1 0 1 0 1 0 1 0 1 0"/>
<path stroke="red" d="M913 701l1 0 1 0 1 0 1 0 1 0 1 0 1 0 1 0 1 0 1 0 1 0 1 0 1 0 1 0 1 0 1 0 1 0 1 0 1 0 1 0 1 0 1 0 1 0 1 0 1 0 1 0 1 0 1 0 1 0 1 0 1 0 1 0 1 0 1 0 1 0 1 0 1 0 1 0 1 0 1 0 1 0 1 0 1 0 1 0 1 0 1 0 1 0"/>
</svg>
