<svg xmlns="http://www.w3.org/2000/svg" width="100%" height="100%" version="1.1" viewBox="0 0 1024 768" style="fill:none;font:Helvetica"><rect width="1024" height="768" x="0" y="0" fill="#fff" stroke="none"/><text x="358" y="752" fill="#00f" stroke="none" font-size="16">time</text><text x="10" y="16" fill="#00f" stroke="none" font-size="16">tran1: astable multiibrator (set2).</text><path stroke="#00f" stroke-dasharray="1 2" d="M60 704l0 -636"/><text x="35" y="728" fill="#00f" stroke="none" font-size="16">195.0</text><path stroke="#00f" stroke-dasharray="1 2" d="M150 704l0 -636"/><text x="125" y="728" fill="#00f" stroke="none" font-size="16">195.5</text><path stroke="#00f" stroke-dasharray="1 2" d="M240 704l0 -636"/><text x="215" y="728" fill="#00f" stroke="none" font-size="16">196.0</text><path stroke="#00f" stroke-dasharray="1 2" d="M330 704l0 -636"/><text x="305" y="728" fill="#00f" stroke="none" font-size="16">196.5</text><path stroke="#00f" stroke-dasharray="1 2" d="M420 704l0 -636"/><text x="395" y="728" fill="#00f" stroke="none" font-size="16">197.0</text><path stroke="#00f" stroke-dasharray="1 2" d="M510 704l0 -636"/><text x="485" y="728" fill="#00f" stroke="none" font-size="16">197.5</text><path stroke="#00f" stroke-dasharray="1 2" d="M600 704l0 -636"/><text x="575" y="728" fill="#00f" stroke="none" font-size="16">198.0</text><path stroke="#00f" stroke-dasharray="1 2" d="M690 704l0 -636"/><text x="665" y="728" fill="#00f" stroke="none" font-size="16">198.5</text><path stroke="#00f" stroke-dasharray="1 2" d="M780 704l0 -636"/><text x="755" y="728" fill="#00f" stroke="none" font-size="16">199.0</text><path stroke="#00f" stroke-dasharray="1 2" d="M870 704l0 -636"/><text x="845" y="728" fill="#00f" stroke="none" font-size="16">199.5</text><path stroke="#00f" stroke-dasharray="1 2" d="M960 704l0 -636"/><text x="935" y="728" fill="#00f" stroke="none" font-size="16">200.0</text><text x="614" y="752" fill="#00f" stroke="none" font-size="16">ms</text><path stroke="#00f" d="M60 704l900 0"/><text x="28" y="712" fill="#00f" stroke="none" font-size="16">0.0</text><path stroke="#00f" stroke-dasharray="1 2" d="M60 651l900 0"/><text x="28" y="659" fill="#00f" stroke="none" font-size="16">1.0</text><path stroke="#00f" stroke-dasharray="1 2" d="M60 598l900 0"/><text x="28" y="606" fill="#00f" stroke="none" font-size="16">2.0</text><path stroke="#00f" stroke-dasharray="1 2" d="M60 545l900 0"/><text x="28" y="553" fill="#00f" stroke="none" font-size="16">3.0</text><path stroke="#00f" stroke-dasharray="1 2" d="M60 492l900 0"/><text x="28" y="500" fill="#00f" stroke="none" font-size="16">4.0</text><path stroke="#00f" stroke-dasharray="1 2" d="M60 439l900 0"/><text x="28" y="447" fill="#00f" stroke="none" font-size="16">5.0</text><path stroke="#00f" stroke-dasharray="1 2" d="M60 386l900 0"/><text x="28" y="394" fill="#00f" stroke="none" font-size="16">6.0</text><path stroke="#00f" stroke-dasharray="1 2" d="M60 333l900 0"/><text x="28" y="341" fill="#00f" stroke="none" font-size="16">7.0</text><path stroke="#00f" stroke-dasharray="1 2" d="M60 280l900 0"/><text x="28" y="288" fill="#00f" stroke="none" font-size="16">8.0</text><path stroke="#00f" stroke-dasharray="1 2" d="M60 227l900 0"/><text x="28" y="235" fill="#00f" stroke="none" font-size="16">9.0</text><path stroke="#00f" stroke-dasharray="1 2" d="M60 174l900 0"/><text x="18" y="182" fill="#00f" stroke="none" font-size="16">10.0</text><path stroke="#00f" stroke-dasharray="1 2" d="M60 121l900 0"/><text x="18" y="129" fill="#00f" stroke="none" font-size="16">11.0</text><path stroke="#00f" stroke-dasharray="1 2" d="M60 68l900 0"/><text x="18" y="76" fill="#00f" stroke="none" font-size="16">12.0</text><text x="10" y="32" fill="#00f" stroke="none" font-size="16">V</text><path stroke="red" d="M450 23l45 0"/><text x="505" y="32" fill="#00f" stroke="none" font-size="16">a</text><path stroke="red" d="M60 632l0 -5 1 0 0 -6 0 -5 0 -6 1 0 0 -5 0 -5 1 -5 0 -6 0 1 0 -6 1 -5 0 -5 0 -5 1 0 0 -5 0 1 0 -6 0 1 0 -5 1 0 0 -5 0 -5 1 -5 0 1 0 -5 0 -5 0 1 1 -5 0 -5 0 1 0 -5 1 -5 0 1 0 -5 0 -4 1 0 0 -5 0 1 0 -5 0 1 0 -5 1 0 0 -4 0 -5"/><path stroke="red" d="M71 483l0 1 1 -5 0 1 0 -5 0 1 0 -5 0 1 1 -5 0 1 0 -5 0 1 0 -4 1 0 0 -4 0 1 0 -5 0 1 0 -5 1 1 0 -5 0 1 0 -4 0 1 1 -5 0 1 0 -5 0 1 0 -4 0 1 1 -5 0 1 0 -4 0 1 0 -5 0 1 1 -4 0 1 0 -5 0 2 0 -5 1 1 0 -4 0 1 0 -5 0 2 0 -5 1 1 0 -4"/><path stroke="red" d="M80 396l0 1 0 -4 0 1 1 -5 0 2 0 -5 0 2 0 -5 0 1 1 -4 0 1 0 -4 0 1 0 -4 1 1 0 -4 0 1 0 -4 0 1 0 -4 1 1 0 -4 0 1 0 -4 0 2 1 -5 0 2 0 -5 0 2 0 -4 0 1 1 -4 0 1 0 -4 0 2 0 -5 0 2 1 -4 0 1 0 -4 0 2 0 -5 1 2 0 -4 0 1 0 -4 0 2 0 -4"/><path stroke="red" d="M88 327l1 1 0 -4 0 2 0 -5 0 2 1 -4 0 2 0 -4 0 1 0 -4 0 2 1 -4 0 1 0 -4 0 2 0 -4 1 2 0 -4 0 1 0 -4 0 2 0 -4 1 2 0 -4 0 1 0 -4 0 2 1 -4 0 2 0 -4 0 2 0 -4 0 2 1 -4 0 1 0 -4 0 2 0 -4 0 2 1 -4 0 2 0 -4 0 2 0 -4 1 2 0 -4 0 2 0 -4"/><path stroke="red" d="M97 272l0 2 0 -4 1 2 0 -4 0 2 0 -4 0 2 1 -4 0 2 0 -4 0 2 0 -4 0 2 1 -4 0 2 0 -4 0 3 0 -5 1 3 0 -4 0 2 0 -4 0 2 0 -4 1 2 0 -4 0 2 0 -4 0 3 1 -4 0 2 0 -4 0 2 0 -4 0 3 1 -4 0 2 0 -4 0 2 0 -4 0 3 1 -4 0 2 0 -4 0 2 0 -4 1 3 0 -4"/><path stroke="red" d="M106 229l0 2 0 -4 0 2 0 -3 1 2 0 -4 0 2 0 -4 0 3 1 -4 0 2 0 -4 0 3 0 -4 0 2 1 -4 0 3 0 -4 0 2 0 -3 1 2 0 -4 0 3 0 -4 0 2 0 -4 1 3 0 -4 0 2 0 -4 0 3 1 -4 0 3 0 -4 0 2 0 -4 0 3 1 -4 0 3 0 -4 0 2 0 -4 0 3 1 -4 0 3 0 -4 0 2"/><path stroke="red" d="M114 198l0 -3 1 2 0 -4 0 3 0 -4 0 3 0 -4 1 3 0 -4 0 2 0 -4 0 3 1 -4 0 3 0 -4 0 3 0 -4 0 3 1 -4 0 2 0 -3 0 2 0 -4 1 3 0 -4 0 3 0 -4 0 3 0 -4 1 3 0 -4 0 3 0 -4 0 3 1 -4 0 3 0 -4 0 3 0 -4 0 3 1 -4 0 3 0 -4 0 3 0 -4 0 3 1 -4"/><path stroke="red" d="M123 169l0 3 0 -4 0 3 0 -4 1 3 0 -4 0 3 0 -4 0 3 0 -4 1 3 0 -4 0 3 0 -4 0 3 1 -4 0 3 0 -4 0 3 0 -4 0 3 1 -4 0 3 0 -4 0 3 0 -4 1 3 0 -3 0 2 0 -3 0 3 0 -4 1 3 0 -4 0 3 0 -4 0 3 1 -4 0 3 0 -4 0 3 0 -3 0 3 1 -4 0 3 0 -4 0 3"/><path stroke="red" d="M131 151l0 -4 0 3 1 -4 0 3 0 -3 0 3 0 -4 1 3 0 -4 0 3 0 -4 0 3 0 -3 1 3 0 -4 0 3 0 -4 0 3 1 -4 0 3 0 -3 0 3 0 -4 0 3 1 -4 0 3 0 -3 0 3 0 -4 1 3 0 -4 0 3 0 -4 0 4 0 -4 1 3 0 -4 0 3 0 -4 0 4 1 -4 0 3 0 -4 0 3 0 -4 0 4 1 -4"/><path stroke="red" d="M140 131l0 3 0 -4 0 3 0 -3 0 3 1 -4 0 3 0 -4 0 4 0 -4 1 3 0 -4 0 3 0 -3 0 3 0 -4 1 3 0 -4 0 4 0 -4 0 3 1 -4 0 3 0 -3 0 3 0 -4 0 3 1 -3 0 3 0 -4 0 3 0 -4 1 4 0 -4 0 3 0 -4 0 4 0 -4 1 3 0 -4 0 4 0 -4 0 3 1 -4 0 4 0 -4 0 3"/><path stroke="red" d="M148 121l0 -4 0 4 1 -4 0 3 0 -4 0 4 0 -4 0 3 1 -4 0 4 0 -4 0 3 0 -4 1 4 0 -4 0 3 0 -4 0 4 0 -4 1 3 0 -3 0 3 0 -4 0 3 1 -3 0 3 0 -4 0 3 0 -3 0 3 1 -4 0 4 0 -4 0 3 0 -4 1 4 0 -4 0 3 0 -3 0 3 0 -4 1 4 0 -4 0 3 0 -4 0 4 1 -4"/><path stroke="red" d="M157 107l0 3 0 -3 0 3 0 -4 0 4 1 -4 0 3 0 -4 0 4 0 -4 0 3 1 -3 0 3 0 -4 0 4 0 -4 1 3 0 -3 0 3 0 -4 0 4 0 -4 1 3 0 -4 0 4 0 -4 0 4 1 -4 0 3 0 -4 0 4 0 -4 0 3 1 -3 0 3 0 -4 0 4 0 -4 1 3 0 -3 0 3 0 -4 0 4 0 -4 1 3 0 -3 0 3"/><path stroke="red" d="M165 102l0 -4 0 4 1 -4 0 4 0 -4 0 3 0 -3 0 3 1 -4 0 4 0 -4 0 3 0 -3 0 3 1 -4 0 4 0 -4 0 3 0 -3 1 3 0 -4 0 4 0 -4 0 4 0 -4 1 3 0 -3 0 3 0 -4 0 4 1 -4 0 3 0 -3 0 3 0 -3 0 3 1 -4 0 4 0 -4 0 3 0 -3 1 3 0 -4 0 4 0 -4 0 4 0 -4"/><path stroke="red" d="M173 92l1 3 0 -3 0 3 0 -4 0 4 1 -4 0 4 0 -4 0 3 0 -3 0 3 1 -4 0 4 0 -4 0 4 0 -4 0 3 1 -3 0 3 0 -3 0 3 0 -4 1 4 0 -4 0 4 0 -4 0 3 0 -3 1 3 0 -4 0 4 0 -4 0 4 1 -4 0 3 0 -3 0 3 0 -3 0 3 1 -4 0 4 0 -4 0 4 0 -4 1 3 0 -3 0 3 0 -3"/><path stroke="red" d="M182 87l0 3 0 -4 1 4 0 -4 0 4 0 -4 0 3 1 -3 0 3 0 -3 0 3 0 -4 0 4 1 -4 0 4 0 -4 0 4 0 -4 0 3 1 -3 0 3 0 -3 0 3 0 -3 1 3 0 -3 0 4 0 -1 0 1 0 1 0 1 0 1 0 5 0 600 0 2 0 1 0 1 0 -1 0 1 0 1 1 -1 0 1 0 -1 0 1 0 -1 0 1 1 -1 0 1"/><path stroke="red" d="M189 702l0 -1 0 1 0 -1 0 1 1 -1 0 1 0 -1 0 1 0 -1 1 1 0 -1 0 1 0 -1 0 1 0 -1 1 1 0 -1 0 1 0 -1 0 1 1 -1 0 1 0 -1 0 1 0 -1 0 1 1 -1 0 1 0 -1 0 1 0 -1 1 1 0 -1 0 1 0 -1 0 1 0 -1 1 1 0 -1 0 1 0 -1 0 1 1 -1 0 1 0 -1 0 1 0 -1"/><path stroke="red" d="M197 701l0 1 1 -1 0 1 0 -1 0 1 0 -1 0 1 1 -1 0 1 0 -1 0 1 0 -1 1 1 0 -1 0 1 0 -1 0 1 0 -1 1 1 0 -1 0 1 0 -1 0 1 1 -1 0 1 0 -1 0 1 0 -1 0 1 1 -1 0 1 0 -1 0 1 0 -1 1 1 0 -1 0 1 0 -1 0 1 0 -1 1 1 0 -1 0 1 0 -1 0 1 1 -1 0 1"/><path stroke="red" d="M206 702l0 -1 0 1 0 -1 0 1 1 -1 0 1 0 -1 0 1 0 -1 0 1 1 -1 0 1 0 -1 0 1 0 -1 1 1 0 -1 0 1 0 -1 0 1 0 -1 1 1 0 -1 0 1 0 -1 0 1 1 -1 0 1 0 -1 0 1 0 -1 0 1 1 -1 0 1 0 -1 0 1 0 -1 1 1 0 -1 0 1 0 -1 0 1 0 -1 1 1 0 -1 0 1 0 -1"/><path stroke="red" d="M214 701l0 1 1 -1 0 1 0 -1 0 1 0 -1 0 1 1 -1 0 1 0 -1 0 1 0 -1 0 1 1 -1 0 1 0 -1 0 1 0 -1 1 1 0 -1 0 1 0 -1 0 1 0 -1 1 1 0 -1 0 1 0 -1 0 1 1 -1 0 1 0 -1 0 1 0 -1 0 1 1 -1 0 1 0 -1 0 1 0 -1 1 1 0 -1 0 1 0 -1 0 1 0 -1 1 1"/><path stroke="red" d="M223 702l0 -1 0 1 0 -1 0 1 1 -1 0 1 0 -1 0 1 0 -1 0 1 1 -1 0 1 0 -1 0 1 0 -1 0 1 1 -1 0 1 0 -1 0 1 0 -1 1 1 0 -1 0 1 0 -1 0 1 0 -1 1 1 0 -1 0 1 0 -1 0 1 1 -1 0 1 0 -1 0 1 0 -1 0 1 1 -1 0 1 0 -1 1 0 1 0 1 0 1 0 1 0 1 0 1 0"/><path stroke="red" d="M237 701l1 0 1 0 1 0 1 0 1 0 1 0 1 0 1 0 1 0 1 0 1 0 1 0 1 0 1 0 1 0 1 0 1 0 1 0 1 0 1 0 1 0 1 0 1 0 1 0 1 0 1 0 1 0 1 0 1 0 1 0 1 0 1 0 1 0 1 0 1 0 1 0 1 0 1 0 1 0 1 0 1 0 1 0 1 0 1 0 1 0 1 0 1 0 1 0 1 0 1 0 1 0 1 0 1 0"/><path stroke="red" d="M290 701l1 0 1 0 1 0 1 0 1 0 1 0 1 0 1 0 1 0 1 0 1 0 1 0 1 0 1 0 1 0 1 0 1 0 1 0 1 0 1 0 1 0 1 0 1 0 1 0 1 0 1 0 1 -23 0 -1 0 -2 0 -1 0 -3 0 -2 0 -4 1 -2 0 -4 0 -2 0 -3 0 -3 0 -3 1 -3 0 -3 0 -2 0 -4 0 -2 1 -3 0 -2 0 -4 0 -2"/><path stroke="red" d="M320 623l0 -3 0 -2 1 -3 0 -3 0 -3 0 -2 0 -3 1 -2 0 -3 0 -2 0 -4 0 -2 0 -3 1 -2 0 -3 0 -2 0 -3 0 -2 0 -3 1 -2 0 -3 0 -2 0 -3 0 -2 1 -3 0 -1 0 -3 0 -2 0 -3 0 -2 1 -3 0 -2 0 -3 0 -1 0 -3 1 -2 0 -3 0 -1 0 -3 0 -2 0 -3 1 -1 0 -3"/><path stroke="red" d="M328 517l0 -2 0 -3 0 -1 1 -3 0 -2 0 -2 0 -2 0 -3 0 -1 1 -3 0 -1 0 -3 0 -1 0 -3 1 -2 0 -2 0 -2 0 -2 0 -2 0 -2 1 -2 0 -2 0 -2 0 -2 0 -2 0 -2 1 -2 0 -2 0 -1 0 -3 0 -1 1 -3 0 -1 0 -2 0 -2 0 -2 0 -1 1 -3 0 -1 0 -2 0 -2 0 -2 1 -1"/><path stroke="red" d="M336 432l0 -3 0 -1 0 -2 0 -1 0 -3 1 -1 0 -2 0 -1 0 -3 0 -1 1 -2 0 -1 0 -2 0 -1 0 -3 0 -1 1 -2 0 -1 0 -2 0 -1 0 -3 1 -1 0 -2 0 -1 0 -2 0 -1 0 -2 1 -1 0 -2 0 -1 0 -2 0 -1 0 -2 1 -1 0 -2 0 -1 0 -2 0 -1 1 -2 0 -1 0 -2 0 -1 0 -2"/><path stroke="red" d="M343 362l0 -1 1 -2 0 -1 0 -2 0 -1 0 -2 1 0 0 -3 0 -2 0 -1 0 -2 1 -1 0 -2 0 -2 0 -1 1 -2 0 -1 0 -2 0 -2 0 -1 1 -2 0 -2 0 -1 0 -2 1 -1 0 -2 0 -2 0 -2 1 -1 0 -2 0 -2 0 -1 0 -2 1 0 0 -2 0 -2 0 -1 1 -2 0 -2 0 -2 0 -1 1 -2 0 -2"/><path stroke="red" d="M353 293l0 -2 1 0 0 -2 0 -2 0 -1 0 -1 1 -1 0 -2 0 -2 1 -2 0 -2 0 -2 1 -2 0 -2 0 -2 1 0 0 -2 0 -2 0 -2 1 0 0 -2 0 -2 0 -1 1 0 0 -2 0 -2 1 -2 0 -2 0 -1 1 -2 0 -2 0 -2 1 0 0 -1 0 -2 0 -2 1 0 0 -1 0 -2 1 -2 0 -1 0 -2 1 -1 0 -2"/><path stroke="red" d="M366 226l0 -2 1 1 0 -2 0 -2 0 1 0 -2 1 0 0 -2 0 1 0 -2 0 -2 1 1 0 -2 0 -1 1 -2 0 -1 0 -2 0 1 1 -2 0 -1 0 -2 1 1 0 -2 0 -1 0 -2 1 1 0 -2 0 -1 1 -2 0 1 0 -2 0 1 0 -2 1 -1 0 -2 0 1 0 -2 1 1 0 -2 0 -1 0 -1 1 0 0 -1 0 -2 0 1"/><path stroke="red" d="M377 185l0 -2 1 1 0 -2 0 1 0 -2 1 -1 0 -1 0 -1 1 -1 0 -1 0 -1 1 0 0 -2 0 1 0 -2 0 1 0 -2 1 1 0 -2 0 1 0 -2 0 1 1 -2 0 1 0 -2 0 1 0 -2 0 1 1 -2 0 1 0 -1 0 -1 1 0 0 -1 0 -1 0 -1 1 0 0 -1 0 -1 0 1 0 -2 1 1 0 -2 0 1 0 -2 0 1"/><path stroke="red" d="M387 157l1 -2 0 1 0 -1 0 -1 1 -1 0 1 0 -2 0 1 0 -2 1 1 0 -2 0 1 0 -1 0 -1 1 0 0 -1 0 1 0 -2 0 1 1 -2 0 1 0 -1 0 -1 0 1 1 -2 0 1 0 -2 0 1 0 -1 1 0 0 -1 0 1 0 -2 0 1 0 -2 1 1 0 -1 0 -1 0 1 0 -2 1 1 0 -1 0 -1 0 1 1 -2 0 1 0 -1"/><path stroke="red" d="M397 136l0 -1 0 1 1 -2 0 1 0 -1 0 -1 1 1 0 -2 0 1 0 -1 0 1 0 -2 1 1 0 -1 0 -1 0 1 1 -2 0 1 0 -1 0 -1 0 1 1 -2 0 1 0 -1 0 1 0 -2 1 1 0 -1 0 1 0 -2 0 1 0 -1 1 0 0 -1 0 1 0 -1 0 -1 1 1 0 -2 0 1 0 -1 0 1 1 -2 0 1 0 -1 0 1 0 -2"/><path stroke="red" d="M406 120l0 1 1 -1 0 1 0 -2 0 1 0 -1 1 1 0 -2 0 1 0 -1 0 1 0 -2 1 1 0 -1 0 1 0 -2 0 1 1 -1 0 1 0 -2 0 1 0 -1 0 1 1 -2 0 1 0 -1 0 1 0 -1 1 0 0 -1 0 1 0 -1 0 1 0 -2 1 1 0 -1 0 1 0 -2 0 1 0 -1 1 1 0 -2 0 1 0 -1 0 1 1 -1 0 1"/><path stroke="red" d="M415 111l0 -2 0 1 0 -1 0 1 1 -2 0 1 0 -1 0 1 0 -1 1 1 0 -2 0 1 0 -1 0 1 0 -2 1 1 0 -1 0 1 0 -1 0 1 1 -2 0 1 0 -1 0 1 0 -1 0 1 1 -2 0 1 0 -1 0 1 0 -1 1 0 0 -1 0 1 0 -1 0 1 0 -2 1 1 0 -1 0 1 0 -1 0 1 0 -2 1 1 0 -1 0 1 0 -1"/><path stroke="red" d="M423 101l0 1 1 -2 0 1 0 -1 0 1 0 -1 0 1 1 -1 0 1 0 -2 0 1 0 -1 1 1 0 -1 0 1 0 -2 0 1 0 -1 1 1 0 -1 0 1 0 -2 0 1 1 -1 0 1 0 -1 0 1 0 -1 0 1 1 -2 0 1 0 -1 0 1 0 -1 1 1 0 -2 0 1 0 -1 0 1 0 -1 1 1 0 -1 0 1 0 -2 0 1 0 -1 1 1"/><path stroke="red" d="M432 95l0 -1 0 1 0 -1 0 1 1 -2 0 1 0 -1 0 1 0 -1 0 1 1 -1 0 1 0 -2 0 1 0 -1 1 1 0 -1 0 1 0 -1 0 1 0 -2 1 1 0 -1 0 1 0 -1 0 1 1 -1 0 1 0 -2 0 2 0 -2 0 1 1 -1 0 1 0 -1 0 1 0 -1 1 1 0 -2 0 1 0 -1 0 1 0 -1 1 1 0 -1 0 1 0 -2"/><path stroke="red" d="M440 88l0 2 0 -2 1 1 0 -1 0 1 0 -1 0 1 1 -1 0 1 0 -2 0 2 0 -2 0 1 1 -1 0 1 0 -1 0 1 0 -1 1 1 0 -1 0 1 0 -2 0 1 0 -1 1 1 0 -1 0 1 0 -1 0 1 1 -1 0 1 0 -1 0 1 0 1 1 0 0 1 0 1 0 2 0 1 0 1 0 3 0 381 0 220 0 1 0 1 0 1 0 1 1 0"/><path stroke="red" d="M448 702l1 0 1 0 1 0 1 0 1 0 1 0 1 0 1 0 1 0 1 0 1 0 1 0 1 0 1 0 1 0 1 0 1 0 1 0 1 0 1 0 1 0 1 0 1 0 1 0 1 0 1 0 1 0 1 0 1 0 1 0 1 0 0 -1 0 1 0 -1 0 1 1 -1 0 1 0 -1 0 1 0 -1 0 1 1 -1 0 1 0 -1 0 1 0 -1 1 1 0 -1 0 1 0 -1 0 1"/><path stroke="red" d="M482 702l0 -1 1 1 0 -1 0 1 0 -1 0 1 0 -1 1 1 0 -1 0 1 0 -1 0 1 1 -1 0 1 0 -1 0 1 0 -1 0 1 1 -1 0 1 0 -1 0 1 0 -1 1 1 0 -1 0 1 0 -1 0 1 0 -1 1 1 0 -1 0 1 0 -1 1 0 1 0 1 0 1 0 1 0 1 0 1 0 1 0 1 0 1 0 1 0 1 0 1 0 1 0 1 0 1 0"/><path stroke="red" d="M504 701l1 0 1 0 1 0 1 0 1 0 1 0 1 0 1 0 1 0 1 0 1 0 1 0 1 0 1 0 1 0 1 0 1 0 1 0 1 0 1 0 1 0 1 0 1 0 1 0 1 0 1 0 1 0 1 0 1 0 1 0 1 0 1 0 1 0 1 0 1 0 1 0 1 0 1 0 1 0 1 0 1 0 1 0 1 0 1 0 1 0 1 0 1 0 1 0 1 0 1 0 1 0 1 0 1 0"/><path stroke="red" d="M557 701l1 0 1 0 1 0 1 0 1 0 1 0 1 0 1 0 1 0 1 0 1 0 1 0 1 0 1 0 1 0 1 0 1 0 1 0 1 0 1 0 0 -1 0 -1 0 -1 0 -24 0 -3 0 8 0 -3 0 4 0 -2 0 3 0 -2 0 2 0 -1 0 1 0 -1 0 1 0 -1 0 1 0 -1 0 -2 0 -2 0 -3 0 -3 1 -3 0 -3 0 -3 0 -3 0 -3"/><path stroke="red" d="M578 655l1 -2 0 -4 0 -2 0 -3 0 -3 0 -3 1 -2 0 -4 0 -2 0 -3 0 -2 0 -4 1 -2 0 -3 0 -2 0 -3 0 -3 1 -3 0 -2 0 -3 0 -2 0 -3 0 -2 1 -3 0 -3 0 -2 0 -3 0 -2 1 -3 0 -2 0 -3 0 -2 0 -3 0 -2 1 -3 0 -2 0 -2 0 -3 0 -2 1 -3 0 -2 0 -3 0 -2"/><path stroke="red" d="M586 543l0 -2 0 -2 1 -3 0 -2 0 -2 0 -2 0 -3 1 -2 0 -2 0 -2 0 -3 0 -2 0 -2 1 -2 0 -3 0 -2 0 -2 0 -2 0 -2 1 -2 0 -3 0 -1 0 -3 0 -2 1 -2 0 -2 0 -2 0 -2 0 -2 0 -2 1 -2 0 -2 0 -2 0 -2 0 -2 1 -2 0 -2 0 -2 0 -2 0 -2 0 -2 1 -1 0 -2"/><path stroke="red" d="M594 453l0 -2 0 -2 0 -2 1 -2 0 -2 0 -2 0 -1 0 -2 0 -2 1 -2 0 -2 0 -1 0 -2 0 -2 1 -2 0 -2 0 -1 0 -2 0 -2 0 -1 1 -2 0 -2 0 -1 0 -2 0 -2 0 -2 1 -1 0 -2 0 -1 0 -2 0 -2 1 -1 0 -2 0 -2 0 -1 0 -2 0 -1 1 -2 0 -2 0 -1 0 -2 0 -1 1 -2"/><path stroke="red" d="M602 379l0 -1 0 -2 0 -1 0 -2 0 -1 1 -2 0 -1 0 -2 0 -1 0 -2 1 -1 0 -2 0 -1 0 -1 0 -2 0 -1 1 -2 0 -1 0 -1 0 -2 0 -1 1 -2 0 -1 0 -1 0 -2 0 -1 0 -1 1 -2 0 -1 0 -1 0 -2 0 -1 0 -1 1 -2 0 -1 0 -1 0 -1 0 -2 1 -1 0 -1 0 -1 0 -2 0 -1"/><path stroke="red" d="M609 320l0 -1 1 -1 0 -2 0 -1 0 -1 0 -1 1 -2 0 -1 0 -1 0 -1 0 -1 0 -1 1 -2 0 -1 0 -1 0 -1 0 -1 1 -1 0 -2 0 -2 0 -1 0 -1 1 -1 0 -1 0 -1 0 -1 0 -1 1 -2 0 -2 0 -1 0 -1 0 -1 1 -1 0 -1 0 -1 0 -1 0 -1 0 -1 1 -1 0 -1 0 -1 0 -1 0 -1"/><path stroke="red" d="M617 270l1 -1 0 -1 0 -1 0 -1 0 -1 0 -1 1 -1 0 -1 0 -1 0 -1 1 -2 0 -2 0 -1 0 -1 1 -1 0 -1 0 -1 0 -1 0 -1 1 0 0 -2 0 -1 0 -1 0 -1 1 -1 0 -1 0 -2 1 -1 0 -1 0 -1 0 -2 1 -1 0 -1 0 -1 0 -1 0 -1 1 -1 0 -2 0 -1 1 -1 0 -1 0 -1 0 -1"/><path stroke="red" d="M627 222l0 -1 1 0 0 -1 0 -1 0 -1 1 -1 0 -1 0 -1 0 -1 1 -2 0 -1 0 -1 1 -1 0 -1 0 -1 0 -1 1 -1 0 -1 0 -1 1 -1 0 -1 0 -1 0 -1 1 -1 0 -1 0 -1 0 -1 1 -1 0 -1 0 -2 1 0 0 -1 0 -1 0 -1 1 0 0 -1 0 -1 0 -1 1 -1 0 -1 0 -1 1 -1 0 -1"/><path stroke="red" d="M639 180l0 -1 1 0 0 -1 0 -1 0 -1 1 0 0 -2 0 1 0 -2 1 -1 0 -1 0 -1 1 -1 0 -1 0 -1 1 -1 0 1 0 -2 0 1 0 -2 1 1 0 -1 0 -1 0 -1 1 0 0 -1 0 -1 1 -1 0 -1 0 -1 1 -1 0 1 0 -2 0 1 0 -1 1 0 0 -1 0 -1 0 -1 1 0 0 -1 0 -1 0 1 1 -1 0 -1"/><path stroke="red" d="M651 149l0 -1 1 -1 0 1 0 -2 0 1 0 -1 1 -1 0 -1 0 -1 1 1 0 -1 0 -1 0 -1 1 1 0 -2 0 1 0 -1 1 -1 0 -1 0 1 0 -1 1 -1 0 -1 0 1 0 -1 1 0 0 -1 0 -1 0 1 0 -1 1 0 0 -1 0 -1 0 1 1 -1 0 -1 0 1 0 -1 1 -1 0 -1 0 1 0 -1 1 -1 0 1 0 -2"/><path stroke="red" d="M662 127l0 1 0 -1 1 0 0 -1 0 1 0 -1 0 -1 1 1 0 -1 0 -1 0 1 1 -1 0 -1 0 1 0 -2 0 1 1 -1 0 -1 0 1 0 -1 1 0 0 -1 0 1 0 -1 0 -1 1 1 0 -1 0 -1 0 1 1 -1 0 -1 0 1 0 -1 1 -1 0 1 0 -1 0 -1 0 1 1 -1 0 1 0 -2 0 1 0 -1 1 1 0 -1 0 -1"/><path stroke="red" d="M672 113l0 1 0 -1 1 0 0 -1 0 1 0 -1 1 -1 0 1 0 -1 0 1 0 -2 0 1 1 -1 0 1 0 -1 0 -1 1 1 0 -1 0 1 0 -2 0 1 0 -1 1 1 0 -1 0 -1 0 1 1 -1 0 1 0 -2 0 1 0 -1 0 1 1 -1 0 -1 0 1 0 -1 0 1 1 -1 0 -1 0 1 0 -1 1 1 0 -1 0 -1 0 1 0 -1 1 1"/><path stroke="red" d="M682 104l0 -2 0 1 0 -1 0 1 1 -1 0 1 0 -2 0 1 0 -1 0 1 1 -1 0 1 0 -2 0 1 0 -1 1 1 0 -1 0 1 0 -1 0 -1 1 1 0 -1 0 1 0 -1 1 -1 0 1 0 -1 0 1 0 -1 0 1 1 -2 0 1 0 -1 0 1 0 -1 0 1 1 -1 0 -1 0 1 0 -1 1 1 0 -1 0 1 0 -2 0 1 0 -1 1 1"/><path stroke="red" d="M691 96l0 -1 0 1 0 -1 1 -1 0 1 0 -1 0 1 0 -1 0 1 1 -1 0 -1 0 1 0 -1 1 1 0 -1 0 1 0 -1 0 -1 1 1 0 -1 0 1 0 -1 0 1 1 -1 0 1 0 -2 0 1 0 -1 0 1 1 -1 0 1 0 -1 0 1 0 -2 0 1 1 -1 0 1 0 -1 0 1 0 -1 1 1 0 -1 0 -1 0 1 0 -1 1 1 0 -1"/><path stroke="red" d="M700 89l0 1 0 -1 0 1 1 -1 0 -1 0 1 0 -1 0 1 1 -1 0 1 0 -1 0 1 0 -1 1 0 0 -1 0 1 0 -1 0 1 0 -1 1 1 0 -1 0 1 0 -1 0 1 1 -2 0 1 0 -1 0 1 0 -1 0 1 1 -1 0 1 0 -1 0 1 0 614 1 1 0 -1 0 1 0 -1 0 1 0 -1 0 1 1 -1 0 1 0 -1 0 1 0 -1"/><path stroke="red" d="M708 701l0 1 1 -1 0 1 0 -1 0 1 0 -1 1 1 0 -1 0 1 0 -1 0 1 0 -1 1 1 0 -1 0 1 0 -1 0 1 1 -1 0 1 0 -1 0 1 0 -1 0 1 1 -1 0 1 0 -1 0 1 0 -1 1 1 0 -1 0 1 0 -1 0 1 0 -1 1 1 0 -1 0 1 0 -1 0 1 0 -1 1 1 0 -1 0 1 0 -1 0 1 1 -1 0 1"/><path stroke="red" d="M717 702l0 -1 0 1 0 -1 0 1 1 -1 0 1 0 -1 0 1 0 -1 1 1 0 -1 0 1 0 -1 0 1 0 -1 1 1 0 -1 0 1 0 -1 0 1 1 -1 0 1 0 -1 0 1 0 -1 0 1 1 -1 0 1 0 -1 0 1 0 -1 1 1 0 -1 0 1 0 -1 0 1 0 -1 1 1 0 -1 0 1 0 -1 0 1 0 -1 1 1 0 -1 0 1 0 -1"/><path stroke="red" d="M725 701l0 1 1 -1 0 1 0 -1 0 1 0 -1 0 1 1 -1 0 1 0 -1 0 1 0 -1 1 1 0 -1 0 1 0 -1 0 1 0 -1 1 1 0 -1 0 1 0 -1 0 1 1 -1 0 1 0 -1 0 1 0 -1 0 1 1 -1 0 1 0 -1 0 1 0 -1 1 1 0 -1 0 1 0 -1 0 1 0 -1 1 1 0 -1 0 1 0 -1 0 1 0 -1 1 1"/><path stroke="red" d="M734 702l0 -1 0 1 0 -1 0 1 1 -1 0 1 0 -1 0 1 0 -1 0 1 1 -1 0 1 0 -1 0 1 0 -1 1 1 0 -1 0 1 0 -1 0 1 0 -1 1 1 0 -1 0 1 0 -1 0 1 1 -1 0 1 0 -1 0 1 0 -1 0 1 1 -1 0 1 0 -1 0 1 0 -1 1 1 0 -1 0 1 0 -1 0 1 0 -1 1 1 0 -1 0 1 0 -1"/><path stroke="red" d="M742 701l0 1 0 -1 1 1 0 -1 0 1 0 -1 0 1 1 -1 0 1 0 -1 0 1 0 -1 0 1 1 -1 0 1 0 -1 0 1 0 -1 1 1 0 -1 0 1 0 -1 0 1 0 -1 1 1 0 -1 0 1 0 -1 0 1 1 -1 0 1 0 -1 0 1 0 -1 0 1 1 -1 0 1 0 -1 0 1 0 -1 1 1 0 -1 0 1 0 -1 0 1 0 -1 1 1"/><path stroke="red" d="M751 702l0 -1 0 1 0 -1 0 1 0 -1 1 1 0 -1 0 1 0 -1 0 1 1 -1 1 0 1 0 1 0 1 0 1 0 1 0 1 0 1 0 1 0 1 0 1 0 1 0 1 0 1 0 1 0 1 0 1 0 1 0 1 0 1 0 1 0 1 0 1 0 1 0 1 0 1 0 1 0 1 0 1 0 1 0 1 0 1 0 1 0 1 0 1 0 1 0 1 0 1 0 1 0 1 0 1 0"/><path stroke="red" d="M794 701l1 0 1 0 1 0 1 0 1 0 1 0 1 0 1 0 1 0 1 0 1 0 1 0 1 0 1 0 1 0 1 0 1 0 1 0 1 0 1 0 1 0 1 0 1 0 1 0 1 0 1 0 1 0 1 0 1 0 1 0 1 0 1 0 1 0 1 0 1 0 1 0 1 0 1 0 1 0 1 0 1 0 1 0 0 -1 1 0 0 -1 0 -1 0 -2 0 -28 0 11 0 -23 0 21"/><path stroke="red" d="M837 677l0 -10 0 11 0 -7 0 9 0 -6 0 8 0 -5 0 6 0 -5 0 4 0 -5 0 2 0 -7 0 2 0 -8 1 2 0 -8 0 2 0 -7 0 1 0 -7 1 1 0 -7 0 2 0 -8 0 2 1 -7 0 2 0 -8 0 2 0 -7 0 2 1 -8 0 2 0 -7 0 2 0 -7 1 2 0 -8 0 2 0 -7 0 2 0 -7 1 2 0 -7 0 2 0 -7"/><path stroke="red" d="M843 579l0 2 0 -7 1 2 0 -7 0 2 0 -7 0 2 1 -7 0 2 0 -7 0 2 0 -7 0 3 1 -7 0 2 0 -7 0 2 0 -7 1 3 0 -7 0 2 0 -7 0 2 0 -6 1 2 0 -7 0 3 0 -7 0 2 1 -7 0 3 0 -7 0 2 0 -6 0 2 1 -7 0 3 0 -7 0 3 0 -7 1 3 0 -7 0 3 0 -7 0 2 0 -6 1 2"/><path stroke="red" d="M852 477l0 -6 0 2 0 -6 0 3 0 -7 1 3 0 -7 0 3 0 -7 0 3 1 -7 0 3 0 -6 0 2 0 -6 0 3 1 -7 0 3 0 -7 0 3 0 -6 1 3 0 -7 0 3 0 -6 0 3 0 -7 1 3 0 -6 0 3 0 -7 0 3 1 -6 0 3 0 -7 0 3 0 -6 0 3 1 -6 0 3 0 -7 0 4 0 -7 1 3 0 -6 0 3 0 -6"/><path stroke="red" d="M860 389l0 3 0 -6 1 3 0 -7 0 4 0 -7 0 4 0 -7 1 4 0 -7 0 3 0 -6 0 3 1 -6 0 4 0 -7 0 4 0 -7 0 4 1 -7 0 4 0 -6 0 3 0 -6 1 3 0 -6 0 3 0 -6 0 4 0 -7 1 4 0 -6 0 3 0 -6 0 3 1 -6 0 4 0 -6 0 3 0 -6 0 4 1 -7 0 4 0 -6 0 3 0 -6 1 4"/><path stroke="red" d="M869 327l0 -6 0 3 0 -6 0 4 0 -6 1 3 0 -6 0 4 0 -6 0 4 0 -7 1 4 0 -6 0 4 0 -6 0 4 1 -7 0 4 0 -6 0 4 0 -6 0 4 1 -6 0 3 0 -6 0 4 0 -6 1 4 0 -6 0 4 0 -6 0 4 0 -6 1 3 0 -6 0 4 0 -6 0 4 1 -6 0 4 0 -6 0 4 0 -6 0 4 1 -6 0 4 0 -6"/><path stroke="red" d="M877 269l0 4 0 -6 1 4 0 -6 0 4 0 -6 0 4 0 -6 1 4 0 -6 0 4 0 -6 0 5 0 -6 1 4 0 -6 0 4 0 -6 0 4 1 -6 0 4 0 -6 0 4 0 -6 0 5 1 -6 0 4 0 -6 0 4 0 -6 1 4 0 -6 0 5 0 -6 0 4 0 -6 1 4 0 -6 0 5 0 -6 0 4 1 -6 0 4 0 -6 0 5 0 -6 0 4"/><path stroke="red" d="M885 232l1 -6 0 5 0 -6 0 4 0 -6 1 5 0 -6 0 4 0 -6 0 4 0 -5 1 4 0 -6 0 4 0 -5 0 4 0 -6 1 5 0 -6 0 4 0 -6 0 5 1 -6 0 4 0 -6 0 5 0 -6 0 4 1 -5 0 4 0 -6 0 5 0 -6 1 4 0 -5 0 4 0 -6 0 5 0 -6 1 4 0 -5 0 4 0 -6 0 5 1 -6 0 5 0 -6"/><path stroke="red" d="M894 194l0 4 0 -6 0 5 1 -6 0 5 0 -6 0 5 0 -6 1 4 0 -5 0 4 0 -6 0 5 0 -6 1 5 0 -6 0 5 0 -6 0 5 0 -6 1 4 0 -5 0 4 0 -6 0 5 1 -6 0 5 0 -6 0 5 0 -6 0 5 1 -6 0 5 0 -6 0 5 0 -6 1 5 0 -6 0 5 0 -6 0 5 0 -6 1 5 0 -6 0 5 0 -6 0 5"/><path stroke="red" d="M902 173l1 -6 0 5 0 -6 0 5 0 -6 0 5 1 -6 0 5 0 -6 0 5 0 -6 1 5 0 -6 0 5 0 -6 0 5 0 -6 1 5 0 -6 0 5 0 -6 0 5 0 -6 1 5 0 -6 0 5 0 -5 0 5 1 -6 0 5 0 -6 0 5 0 -6 0 5 1 -6 0 5 0 -6 0 5 0 -6 1 5 0 -5 0 5 0 -6 0 5 0 -6 1 5 0 -6"/><path stroke="red" d="M911 146l0 5 0 -6 0 5 1 -5 0 5 0 -6 0 5 0 -6 0 5 1 -6 0 5 0 -5 0 5 0 -6 1 5 0 -6 0 5 0 -6 0 5 0 -5 1 5 0 -6 0 5 0 -6 0 5 0 -5 1 5 0 -6 0 5 0 -6 0 5 1 -6 0 6 0 -6 0 5 0 -6 0 5 1 -6 0 6 0 -6 0 5 0 -6 1 5 0 -5 0 5 0 -6 0 5"/><path stroke="red" d="M919 135l0 -6 1 5 0 -5 0 5 0 -6 0 5 1 -6 0 6 0 -6 0 5 0 -6 0 5 1 -5 0 5 0 -6 0 5 0 -6 1 6 0 -6 0 5 0 -6 0 6 0 -6 1 5 0 -6 0 5 0 -5 0 5 0 -6 1 5 0 -6 0 6 0 -6 0 5 1 -6 0 6 0 -6 0 5 0 -6 0 6 1 -6 0 5 0 -6 0 6 0 -6 1 5 0 -6"/><path stroke="red" d="M928 116l0 6 0 -6 0 5 0 -6 1 6 0 -6 0 5 0 -6 0 6 1 -6 0 5 0 -6 0 6 0 -6 0 5 1 -6 0 6 0 -6 0 5 0 -5 1 5 0 -6 0 5 0 -5 0 5 0 -6 1 6 0 -6 0 5 0 -6 0 6 0 -6 1 5 0 -6 0 6 0 -6 0 5 1 -5 0 5 0 -6 0 6 0 -6 0 5 1 -6 0 6 0 -6 0 5"/><path stroke="red" d="M936 111l0 -5 1 5 0 -6 0 6 0 -6 0 5 0 -6 1 6 0 -6 0 5 0 -5 0 5 1 -6 0 6 0 -6 0 5 0 -5 0 5 1 -6 0 6 0 -6 0 5 0 -6 1 6 0 -6 0 6 0 -6 0 5 0 -6 1 6 0 -6 0 6 0 -6 0 5 0 -6 1 6 0 -6 0 6 0 -6 0 5 1 -6 0 6 0 -6 0 6 0 -6 0 5 1 -6"/><path stroke="red" d="M945 97l0 6 0 -6 0 6 0 -6 1 5 0 -5 0 5 0 -6 0 6 0 -6 1 5 0 -5 0 5 0 -6 0 6 1 -6 0 6 0 -6 0 5 0 -6 0 6 1 -6 0 6 0 -6 0 5 0 -5 1 5 0 -6 0 6 0 -6 0 6 0 -6 1 5 0 -5 0 5 0 -6 0 6 0 -6 1 5 0 -5 0 5 0 -6 0 6 1 -6 0 6 0 -6 0 5 0 -5"/><path stroke="red" d="M953 91l0 5 1 -6 0 6 0 -6 0 6 0 -6 1 5 0 -5 0 5 0 -6 0 6 0 -6 1 6 0 -6 0 6 0 -6 0 5 1 -5 0 5 0 -6 0 6 0 -6 0 6 1 -6 0 5 0 -5 0 5 0 -6 1 6 0 -6 0 6 0 -6 0 6 0 -6 1 5 0 -5 0 5 0 -6"/></svg>