<?xml version="1.0" standalone="yes"?>
<!DOCTYPE svg PUBLIC "-//W3C//DTD SVG 1.1//EN"
 "http://www.w3.org/Graphics/SVG/1.1/DTD/svg11.dtd">
<svg xmlns="http://www.w3.org/2000/svg" version="1.1"
  width="100%" height="100%" viewBox="0 0 1024 768"
  style="fill: none; font-family: Helvetica;
 font: Helvetica;
">

<!-- Creator: NGspice -->

<rect x="0" y="0" width="1024" height="768" fill="white" stroke="none"/>
<text stroke="none" fill="blue" font-size="16" x="358" y="752">
time
</text>
<text stroke="none" fill="blue" font-size="16" x="10" y="16">
tran1: astable multiibrator (set1).
</text>
<path stroke="blue" stroke-dasharray="1,2" d="M60 704l0 -637"/>
<text stroke="none" fill="blue" font-size="16" x="35" y="728">
198.0
</text>
<path stroke="blue" stroke-dasharray="1,2" d="M150 704l0 -637"/>
<text stroke="none" fill="blue" font-size="16" x="125" y="728">
198.2
</text>
<path stroke="blue" stroke-dasharray="1,2" d="M240 704l0 -637"/>
<text stroke="none" fill="blue" font-size="16" x="215" y="728">
198.4
</text>
<path stroke="blue" stroke-dasharray="1,2" d="M330 704l0 -637"/>
<text stroke="none" fill="blue" font-size="16" x="305" y="728">
198.6
</text>
<path stroke="blue" stroke-dasharray="1,2" d="M420 704l0 -637"/>
<text stroke="none" fill="blue" font-size="16" x="395" y="728">
198.8
</text>
<path stroke="blue" stroke-dasharray="1,2" d="M510 704l0 -637"/>
<text stroke="none" fill="blue" font-size="16" x="485" y="728">
199.0
</text>
<path stroke="blue" stroke-dasharray="1,2" d="M600 704l0 -637"/>
<text stroke="none" fill="blue" font-size="16" x="575" y="728">
199.2
</text>
<path stroke="blue" stroke-dasharray="1,2" d="M690 704l0 -637"/>
<text stroke="none" fill="blue" font-size="16" x="665" y="728">
199.4
</text>
<path stroke="blue" stroke-dasharray="1,2" d="M780 704l0 -637"/>
<text stroke="none" fill="blue" font-size="16" x="755" y="728">
199.6
</text>
<path stroke="blue" stroke-dasharray="1,2" d="M870 704l0 -637"/>
<text stroke="none" fill="blue" font-size="16" x="845" y="728">
199.8
</text>
<path stroke="blue" stroke-dasharray="1,2" d="M960 704l0 -637"/>
<text stroke="none" fill="blue" font-size="16" x="935" y="728">
200.0
</text>
<text stroke="none" fill="blue" font-size="16" x="614" y="752">
ms
</text>
<path stroke="blue" stroke-dasharray="1,2" d="M60 704l900 0"/>
<text stroke="none" fill="blue" font-size="16" x="8" y="712">
-12.0
</text>
<path stroke="blue" stroke-dasharray="1,2" d="M60 613l900 0"/>
<text stroke="none" fill="blue" font-size="16" x="8" y="621">
-10.0
</text>
<path stroke="blue" stroke-dasharray="1,2" d="M60 522l900 0"/>
<text stroke="none" fill="blue" font-size="16" x="18" y="530">
-8.0
</text>
<path stroke="blue" stroke-dasharray="1,2" d="M60 431l900 0"/>
<text stroke="none" fill="blue" font-size="16" x="18" y="439">
-6.0
</text>
<path stroke="blue" stroke-dasharray="1,2" d="M60 340l900 0"/>
<text stroke="none" fill="blue" font-size="16" x="18" y="348">
-4.0
</text>
<path stroke="blue" stroke-dasharray="1,2" d="M60 249l900 0"/>
<text stroke="none" fill="blue" font-size="16" x="18" y="257">
-2.0
</text>
<path stroke="blue" d="M60 158l900 0"/>
<text stroke="none" fill="blue" font-size="16" x="18" y="166">
-0.0
</text>
<path stroke="blue" stroke-dasharray="1,2" d="M60 67l900 0"/>
<text stroke="none" fill="blue" font-size="16" x="28" y="75">
2.0
</text>
<text stroke="none" fill="blue" font-size="16" x="10" y="32">
V
</text>
<path stroke="red" d="M450 23l45 0"/>
<text stroke="none" fill="blue" font-size="16" x="505" y="32">
c
</text>
<path stroke="red" d="M60 114l1 2 0 -2 1 3 0 -3 1 3 0 -2 0 2 1 -2 0 3 1 -3 0 3 1 -3 0 3 1 -2 0 2 1 -2 0 3 0 -3 1 3 0 -3 1 3 0 -2 1 2 0 -2 1 3 0 -3 0 3 1 -3 0 3 1 -3 0 3 1 -2 0 2 1 -2 0 3 1 -3 0 3 0 -3 1 3 0 -3 1 3 0 -3 1 3 0 -3 1 3 0 -2 0 2 1 -2"/>
<path stroke="red" d="M82 119l0 3 1 -3 0 3 1 -3 0 3 1 -3 0 3 1 -3 0 3 0 -3 1 3 0 -3 1 3 0 -3 1 3 0 -3 1 3 0 -3 0 4 1 -3 0 3 1 -3 0 3 1 -3 0 3 1 -3 0 3 1 -3 0 3 0 -3 1 3 0 -3 1 3 0 -3 1 3 0 -3 1 3 0 -3 0 3 1 -3 0 3 1 -3 0 3 1 -3 0 3 1 -3 0 3 1 -3"/>
<path stroke="red" d="M104 120l0 3 0 -3 1 3 0 -3 1 4 0 -4 1 4 0 -4 1 4 0 -4 0 4 1 -4 0 4 1 -4 0 4 1 -4 0 4 1 -4 0 4 1 -4 0 4 0 -3 1 3 0 -3 1 3 0 -3 1 3 0 -3 1 3 0 -3 0 3 1 -3 0 3 1 -3 0 3 1 -3 0 3 1 -3 0 3 1 -3 0 3 0 -3 1 3 0 -3 1 3 0 -3 1 3"/>
<path stroke="red" d="M125 124l0 -3 1 3 0 -3 0 3 1 -3 0 3 1 -3 0 3 1 -3 0 3 1 -3 0 3 1 -3 0 3 0 -3 1 3 0 -3 1 3 0 -3 1 3 0 -3 1 3 0 -3 0 3 1 -3 0 3 1 -3 0 3 1 -3 0 3 1 -3 0 3 1 -3 0 3 0 -3 1 3 0 -3 1 3 0 -3 1 3 0 -3 1 3 0 -3 0 3 1 -3 0 3 1 -3"/>
<path stroke="red" d="M146 121l0 3 1 -3 0 3 1 -3 0 3 1 -3 0 3 0 -3 1 3 0 -3 0 3 0 -3 0 3 1 -3 0 3 0 -3 1 3 0 -3 0 3 1 -3 0 3 1 -3 0 3 1 -3 0 3 1 -3 0 3 0 -3 1 3 0 -3 1 3 0 -3 1 3 0 -3 1 3 0 -3 1 3 0 -3 0 3 1 -3 0 3 1 -3 0 3 1 -3 0 3 1 -3 0 3"/>
<path stroke="red" d="M165 124l0 -3 1 3 0 -3 1 3 0 540 1 -2 0 -2 0 -2 1 -2 0 -3 0 -3 1 -3 0 -3 1 -3 0 -3 1 -2 0 -3 1 -3 0 -3 1 -3 0 -3 0 -2 1 -3 0 -3 1 -3 0 -2 1 -3 0 -3 1 -3 0 -2 0 -3 1 -3 0 -3 1 -2 0 -3 1 -3 0 -3 1 -2 0 -3 1 -3 0 -2 0 -3 1 -3"/>
<path stroke="red" d="M184 561l0 -2 1 -3 0 -2 1 -3 0 -3 1 -2 0 -3 0 -2 1 -3 0 -3 1 -2 0 -3 1 -2 0 -3 1 -2 0 -3 1 -2 0 -3 0 -2 1 -3 0 -2 1 -3 0 -2 1 -3 0 -2 1 -3 0 -2 0 -3 1 -2 0 -3 1 -2 0 -3 1 -2 0 -2 1 -3 0 -2 1 -3 0 -2 0 -2 1 -3 0 -2 1 -3 0 -2"/>
<path stroke="red" d="M203 454l1 -2 0 -2 1 -3 0 -2 0 -3 1 -2 0 -2 1 -2 0 -3 1 -2 0 -2 1 -3 0 -2 1 -2 0 -2 0 -3 1 -2 0 -2 1 -2 0 -2 1 -3 0 -2 1 -2 0 -2 0 -3 1 -2 0 -2 1 -2 0 -2 1 -2 0 -3 1 -2 0 -2 1 -2 0 -2 0 -2 1 -2 0 -2 1 -3 0 -2 1 -2 0 -2 1 -2"/>
<path stroke="red" d="M223 359l0 -2 0 -2 1 -2 0 -2 1 -2 0 -2 1 -2 0 -2 1 -2 0 -3 1 -1 0 -3 0 -2 1 -2 0 -2 1 -2 0 -1 1 -3 0 -1 1 -2 0 -2 0 -2 1 -2 0 -2 1 -2 0 -2 1 -2 0 -2 1 -2 0 -2 1 -2 0 -2 0 -2 1 -1 0 -2 1 -2 0 -2 1 -2 0 -2 1 -2 0 -1 0 -2 1 -2"/>
<path stroke="red" d="M242 275l0 -2 1 -2 0 -2 1 -2 0 -1 1 -2 0 -2 1 -2 0 -2 0 -1 1 -2 0 -2 1 -2 0 -1 1 -2 0 -2 1 -2 0 -2 0 -1 1 -2 0 -2 1 -2 0 -1 1 -2 0 -2 1 -1 0 -2 1 -2 0 -2 0 -1 1 -2 0 -2 1 -1 0 -2 1 -2 0 -1 1 -2 0 -2 0 -1 1 -2 0 -2 1 -1 0 -2"/>
<path stroke="red" d="M261 200l1 -1 0 -2 1 -2 0 -1 1 -2 0 -2 0 -1 1 -2 0 -1 1 -2 0 -2 1 -1 0 -2 1 -1 0 -2 0 -1 1 -2 0 -2 1 -1 0 -2 1 -1 0 -2 1 -1 0 -2 1 -1 0 -2 0 -1 1 -2 0 -1 1 -2 0 -1 1 -2 0 -1 1 -2 0 -1 0 -2 1 -1 0 -2 1 -1 0 -2 1 -1 0 -2 1 -1"/>
<path stroke="red" d="M281 134l0 -2 1 -1 0 -2 0 -1 0 -1 0 -1 0 -1 0 -19 0 -2 0 8 0 -23 0 18 0 -9 0 11 0 -6 0 9 0 -6 0 8 0 -5 0 6 1 -4 0 4 0 -4 0 5 1 -5 0 5 1 -4 0 4 1 -4 0 5 1 -5 0 5 0 -4 1 5 0 -5 1 5 0 -5 1 5 0 -4 1 5 0 -5 1 5 0 -5 0 5 1 -5"/>
<path stroke="red" d="M293 114l0 5 1 -4 0 5 1 -5 0 5 1 -5 0 5 0 -5 1 5 0 -4 1 5 0 -5 1 5 0 -5 1 5 0 -5 1 5 0 -5 0 6 1 -6 0 6 1 -5 0 5 1 -5 0 5 1 -5 0 5 0 -5 1 5 0 -5 1 6 0 -6 1 6 0 -6 1 6 0 -6 1 6 0 -6 0 6 1 -5 0 5 1 -5 0 5 1 -5 0 6 1 -6 0 6"/>
<path stroke="red" d="M314 124l0 -6 1 6 0 -6 1 6 0 -6 1 6 0 -6 1 6 0 -6 1 6 0 -6 0 6 1 -6 0 6 1 -6 0 6 1 -6 0 7 1 -7 0 7 0 -7 1 7 0 -7 1 7 0 -7 1 7 0 -7 1 7 0 -7 1 7 0 -7 0 7 1 -7 0 7 1 -6 0 6 1 -6 0 6 1 -6 0 6 0 -6 1 6 0 -6 1 6 0 -6 1 6 0 -6"/>
<path stroke="red" d="M335 119l1 6 0 -6 1 6 0 -6 0 6 1 -6 0 7 1 -7 0 7 1 -7 0 7 1 -7 0 7 0 -7 1 7 0 -7 1 7 0 -7 1 7 0 -7 1 7 0 -7 1 7 0 -7 0 7 1 -7 0 7 1 -7 0 7 1 -7 0 7 1 -7 0 7 0 -7 1 7 0 -7 1 7 0 -7 1 7 0 -7 1 7 0 -7 1 7 0 -7 0 7 1 -7 0 7"/>
<path stroke="red" d="M356 126l1 -7 0 7 1 -7 0 7 1 -7 0 7 0 -7 1 7 0 -7 1 7 0 -7 1 7 0 -7 1 7 0 -7 1 7 0 -7 0 7 1 -7 0 7 1 -7 0 7 1 -7 0 7 1 -7 0 7 0 -7 1 7 0 -7 1 7 0 -7 1 7 0 -7 1 7 0 -7 1 7 0 -7 0 7 1 -7 0 7 1 -7 0 7 1 -7 0 7 1 -7 0 7 0 -7"/>
<path stroke="red" d="M377 119l1 7 0 -7 1 7 0 -7 1 7 0 -7 1 7 0 -7 1 7 0 -7 0 7 1 -7 0 7 1 -7 0 7 1 -7 0 7 1 -7 0 7 0 -7 1 7 0 -7 1 7 0 -7 1 7 0 -7 1 7 0 -7 1 7 0 -7 0 7 1 -7 0 7 1 -7 0 7 1 -7 0 7 1 -7 0 7 0 -7 1 7 0 -7 1 14 0 -4 0 105 0 246"/>
<path stroke="red" d="M397 480l0 178 0 2 0 1 0 1 0 1 0 1 0 -1 0 -1 0 -1 1 -2 0 -3 1 -3 0 -3 1 -3 0 -2 0 -3 1 -3 0 -3 1 -3 0 -3 1 -2 0 -3 1 -3 0 -3 0 -3 1 -2 0 -3 1 -3 0 -3 1 -3 0 -2 1 -3 0 -3 1 -3 0 -2 0 -3 1 -3 0 -2 1 -3 0 -3 1 -2 0 -3 1 -3"/>
<path stroke="red" d="M413 567l0 -2 0 -3 1 -3 0 -2 1 -3 0 -3 1 -2 0 -3 1 -2 0 -3 1 -3 0 -2 0 -3 1 -2 0 -3 1 -2 0 -3 1 -3 0 -2 1 -3 0 -2 0 -3 1 -2 0 -3 1 -2 0 -3 1 -2 0 -3 1 -2 0 -2 1 -3 0 -2 0 -3 1 -2 0 -3 1 -2 0 -2 1 -3 0 -2 1 -3 0 -2 0 -2 1 -3"/>
<path stroke="red" d="M432 459l0 -2 1 -2 0 -3 1 -2 0 -2 1 -3 0 -2 1 -2 0 -3 0 -2 1 -2 0 -3 1 -2 0 -2 1 -2 0 -3 1 -2 0 -2 0 -2 1 -3 0 -2 1 -2 0 -2 1 -3 0 -2 1 -2 0 -2 1 -2 0 -3 0 -2 1 -2 0 -2 1 -2 0 -2 1 -3 0 -2 1 -2 0 -2 0 -2 1 -2 0 -2 1 -2 0 -2"/>
<path stroke="red" d="M451 364l1 -3 0 -2 1 -2 0 -2 1 -2 0 -2 0 -2 1 -2 0 -2 1 -2 0 -2 1 -2 0 -2 1 -2 0 -2 0 -2 1 -2 0 -2 1 -2 0 -2 1 -2 0 -2 1 -2 0 -2 1 -2 0 -2 0 -2 1 -2 0 -2 1 -2 0 -2 1 -2 0 -1 1 -2 0 -2 0 -2 1 -2 0 -2 1 -2 0 -2 1 -2 0 -1 1 -2"/>
<path stroke="red" d="M471 279l0 -2 1 -2 0 -2 0 -2 1 -1 0 -2 1 -2 0 -2 1 -2 0 -2 1 -1 0 -2 0 -2 1 -2 0 -1 1 -2 0 -2 1 -2 0 -2 1 -1 0 -2 1 -2 0 -2 0 -1 1 -2 0 -2 1 -1 0 -2 1 -2 0 -2 1 -1 0 -2 0 -2 1 -1 0 -2 1 -2 0 -1 1 -2 0 -2 1 -1 0 -2 1 -2 0 -1"/>
<path stroke="red" d="M490 204l0 -2 1 -2 0 -1 1 -2 0 -1 1 -2 0 -2 1 -1 0 -2 0 -2 1 -1 0 -2 1 -1 0 -2 1 -1 0 -2 1 -2 0 -1 1 -2 0 -1 0 -2 1 -1 0 -2 1 -2 0 -1 1 -2 0 -1 1 -2 0 -1 0 -2 1 -1 0 -2 1 -1 0 -2 1 -1 0 -2 1 -1 0 -2 1 -1 0 -2 0 -1 1 -2 0 -1"/>
<path stroke="red" d="M509 137l1 -1 0 -2 1 -1 0 -2 1 -1 0 -1 0 -1 0 -1 0 -17 0 -4 0 7 0 -4 0 5 0 -4 0 4 0 -3 0 4 1 -4 0 4 0 -3 1 3 0 -3 1 4 0 -3 1 3 0 -3 1 4 0 -4 0 4 1 -3 0 3 1 -3 0 4 1 -4 0 4 1 -3 0 3 0 -3 1 3 0 -3 1 4 0 -4 1 4 0 -3 1 3 0 -3"/>
<path stroke="red" d="M525 116l1 4 0 -4 0 4 1 -4 0 4 1 -4 0 4 1 -3 0 3 1 -3 0 4 0 -4 1 4 0 -4 1 4 0 -4 1 4 0 -4 1 4 0 -3 1 3 0 -3 0 4 1 -4 0 4 1 -4 0 4 1 -4 0 4 1 -4 0 4 0 -4 1 4 0 -4 1 4 0 -4 1 5 0 -4 1 4 0 -4 1 4 0 -4 0 4 1 -4 0 4 1 -4 0 4"/>
<path stroke="red" d="M546 123l1 -4 0 4 1 -4 0 4 0 -4 1 4 0 -4 1 4 0 -4 1 4 0 -4 1 5 0 -5 1 5 0 -5 0 5 1 -5 0 5 1 -5 0 5 1 -5 0 5 1 -5 0 5 0 -4 1 4 0 -4 1 4 0 -4 1 4 0 -4 1 4 0 -4 1 4 0 -4 0 4 1 -4 0 4 1 -4 0 4 1 -4 0 4 1 -4 0 4 0 -4 1 4 0 -4"/>
<path stroke="red" d="M567 120l1 4 0 -4 1 4 0 -4 1 4 0 -4 1 4 0 -4 0 4 1 -4 0 4 1 -4 0 4 1 -4 0 5 1 -5 0 5 0 -5 1 5 0 -5 1 5 0 -5 1 5 0 -5 1 5 0 -5 1 5 0 -5 0 5 1 -5 0 5 1 -5 0 5 1 -5 0 5 1 -5 0 5 0 -5 1 5 0 -5 1 5 0 -5 1 5 0 -5 1 5 0 -5 1 5"/>
<path stroke="red" d="M589 125l0 -5 0 5 1 -5 0 5 1 -5 0 5 1 -5 0 5 1 -5 0 5 0 -5 1 5 0 -5 1 5 0 -5 1 5 0 -5 1 5 0 -5 1 5 0 -5 0 5 1 -5 0 5 1 -5 0 5 1 -5 0 5 1 -5 0 5 0 -5 1 5 0 -5 1 5 0 -5 1 5 0 -5 1 5 0 -5 1 5 0 -5 0 5 1 -5 0 5 1 -5 0 5 1 -5"/>
<path stroke="red" d="M610 120l0 5 1 -5 0 5 0 -5 1 5 0 -5 1 5 0 -5 1 5 0 -5 1 5 0 -5 1 5 0 -5 0 5 1 -5 0 5 1 -5 0 5 1 -5 0 5 1 538 0 -2 0 -3 1 -2 0 -3 1 -3 0 -3 1 -3 0 -3 1 -2 0 -3 0 -3 1 -3 0 -3 1 -3 0 -2 1 -3 0 -3 1 -3 0 -3 0 -2 1 -3 0 -3 1 -3"/>
<path stroke="red" d="M630 599l0 -2 1 -3 0 -3 1 -3 0 -2 1 -3 0 -3 0 -2 1 -3 0 -3 1 -2 0 -3 1 -3 0 -2 1 -3 0 -3 0 -2 1 -3 0 -3 1 -2 0 -3 1 -2 0 -3 1 -2 0 -3 1 -3 0 -2 0 -3 1 -2 0 -3 1 -2 0 -3 1 -2 0 -3 1 -2 0 -3 0 -2 1 -3 0 -2 1 -3 0 -2 1 -3 0 -2"/>
<path stroke="red" d="M649 488l1 -3 0 -2 1 -2 0 -3 0 -2 1 -3 0 -2 1 -3 0 -2 1 -2 0 -3 1 -2 0 -2 0 -3 1 -2 0 -2 1 -3 0 -2 1 -2 0 -3 1 -2 0 -2 1 -3 0 -2 0 -2 1 -3 0 -2 1 -2 0 -2 1 -3 0 -2 1 -2 0 -2 0 -2 1 -3 0 -2 1 -2 0 -2 1 -2 0 -3 1 -2 0 -2 1 -2"/>
<path stroke="red" d="M669 389l0 -2 0 -2 1 -3 0 -2 1 -2 0 -2 1 -2 0 -2 1 -2 0 -2 0 -3 1 -2 0 -2 1 -2 0 -2 1 -2 0 -2 1 -2 0 -2 1 -2 0 -2 0 -2 1 -2 0 -2 1 -2 0 -2 1 -3 0 -1 1 -3 0 -1 0 -2 1 -2 0 -2 1 -2 0 -2 1 -2 0 -2 1 -2 0 -2 1 -2 0 -2 0 -2 1 -2"/>
<path stroke="red" d="M688 301l0 -2 1 -2 0 -1 1 -3 0 -1 1 -2 0 -2 0 -2 1 -2 0 -2 1 -2 0 -2 1 -1 0 -2 1 -2 0 -2 1 -2 0 -2 0 -1 1 -2 0 -2 1 -2 0 -1 1 -2 0 -2 1 -2 0 -2 0 -2 1 -1 0 -2 1 -2 0 -2 1 -1 0 -2 1 -2 0 -2 1 -1 0 -2 0 -2 1 -1 0 -2 1 -2 0 -1"/>
<path stroke="red" d="M707 224l1 -2 0 -2 1 -2 0 -1 0 -2 1 -2 0 -1 1 -2 0 -2 1 -1 0 -2 1 -1 0 -2 1 -2 0 -2 0 -1 1 -2 0 -1 1 -2 0 -1 1 -2 0 -2 1 -1 0 -2 0 -2 1 -1 0 -2 1 -1 0 -2 1 -1 0 -2 1 -1 0 -2 1 -2 0 -1 0 -2 1 -1 0 -2 1 -1 0 -2 1 -1 0 -2 1 -1"/>
<path stroke="red" d="M727 155l0 -2 0 -1 1 -2 0 -1 1 -2 0 -1 1 -2 0 -1 1 -2 0 -1 1 -2 0 -1 0 -1 1 -2 0 -1 1 -2 0 -1 0 -1 0 -1 1 -1 0 -1 0 -1 0 -21 0 9 0 -22 0 13 0 -5 0 9 0 -5 0 8 0 -5 0 7 0 -4 0 5 0 -3 0 4 0 -4 1 4 0 -3 0 4 1 -4 0 4 1 -4 0 4"/>
<path stroke="red" d="M738 116l1 -3 0 4 1 -4 0 4 0 -4 1 4 0 -3 1 4 0 -4 1 4 0 -4 1 4 0 -3 1 4 0 -4 0 4 1 -4 0 4 1 -4 0 5 1 -4 0 4 1 -4 0 4 0 -4 1 4 0 -4 1 4 0 -4 1 5 0 -5 1 5 0 -4 1 4 0 -4 0 4 1 -4 0 4 1 -4 0 5 1 -5 0 5 1 -5 0 5 0 -5 1 5 0 -4"/>
<path stroke="red" d="M759 118l1 4 0 -4 1 4 0 -4 1 5 0 -5 1 5 0 -5 0 5 1 -5 0 5 1 -5 0 5 1 -5 0 5 1 -5 0 5 0 -5 1 5 0 -5 1 6 0 -6 1 6 0 -5 1 5 0 -5 1 5 0 -5 0 5 1 -5 0 5 1 -5 0 5 1 -5 0 5 1 -5 0 5 0 -5 1 5 0 -5 1 5 0 -5 1 5 0 -5 1 5 0 -5 1 5"/>
<path stroke="red" d="M781 124l0 -5 0 6 1 -6 0 6 1 -6 0 6 1 -6 0 6 1 -6 0 6 0 -6 1 6 0 -6 1 6 0 -6 1 6 0 -6 1 6 0 -6 1 6 0 -6 0 6 1 -6 0 6 1 -6 0 6 1 -6 0 6 1 -6 0 6 0 -6 1 6 0 -6 1 6 0 -6 1 6 0 -6 1 6 0 -6 1 6 0 -6 0 6 1 -6 0 6 1 -6 0 6 1 -6"/>
<path stroke="red" d="M802 119l0 6 1 -6 0 6 0 -6 1 6 0 -6 1 6 0 -6 1 6 0 -6 1 6 0 -6 1 6 0 -6 0 6 1 -6 0 6 1 -6 0 6 1 -6 0 6 1 -6 0 7 0 -7 1 7 0 -7 1 7 0 -7 1 7 0 -7 1 7 0 -7 1 7 0 -7 0 7 1 -7 0 7 1 -7 0 7 1 -7 0 7 1 -7 0 7 0 -7 1 7 0 -7 1 7"/>
<path stroke="red" d="M823 126l0 -7 1 7 0 -7 1 7 0 -7 1 7 0 -7 0 7 1 -7 0 7 1 -7 0 7 1 -7 0 7 1 -7 0 7 0 -7 1 7 0 -7 1 7 0 -7 1 7 0 -7 1 7 0 -7 1 7 0 -7 0 7 1 -7 0 7 1 -7 0 7 1 -7 0 7 1 -7 0 7 0 -7 1 7 0 -7 1 7 0 -7 1 7 0 -6 1 6 0 -6 1 6 0 -6"/>
<path stroke="red" d="M844 120l0 6 1 -6 0 6 1 -6 0 6 1 -6 0 6 1 -6 0 6 0 -6 1 13 0 522 0 8 0 -1 0 1 0 1 0 -1 0 -1 1 -2 0 -2 0 -3 1 -3 0 -3 1 -3 0 -2 1 -3 0 -3 1 -3 0 -3 0 -3 1 -3 0 -2 1 -3 0 -3 1 -3 0 -2 1 -3 0 -3 1 -3 0 -3 0 -2 1 -3 0 -3 1 -2"/>
<path stroke="red" d="M861 591l0 -3 1 -3 0 -3 1 -2 0 -3 0 -3 1 -2 0 -3 1 -3 0 -2 1 -3 0 -3 1 -2 0 -3 1 -3 0 -2 0 -3 1 -2 0 -3 1 -3 0 -2 1 -3 0 -2 1 -3 0 -2 0 -3 1 -2 0 -3 1 -2 0 -3 1 -3 0 -2 1 -3 0 -2 1 -2 0 -3 0 -2 1 -3 0 -2 1 -3 0 -2 1 -3 0 -2"/>
<path stroke="red" d="M880 480l1 -2 0 -3 0 -2 1 -3 0 -2 1 -2 0 -3 1 -2 0 -3 1 -2 0 -2 1 -3 0 -2 0 -2 1 -3 0 -2 1 -2 0 -3 1 -2 0 -2 1 -2 0 -3 0 -2 1 -2 0 -3 1 -2 0 -2 1 -2 0 -3 1 -2 0 -2 1 -2 0 -2 0 -3 1 -2 0 -2 1 -2 0 -2 1 -3 0 -2 1 -2 0 -2 0 -2"/>
<path stroke="red" d="M899 382l1 -2 0 -2 1 -3 0 -2 1 -2 0 -2 1 -2 0 -2 1 -2 0 -2 0 -2 1 -2 0 -3 1 -2 0 -2 1 -2 0 -2 1 -2 0 -2 0 -2 1 -2 0 -2 1 -2 0 -2 1 -2 0 -2 1 -2 0 -2 1 -2 0 -2 0 -2 1 -2 0 -2 1 -2 0 -2 1 -2 0 -1 1 -2 0 -2 0 -2 1 -2 0 -2 1 -2"/>
<path stroke="red" d="M919 295l0 -2 1 -2 0 -2 1 -2 0 -1 1 -2 0 -2 0 -2 1 -2 0 -2 1 -2 0 -1 1 -2 0 -2 1 -2 0 -2 0 -2 1 -1 0 -2 1 -2 0 -2 1 -2 0 -1 1 -2 0 -2 1 -2 0 -1 0 -2 1 -2 0 -2 1 -1 0 -2 1 -2 0 -2 1 -1 0 -2 0 -2 1 -1 0 -2 1 -2 0 -2 1 -1 0 -2"/>
<path stroke="red" d="M938 218l1 -2 0 -1 1 -2 0 -2 0 -1 1 -2 0 -2 1 -1 0 -2 1 -2 0 -1 1 -2 0 -1 0 -2 1 -2 0 -1 1 -2 0 -2 1 -1 0 -2 1 -1 0 -2 1 -1 0 -2 0 -2 1 -1 0 -2 1 -1 0 -2 1 -1 0 -2 1 -2 0 -1 0 -2 1 -1 0 -2 1 -1 0 -2 1 -1 0 -2 1 -1 0 -2 1 -1"/>
<path stroke="red" d="M958 150l0 -2 0 -1 1 -2 0 -1 1 -2"/>
</svg>
