<?xml version="1.0" standalone="yes"?>
<!DOCTYPE svg PUBLIC "-//W3C//DTD SVG 1.1//EN"
 "http://www.w3.org/Graphics/SVG/1.1/DTD/svg11.dtd">
<svg xmlns="http://www.w3.org/2000/svg" version="1.1"
  width="100%" height="100%" viewBox="0 0 1024 768"
  style="fill: none; font-family: Helvetica;
 font: Helvetica;
">

<!-- Creator: NGspice -->

<rect x="0" y="0" width="1024" height="768" fill="white" stroke="none"/>
<text stroke="none" fill="blue" font-size="16" x="358" y="752">
time
</text>
<text stroke="none" fill="blue" font-size="16" x="10" y="16">
tran1: astable multiibrator (set2).
</text>
<path stroke="blue" stroke-dasharray="1,2" d="M60 704l0 -637"/>
<text stroke="none" fill="blue" font-size="16" x="35" y="728">
195.0
</text>
<path stroke="blue" stroke-dasharray="1,2" d="M150 704l0 -637"/>
<text stroke="none" fill="blue" font-size="16" x="125" y="728">
195.5
</text>
<path stroke="blue" stroke-dasharray="1,2" d="M240 704l0 -637"/>
<text stroke="none" fill="blue" font-size="16" x="215" y="728">
196.0
</text>
<path stroke="blue" stroke-dasharray="1,2" d="M330 704l0 -637"/>
<text stroke="none" fill="blue" font-size="16" x="305" y="728">
196.5
</text>
<path stroke="blue" stroke-dasharray="1,2" d="M420 704l0 -637"/>
<text stroke="none" fill="blue" font-size="16" x="395" y="728">
197.0
</text>
<path stroke="blue" stroke-dasharray="1,2" d="M510 704l0 -637"/>
<text stroke="none" fill="blue" font-size="16" x="485" y="728">
197.5
</text>
<path stroke="blue" stroke-dasharray="1,2" d="M600 704l0 -637"/>
<text stroke="none" fill="blue" font-size="16" x="575" y="728">
198.0
</text>
<path stroke="blue" stroke-dasharray="1,2" d="M690 704l0 -637"/>
<text stroke="none" fill="blue" font-size="16" x="665" y="728">
198.5
</text>
<path stroke="blue" stroke-dasharray="1,2" d="M780 704l0 -637"/>
<text stroke="none" fill="blue" font-size="16" x="755" y="728">
199.0
</text>
<path stroke="blue" stroke-dasharray="1,2" d="M870 704l0 -637"/>
<text stroke="none" fill="blue" font-size="16" x="845" y="728">
199.5
</text>
<path stroke="blue" stroke-dasharray="1,2" d="M960 704l0 -637"/>
<text stroke="none" fill="blue" font-size="16" x="935" y="728">
200.0
</text>
<text stroke="none" fill="blue" font-size="16" x="614" y="752">
ms
</text>
<path stroke="blue" stroke-dasharray="1,2" d="M60 704l900 0"/>
<text stroke="none" fill="blue" font-size="16" x="8" y="712">
-12.0
</text>
<path stroke="blue" stroke-dasharray="1,2" d="M60 613l900 0"/>
<text stroke="none" fill="blue" font-size="16" x="8" y="621">
-10.0
</text>
<path stroke="blue" stroke-dasharray="1,2" d="M60 522l900 0"/>
<text stroke="none" fill="blue" font-size="16" x="18" y="530">
-8.0
</text>
<path stroke="blue" stroke-dasharray="1,2" d="M60 431l900 0"/>
<text stroke="none" fill="blue" font-size="16" x="18" y="439">
-6.0
</text>
<path stroke="blue" stroke-dasharray="1,2" d="M60 340l900 0"/>
<text stroke="none" fill="blue" font-size="16" x="18" y="348">
-4.0
</text>
<path stroke="blue" stroke-dasharray="1,2" d="M60 249l900 0"/>
<text stroke="none" fill="blue" font-size="16" x="18" y="257">
-2.0
</text>
<path stroke="blue" d="M60 158l900 0"/>
<text stroke="none" fill="blue" font-size="16" x="18" y="166">
-0.0
</text>
<path stroke="blue" stroke-dasharray="1,2" d="M60 67l900 0"/>
<text stroke="none" fill="blue" font-size="16" x="28" y="75">
2.0
</text>
<text stroke="none" fill="blue" font-size="16" x="10" y="32">
V
</text>
<path stroke="red" d="M450 23l45 0"/>
<text stroke="none" fill="blue" font-size="16" x="505" y="32">
c
</text>
<path stroke="red" d="M60 632l0 -1 0 -1 1 -1 0 -1 0 -2 0 -1 1 -1 0 -1 0 -1 0 -1 0 -1 1 -1 0 -1 0 -1 0 -1 0 -1 0 -1 1 -1 0 -1 0 -1 0 -1 0 -1 1 -1 0 -1 0 -1 0 -1 0 -1 0 -1 1 -1 0 -1 0 -1 0 -1 1 -1 0 -1 0 -1 0 -1 0 -1 0 -1 1 -1 0 -1 0 -1 0 -1 0 -1"/>
<path stroke="red" d="M68 588l0 -1 1 -1 0 -1 0 -1 0 -1 0 -1 1 0 0 -1 0 -1 0 -1 0 -1 0 -1 1 -1 0 -1 0 -1 0 -1 0 -1 1 -1 0 -1 0 -1 0 -1 0 -1 1 -1 0 -1 0 -1 0 -1 0 -1 1 -1 0 -1 0 -1 0 -1 0 -1 1 -1 0 -1 0 -1 0 -1 0 -1 1 -1 0 -1 0 -1 0 -1 0 -1 1 -1"/>
<path stroke="red" d="M77 546l0 -1 0 -1 0 -1 0 -1 0 -1 1 -1 0 -1 0 -1 0 -1 1 -1 0 -1 0 -1 0 -1 0 -1 0 -1 1 0 0 -1 0 -1 0 -1 0 -1 1 -1 0 -1 0 -1 0 -1 0 -1 1 -1 0 -1 0 -1 0 -1 0 -1 1 -1 0 -1 0 -1 0 -1 0 -1 1 -1 0 -1 0 -1 0 -1 1 -1 0 -1 0 -1 0 -1"/>
<path stroke="red" d="M85 504l0 -1 1 -1 0 -1 0 -1 0 -1 0 -1 0 -1 1 -1 0 -1 0 -1 0 -1 1 -1 0 -1 0 -1 0 -1 0 -1 1 -1 0 -1 0 -1 0 -1 1 -1 0 -1 0 -1 0 -1 0 -1 1 -1 0 -1 0 -1 0 -1 1 -1 0 -1 0 -1 0 -1 0 -1 1 -1 0 -1 0 -1 0 -1 1 -1 0 -1 0 -1 0 -1 0 -1"/>
<path stroke="red" d="M94 461l1 -1 0 -1 0 -1 0 -1 0 -1 1 -1 0 -1 0 -1 0 -1 1 -1 0 -1 0 -1 0 -1 0 -1 1 -1 0 -1 0 -1 0 -1 1 -1 0 -1 0 -1 0 -1 0 -1 1 -1 0 -1 0 -1 0 -1 1 -1 0 -1 0 -1 0 -1 0 -1 1 -1 0 -1 0 -1 0 -1 1 -1 0 -1 0 -1 0 -1 1 -1 0 -1 0 -1"/>
<path stroke="red" d="M104 418l0 -1 0 -1 1 -1 0 -1 0 -1 0 -1 1 -1 0 -1 0 -1 0 -1 0 -1 1 0 0 -1 0 -1 0 -1 1 -1 0 -1 0 -1 0 -1 0 -1 1 -1 0 -1 0 -1 0 -1 1 -1 0 -1 0 -1 0 -1 1 -1 0 -1 0 -1 0 -1 1 -1 0 -1 0 -1 0 -1 0 -1 1 0 0 -1 0 -1 0 -1 0 -1 1 -1"/>
<path stroke="red" d="M114 377l0 -1 0 -1 0 -1 1 0 0 -1 0 -1 0 -1 0 -1 1 -1 0 -1 0 -1 0 -1 1 -1 0 -1 0 -1 0 -1 1 -1 0 -1 0 -1 0 -1 1 -1 0 -1 0 -1 0 -1 1 -1 0 -1 0 -1 0 -1 1 0 0 -1 0 -1 0 -1 0 -1 1 -1 0 -1 0 -1 0 -1 1 -1 0 -1 0 -1 0 -1 1 0 0 -1"/>
<path stroke="red" d="M124 337l0 -1 0 -1 0 -1 1 -1 0 -1 0 -1 1 -1 0 -1 0 -1 0 -1 0 -1 1 0 0 -1 0 -1 0 -1 1 -1 0 -1 0 -1 0 -1 1 -1 0 -1 0 -1 0 -1 1 0 0 -1 0 -1 0 -1 0 -1 1 0 0 -1 0 -1 0 -1 0 -1 1 0 0 -1 0 -1 0 -1 1 -1 0 -1 0 -1 0 -1 1 -1 0 -1"/>
<path stroke="red" d="M134 298l0 -1 1 -1 0 -1 0 -1 0 -1 1 -1 0 -1 0 -1 0 -1 1 0 0 -1 0 -1 0 -1 0 -1 1 0 0 -1 0 -1 0 -1 1 0 0 -1 0 -1 0 -1 0 -1 1 0 0 -1 0 -1 0 -1 1 -1 0 -1 0 -1 0 -1 1 0 0 -1 0 -1 0 -1 1 -1 0 -1 0 -1 0 -1 1 0 0 -1 0 -1 0 -1 1 -1"/>
<path stroke="red" d="M145 260l0 -1 0 -1 0 -1 1 0 0 -1 0 -1 0 -1 1 -1 0 -1 0 -1 1 -1 0 -1 0 -1 0 -1 1 -1 0 -1 0 -1 0 -1 1 0 0 -1 0 -1 0 -1 1 0 0 -1 0 -1 0 -1 1 -1 0 -1 0 -1 1 -1 0 -1 0 -1 0 -1 1 -1 0 -1 0 -1 1 -1 0 -1 0 -1 0 -1 1 0 0 -1 0 -1"/>
<path stroke="red" d="M156 221l1 -1 0 -1 0 -1 0 -1 1 -1 0 -1 0 -1 1 -1 0 -1 0 -1 1 -1 0 -1 0 -1 0 -1 1 0 0 -1 0 -1 0 -1 1 0 0 -1 0 -1 0 -1 1 -1 0 -1 0 -1 1 -1 0 -1 0 -1 1 -1 0 -1 0 -1 1 -1 0 -1 0 -1 0 -1 1 0 0 -1 0 -1 0 -1 1 0 0 -1 0 -1 0 -1"/>
<path stroke="red" d="M168 182l1 0 0 -1 0 -1 0 -1 1 0 0 -1 0 -1 0 -1 1 0 0 -1 0 -1 0 -1 1 0 0 -1 0 -1 0 -1 1 0 0 -1 0 -1 0 -1 1 0 0 -1 0 -1 1 -1 0 -1 0 -1 0 -1 1 0 0 -1 0 -1 0 -1 1 0 0 -1 0 -1 0 -1 1 0 0 -1 0 -1 0 -1 1 0 0 -1 0 -1 1 -1 0 -1 0 -1"/>
<path stroke="red" d="M180 147l1 -1 0 -1 0 -1 1 0 0 -1 0 -1 0 -1 1 -1 0 -1 0 -1 1 0 0 -1 0 -1 0 -1 1 0 0 -1 0 -1 0 -1 1 0 0 -1 0 -1 1 -1 0 -1 0 -1 0 -1 0 -20 0 -4 0 8 0 -4 0 5 0 -3 0 4 0 -3 0 3 0 -2 0 2 0 -1 0 2 0 -2 1 2 0 -2 0 2 0 -2 0 2 0 -2"/>
<path stroke="red" d="M188 111l1 2 0 -2 0 2 0 -1 0 1 0 -1 1 1 0 -1 0 1 0 -1 0 2 1 -2 0 2 0 -2 0 2 0 -2 0 2 1 -2 0 2 0 -2 0 2 0 -2 1 2 0 -2 0 2 0 -2 0 2 0 -2 1 2 0 -1 0 1 0 -1 0 1 1 -1 0 1 0 -1 0 1 0 -1 0 1 1 -1 0 2 0 -2 0 2 0 -2 1 2 0 -2 0 2"/>
<path stroke="red" d="M197 115l0 -2 0 2 0 -2 1 2 0 -2 0 2 0 -2 0 2 0 -2 1 2 0 -2 0 2 0 -1 0 1 1 -1 0 1 0 -1 0 1 0 -1 0 1 1 -1 0 1 0 -1 0 1 0 -1 1 1 0 -1 0 2 0 -2 0 2 0 -2 1 2 0 -2 0 2 0 -2 0 2 1 -2 0 2 0 -2 0 2 0 -2 0 2 1 -2 0 2 0 -2 0 2 0 -1"/>
<path stroke="red" d="M205 115l1 1 0 -1 0 1 0 -1 0 1 0 -1 1 1 0 -1 0 1 0 -1 0 1 0 -1 1 1 0 -1 0 1 0 -1 0 1 1 -1 0 1 0 -1 0 1 0 -1 0 2 1 -2 0 2 0 -2 0 2 0 -2 1 2 0 -2 0 2 0 -2 0 2 0 -2 1 2 0 -2 0 2 0 -2 0 2 1 -1 0 1 0 -1 0 1 0 -1 0 1 1 -1 0 1"/>
<path stroke="red" d="M214 117l0 -1 0 1 0 -1 1 1 0 -1 0 1 0 -1 0 1 0 -1 1 1 0 -1 0 1 0 -1 0 1 0 -1 1 1 0 -1 0 1 0 -1 0 1 1 -1 0 1 0 -1 0 2 0 -2 0 2 1 -2 0 2 0 -2 0 2 0 -2 1 2 0 -2 0 2 0 -2 0 2 0 -2 1 2 0 -1 0 1 0 -1 0 1 1 -1 0 1 0 -1 0 1 0 -1"/>
<path stroke="red" d="M222 117l0 1 1 -1 0 1 0 -1 0 1 0 -1 1 1 0 -1 0 1 0 -1 0 1 0 -1 1 1 0 -1 0 1 0 -1 0 1 0 -1 1 1 0 -1 0 1 0 -1 0 1 1 -1 0 1 0 -1 0 1 0 -1 0 1 1 -1 0 1 0 -1 0 1 0 -1 1 1 0 -1 0 1 0 -1 0 2 0 -2 1 2 0 -2 0 2 0 -2 0 2 1 -2 0 2"/>
<path stroke="red" d="M231 119l0 -2 0 2 0 -1 0 1 1 -1 0 1 0 -1 0 1 0 -1 1 1 0 -1 0 1 0 -1 0 1 0 -1 1 1 0 -1 0 1 0 -1 0 1 0 -1 1 1 0 -1 0 1 0 -1 0 1 1 -1 0 1 0 -1 0 1 0 -1 0 1 1 -1 0 1 0 -1 0 1 0 -1 1 1 0 -1 0 1 0 -1 0 1 0 -1 1 1 0 -1 0 1 0 -1"/>
<path stroke="red" d="M239 118l0 1 1 -1 0 1 0 -1 0 1 0 -1 0 1 1 -1 0 1 0 -1 0 1 0 -1 1 1 0 -1 0 1 0 -1 0 1 0 -1 1 1 0 -1 0 1 0 -1 0 1 0 -1 1 1 0 -1 0 1 0 -1 0 1 1 0 0 1 0 -1 0 1 1 -1 0 1 0 -1 0 1 0 -1 1 1 0 -1 0 1 0 -1 0 1 0 -1 1 1 0 -1 0 1 0 -1"/>
<path stroke="red" d="M248 119l0 1 1 -1 0 1 0 -1 0 1 0 -1 0 1 1 -1 0 1 0 -1 0 1 0 -1 1 1 0 -1 0 1 0 -1 0 1 0 -1 1 1 0 -1 0 1 0 -1 0 1 0 -1 1 1 0 -1 0 1 0 -1 0 1 1 -1 0 1 0 -1 0 1 0 -1 0 1 1 -1 0 1 0 -1 0 1 0 -1 1 1 0 -1 0 1 0 -1 0 1 0 -1 1 1"/>
<path stroke="red" d="M257 120l0 -1 0 1 0 -1 0 1 1 -1 0 1 0 -1 0 1 0 -1 0 1 1 -1 0 1 0 -1 0 1 0 -1 1 1 0 -1 0 1 0 -1 0 1 0 -1 1 1 0 -1 0 1 0 -1 0 1 0 -1 1 1 0 -1 0 1 0 -1 0 1 1 -1 0 1 0 -1 0 1 0 -1 0 1 1 0 1 0 1 0 1 0 1 0 1 0 1 0 1 0 0 1 0 -1"/>
<path stroke="red" d="M271 120l0 1 1 -1 0 1 0 -1 0 1 0 -1 0 1 1 -1 0 1 0 -1 0 1 0 -1 1 1 0 -1 0 1 0 -1 0 1 0 -1 1 1 0 -1 0 1 0 -1 0 1 1 -1 0 1 0 -1 0 1 0 -1 0 1 1 -1 0 1 0 -1 0 1 0 -1 1 1 0 -1 0 1 0 -1 0 1 0 -1 1 1 0 -1 0 1 0 -1 0 1 0 -1 1 1"/>
<path stroke="red" d="M280 121l0 -1 0 1 0 -1 0 1 1 -1 0 1 0 -1 0 1 0 -1 0 1 1 -1 0 1 0 -1 0 1 0 -1 1 1 0 -1 0 1 0 -1 0 1 0 -1 1 1 0 -1 0 1 0 -1 0 1 1 -1 0 1 0 -1 0 1 0 -1 0 1 1 -1 0 1 0 -1 0 1 0 -1 1 1 0 -1 0 1 0 -1 0 1 0 -1 1 1 0 -1 0 1 0 -1"/>
<path stroke="red" d="M288 120l0 1 0 -1 1 1 0 -1 0 1 0 -1 0 1 1 -1 0 1 0 -1 0 1 0 -1 0 1 1 -1 0 1 0 -1 0 1 0 -1 1 1 0 -1 0 1 0 -1 0 1 0 -1 1 1 0 -1 0 1 0 -1 0 1 1 -1 0 1 0 -1 0 1 0 -1 0 1 1 -1 0 1 0 -1 0 1 0 -1 1 1 0 -1 0 1 0 -1 0 1 0 -1 1 1"/>
<path stroke="red" d="M297 121l0 -1 0 1 0 -1 0 1 0 -1 1 1 0 -1 0 1 1 0 1 0 1 0 1 0 1 0 1 0 1 0 1 0 1 0 1 0 1 0 1 0 1 0 1 0 1 0 1 0 1 0 1 0 0 1 0 -1 0 1 1 526 0 -1 0 -1 0 -1 0 -1 1 -1 0 -1 0 -1 0 -1 0 -1 0 -1 1 -1 0 -1 0 -1 0 -1 0 -1 1 -1 0 -1"/>
<path stroke="red" d="M320 631l0 -1 0 -1 0 -1 0 -1 1 -1 0 -1 0 -1 0 -1 0 -1 1 -1 0 -1 0 -1 0 -1 0 -1 0 -1 1 0 0 -2 0 -1 0 -1 0 -1 1 -1 0 -1 0 -1 0 -1 0 -1 1 -1 0 -1 0 -1 0 -1 0 -1 0 -1 1 -1 0 -1 0 -1 0 -1 0 -1 1 -1 0 -1 0 -2 0 -1 1 -1 0 -1 0 -1"/>
<path stroke="red" d="M328 587l0 -1 0 -1 1 -1 0 -1 0 -1 0 -1 0 -1 0 -1 1 -1 0 -2 0 -1 1 -1 0 -1 0 -1 0 -1 0 -1 0 -1 1 -1 0 -1 0 -1 0 -1 0 -1 1 -1 0 -1 0 -1 0 -1 0 -1 1 -1 0 -1 0 -1 0 -1 0 -1 1 -1 0 -1 0 -1 0 -1 0 -1 1 -1 0 -1 0 -1 0 -1 0 -1 1 -1"/>
<path stroke="red" d="M337 543l0 -1 0 -1 0 -1 0 -1 1 -1 0 -1 0 -1 0 -1 0 -1 1 -1 0 -1 0 -1 0 -1 0 -1 1 -1 0 -1 0 -1 0 -1 0 -1 1 -1 0 -1 0 -1 0 -1 0 -1 1 -1 0 -1 0 -1 0 -1 0 -1 1 -1 0 -1 0 -1 0 -1 0 -1 1 -1 0 -1 0 -1 0 -1 1 -1 0 -1 0 -1 0 -1 0 -1"/>
<path stroke="red" d="M345 500l1 -1 0 -1 0 -1 0 -1 0 -1 1 -1 0 -1 0 -1 0 -1 0 -1 1 -1 0 -1 0 -1 0 -1 1 -1 0 -1 0 -1 0 -1 0 -1 1 -1 0 -1 0 -1 0 -1 0 -1 1 -1 0 -1 0 -1 0 -1 1 -1 0 -1 0 -1 0 -1 0 -1 1 -1 0 -1 0 -1 0 -1 1 -1 0 -1 0 -1 0 -1 0 -1 1 -1"/>
<path stroke="red" d="M355 457l0 -1 0 -1 0 -1 1 -1 0 -1 0 -1 0 -1 0 -1 1 -1 0 -1 0 -1 0 -1 1 -1 0 -1 0 -1 0 -1 0 -1 1 -1 0 -1 0 -1 0 -1 0 -1 1 -1 0 -1 0 -1 0 -1 1 -1 0 -1 0 -1 0 -1 1 -1 0 -1 0 -1 0 -1 1 -1 0 -1 0 -1 0 -1 0 -1 1 -1 0 -1 0 -1 0 -1"/>
<path stroke="red" d="M364 414l1 -1 0 -1 0 -1 0 -1 0 -1 1 0 0 -1 0 -1 0 -1 1 -1 0 -1 0 -1 0 -1 0 -1 1 -1 0 -1 0 -1 0 -1 0 -1 1 0 0 -1 0 -1 0 -1 1 -1 0 -1 0 -1 0 -1 0 -1 1 -1 0 -1 0 -1 0 -1 1 0 0 -1 0 -1 0 -1 0 -1 1 -1 0 -1 0 -1 0 -1 1 -1 0 -1"/>
<path stroke="red" d="M374 374l0 -1 0 -1 1 -1 0 -1 0 -1 0 -1 1 -1 0 -1 0 -1 0 -1 1 -1 0 -1 0 -1 0 -1 0 -1 1 0 0 -1 0 -1 0 -1 1 -1 0 -1 0 -1 0 -1 1 -1 0 -1 0 -1 0 -1 1 -1 0 -1 0 -1 0 -1 1 -1 0 -1 0 -1 0 -1 1 -1 0 -1 0 -1 0 -1 1 -1 0 -1 0 -1 0 -1"/>
<path stroke="red" d="M384 332l1 0 0 -1 0 -1 0 -1 0 -1 1 0 0 -1 0 -1 0 -1 0 -1 1 -1 0 -1 0 -1 1 -1 0 -1 0 -1 0 -1 1 -1 0 -1 0 -1 0 -1 1 0 0 -1 0 -1 0 -1 0 -1 1 0 0 -1 0 -1 0 -1 1 -1 0 -1 0 -1 0 -1 1 -1 0 -1 0 -1 0 -1 1 0 0 -1 0 -1 0 -1 0 -1 1 0"/>
<path stroke="red" d="M395 294l0 -1 0 -1 0 -1 1 -1 0 -1 0 -1 0 -1 1 0 0 -1 0 -1 0 -1 0 -1 1 0 0 -1 0 -1 0 -1 1 0 0 -1 0 -1 0 -1 0 -1 1 0 0 -1 0 -1 0 -1 1 -1 0 -1 0 -1 0 -1 1 0 0 -1 0 -1 0 -1 1 -1 0 -1 0 -1 0 -1 1 0 0 -1 0 -1 0 -1 0 -1 1 0 0 -1"/>
<path stroke="red" d="M405 257l0 -1 0 -1 1 0 0 -1 0 -1 0 -1 1 -1 0 -1 0 -1 1 -1 0 -1 0 -1 0 -1 1 -1 0 -1 0 -1 1 -1 0 -1 0 -1 0 -1 1 0 0 -1 0 -1 0 -1 1 0 0 -1 0 -1 0 -1 1 -1 0 -1 0 -1 0 -1 1 -1 0 -1 0 -1 1 -1 0 -1 0 -1 1 -1 0 -1 0 -1 1 -1 0 -1"/>
<path stroke="red" d="M417 217l0 -1 0 -1 1 0 0 -1 0 -1 0 -1 1 0 0 -1 0 -1 0 -1 1 -1 0 -1 0 -1 1 -1 0 -1 0 -1 0 -1 1 0 0 -1 0 -1 0 -1 1 -1 0 -1 0 -1 1 0 0 -1 0 -1 0 -1 1 -1 0 -1 0 -1 1 -1 0 -1 0 -1 1 -1 0 -1 0 -1 1 -1 0 -1 0 -1 1 -1 0 -1 0 -1"/>
<path stroke="red" d="M429 178l1 -1 0 -1 0 -1 1 -1 0 -1 0 -1 0 -1 1 0 0 -1 0 -1 1 -1 0 -1 0 -1 0 -1 1 0 0 -1 0 -1 1 -1 0 -1 0 -1 1 -1 0 -1 0 -1 1 -1 0 -1 0 -1 1 -1 0 -1 0 -1 1 0 0 -1 0 -1 0 -1 1 0 0 -1 0 -1 0 -1 1 -1 0 -1 0 -1 1 0 0 -1 0 -1 0 -1"/>
<path stroke="red" d="M442 139l1 0 0 -1 0 -1 1 -1 0 -1 0 -1 1 -1 0 -1 0 -1 1 0 0 -1 0 -1 0 -1 1 0 0 -1 0 -1 0 -16 0 -17 0 17 0 -8 0 8 0 -5 0 5 0 -3 0 4 0 -3 0 4 0 -3 0 3 0 -2 0 3 0 -2 0 2 0 -2 0 2 0 -2 0 2 0 -2 1 2 0 -2 0 2 0 -2 0 2 1 -2 0 2"/>
<path stroke="red" d="M449 113l0 -1 0 1 0 -1 0 2 1 -2 0 2 0 -2 0 2 0 -2 1 2 0 -2 0 2 0 -2 0 2 0 -2 1 2 0 -2 0 2 0 -2 0 2 1 -2 0 2 0 -2 0 2 0 -2 0 2 1 -2 0 2 0 -1 0 1 0 -1 1 1 0 -1 0 2 0 -2 0 2 0 -2 1 2 0 -2 0 2 0 -2 0 2 0 -2 1 2 0 -2 0 2 0 -2"/>
<path stroke="red" d="M457 113l0 2 1 -2 0 2 0 -2 0 2 0 -2 0 2 1 -2 0 2 0 -2 0 2 0 -1 1 1 0 -1 0 1 0 -1 0 1 0 -1 1 2 0 -2 0 2 0 -2 0 2 1 -2 0 2 0 -2 0 2 0 -2 0 2 1 -2 0 2 0 -2 0 2 0 -2 1 2 0 -2 0 2 0 -2 0 2 0 -2 1 2 0 -2 0 2 0 -2 0 2 0 -2 1 2"/>
<path stroke="red" d="M466 116l0 -1 0 1 0 -1 0 1 1 -1 0 1 0 -1 0 1 0 -1 0 2 1 -2 0 2 0 -2 0 2 0 -2 1 2 0 -2 0 2 0 -2 0 2 0 -2 1 2 0 -2 0 2 0 -2 0 2 1 -2 0 2 0 -2 0 2 0 -2 0 2 1 -2 0 2 0 -2 0 2 0 -2 1 2 0 -2 0 2 0 -2 0 2 0 -2 1 2 0 -1 0 1 0 -1"/>
<path stroke="red" d="M474 116l0 1 0 -1 1 1 0 -1 0 1 0 -1 0 2 1 -2 0 2 0 -2 0 2 0 -2 0 2 1 -2 0 2 0 -2 0 2 0 -2 1 2 0 -2 0 2 0 -2 0 2 0 -2 1 2 0 -2 0 2 0 -2 0 2 1 -2 0 2 0 -2 0 2 0 -2 0 2 1 -2 0 2 0 -2 0 2 0 -2 1 2 0 -2 0 2 0 -2 0 2 0 -2 1 2"/>
<path stroke="red" d="M483 118l0 -1 0 1 0 -1 0 1 0 -1 1 1 0 -1 0 1 0 -1 0 1 1 -1 0 1 0 -1 0 1 0 -1 0 2 1 -2 0 2 0 -2 0 2 0 -2 1 2 0 -2 0 2 0 -2 0 2 0 -2 1 2 0 -2 0 2 0 -2 0 2 1 -2 0 2 0 -2 0 2 0 -2 0 2 1 -2 0 2 0 -2 0 2 0 -2 1 2 0 -2 0 2 0 -2"/>
<path stroke="red" d="M491 117l0 2 0 -2 1 2 0 -2 0 2 0 -2 0 2 0 -2 1 2 0 -2 0 2 0 -2 0 2 1 -2 0 2 0 -2 0 2 0 -2 0 2 1 -1 0 1 0 -1 0 1 0 -1 1 1 0 -1 0 1 0 -1 0 1 0 -1 1 1 0 -1 0 1 0 -1 0 1 1 -1 0 1 0 -1 0 1 0 -1 0 2 1 -2 0 2 0 -2 0 2 0 -2 1 2"/>
<path stroke="red" d="M500 120l0 -2 0 2 0 -2 0 2 0 -2 1 2 0 -2 0 2 0 -2 0 2 0 -2 1 2 0 -2 0 2 0 -2 0 2 1 -2 0 2 0 -2 0 2 0 -2 0 2 1 -2 0 2 0 -2 0 2 0 -2 1 2 0 -2 0 2 0 -2 0 2 0 -2 1 2 0 -2 0 2 0 -2 0 2 1 -2 0 2 0 -2 0 2 0 -2 0 2 1 -2 0 2 0 -2"/>
<path stroke="red" d="M508 118l0 2 0 -2 1 2 0 -2 0 2 0 -2 0 2 0 -2 1 2 0 -2 0 2 0 -2 0 2 0 -2 1 2 0 -1 0 1 0 -1 0 1 1 -1 0 1 0 -1 0 1 0 -1 0 1 1 -1 0 1 0 -1 0 1 0 -1 1 1 0 -1 0 1 0 -1 0 1 0 -1 1 1 0 -1 0 1 0 -1 0 1 1 -1 0 1 0 -1 0 1 0 -1 0 1"/>
<path stroke="red" d="M516 120l1 -1 0 1 0 -1 0 2 0 -2 1 2 0 -2 0 2 0 -2 0 2 0 -2 1 2 0 -2 0 2 0 -2 0 2 0 -2 1 2 0 -2 0 2 0 -2 0 2 1 -2 0 2 0 -2 0 2 0 -2 0 2 1 -2 0 2 0 -2 0 2 0 -2 1 2 0 -2 0 2 0 -2 0 2 0 -2 1 2 0 -2 0 2 0 -2 0 2 1 -2 0 2 0 -2"/>
<path stroke="red" d="M525 119l0 2 0 -2 0 2 1 -2 0 2 0 -2 0 2 0 -2 1 2 0 -2 0 2 0 -2 0 2 0 -2 1 2 0 -2 0 2 0 -2 0 2 0 -2 1 2 0 -2 0 2 0 -2 0 2 1 -2 0 2 0 -2 0 2 0 -2 0 2 1 -2 0 2 0 -2 0 2 0 -2 1 2 0 -2 0 2 0 -2 0 2 0 -2 1 2 0 -2 0 2 0 -2 0 2"/>
<path stroke="red" d="M533 121l1 -2 0 2 0 -2 0 2 0 -2 0 2 1 -2 0 2 0 -2 0 2 0 -2 1 2 0 -2 0 2 0 -2 0 2 0 -2 1 2 0 -2 0 2 0 -2 0 2 0 -1 1 1 0 -1 0 1 0 -1 0 1 1 -1 0 1 0 -1 0 1 0 -1 0 1 1 -1 0 1 0 -1 0 1 0 -1 1 1 0 -1 0 1 0 -1 0 1 0 -1 1 1 0 -1"/>
<path stroke="red" d="M542 120l0 1 0 -1 0 1 1 -1 0 1 0 -1 0 1 0 -1 0 1 1 -1 0 1 0 -1 0 1 0 -1 1 1 0 -1 0 1 0 -1 0 1 0 -1 1 1 0 -1 0 1 0 -1 0 1 0 -1 1 1 0 -1 0 1 0 -1 0 1 1 -1 0 1 0 -1 0 1 0 -1 0 1 1 -1 0 1 0 -1 0 1 0 -1 1 1 0 -1 0 1 0 -1 0 1"/>
<path stroke="red" d="M550 121l0 -1 1 1 0 -1 0 1 0 -1 0 1 1 -1 0 1 0 -1 0 1 0 -1 0 1 1 -1 0 1 0 -1 0 2 0 -2 1 2 0 -2 0 2 0 -2 0 2 0 -2 1 2 0 -2 0 2 0 -2 0 2 0 -2 1 2 0 -2 0 2 0 -2 0 2 1 -2 0 2 0 -2 0 2 0 -2 0 2 1 -2 0 2 0 -2 0 2 0 -2 1 2 0 -2"/>
<path stroke="red" d="M559 120l0 2 0 -2 0 2 0 -2 1 2 0 -2 0 2 0 -2 0 2 1 -2 0 2 0 -2 0 2 0 -2 0 2 1 -2 0 2 0 -2 0 2 0 -2 1 2 0 -2 0 2 0 -2 0 2 0 -2 1 2 0 -2 0 2 0 -2 0 2 0 -2 1 2 0 -2 0 2 0 -2 0 2 1 -2 0 2 0 -2 0 2 0 -2 0 2 1 -2 0 2 0 -2 0 2"/>
<path stroke="red" d="M567 122l0 -2 1 2 0 -2 0 2 0 -2 0 2 0 -2 1 2 0 -2 0 2 0 -2 0 2 1 -2 0 2 0 -2 0 2 0 -2 0 2 1 -2 0 2 0 -2 0 2 0 -2 1 2 0 -2 0 2 0 -2 0 2 0 -2 1 2 0 -2 0 2 0 -2 0 2 0 -2 1 2 0 -2 0 2 0 -2 0 2 1 -2 0 2 0 -2 0 2 0 -2 0 2 1 -2"/>
<path stroke="red" d="M576 120l0 2 0 -2 0 2 0 -1 1 3 0 -1 0 2 0 1 0 5 0 513 0 2 0 1 0 1 0 -1 0 1 0 -1 0 -1 0 -2 1 0 0 -2 0 -2 1 -2 0 -2 0 -2 1 -1 0 -1 0 -1 0 -1 0 -1 0 -1 1 -1 0 -1 0 -1 0 -1 0 -1 1 -1 0 -1 0 -1 0 -1 0 -1 0 -1 1 -1 0 -1 0 -1 0 -1"/>
<path stroke="red" d="M583 613l0 -1 1 -1 0 -1 0 -1 0 -1 0 -1 0 -1 1 -1 0 -1 0 -1 0 -2 1 0 0 -1 0 -1 0 -1 0 -1 0 -1 1 -1 0 -1 0 -1 0 -1 0 -1 1 -1 0 -1 0 -1 0 -1 0 -1 1 -2 0 -1 0 -1 0 -1 0 -1 1 -1 0 -1 0 -1 0 -1 0 -1 1 -1 0 -1 0 -1 0 -1 0 -1 1 -1"/>
<path stroke="red" d="M592 569l0 -1 0 -1 0 -1 0 -1 1 -1 0 -1 0 -1 0 -1 0 -1 1 -1 0 -1 0 -1 0 -1 0 -1 1 -1 0 -1 0 -1 0 -1 0 -1 0 -1 1 0 0 -1 0 -1 0 -1 0 -1 1 -1 0 -1 0 -1 0 -1 0 -1 1 -1 0 -1 0 -1 0 -1 0 -1 0 -1 1 -1 0 -1 0 -1 0 -1 1 -1 0 -1 0 -1"/>
<path stroke="red" d="M600 527l0 -1 0 -1 0 -1 1 0 0 -1 0 -1 0 -1 0 -1 1 -1 0 -1 0 -1 0 -1 0 -1 1 -1 0 -1 0 -1 0 -1 0 -1 1 0 0 -1 0 -1 0 -1 0 -1 0 -1 1 -1 0 -1 0 -1 0 -1 1 -1 0 -1 0 -1 0 -1 0 -1 1 -1 0 -1 0 -1 0 -1 0 -1 1 -1 0 -1 0 -1 0 -1 0 -1"/>
<path stroke="red" d="M608 486l1 0 0 -1 0 -1 0 -1 0 -1 0 -1 1 0 0 -1 0 -1 0 -1 0 -1 1 -1 0 -1 0 -1 0 -1 0 -1 1 -1 0 -1 0 -1 0 -1 1 -1 0 -1 0 -1 0 -1 0 -1 1 -1 0 -1 0 -1 0 -1 1 -1 0 -1 0 -1 0 -1 0 -1 1 -1 0 -1 0 -1 0 -1 0 -1 1 -1 0 -1 0 -1 0 -1"/>
<path stroke="red" d="M617 445l1 -1 0 -1 0 -1 0 -1 0 -1 1 0 0 -1 0 -1 0 -1 0 -1 1 0 0 -1 0 -1 0 -1 0 -1 1 -1 0 -1 0 -1 0 -1 1 -1 0 -1 0 -1 0 -1 0 -1 1 -1 0 -1 0 -1 0 -1 1 -1 0 -1 0 -1 0 -1 0 -1 1 0 0 -1 0 -1 0 -1 0 -1 1 -1 0 -1 0 -1 0 -1 1 -1"/>
<path stroke="red" d="M627 405l0 -1 0 -1 0 -1 0 -1 1 0 0 -1 0 -1 0 -1 1 -1 0 -1 0 -1 0 -1 0 -1 1 -1 0 -1 0 -1 0 -1 1 0 0 -1 0 -1 0 -1 0 -1 1 -1 0 -1 0 -1 0 -1 1 -1 0 -1 0 -1 0 -1 1 -1 0 -1 0 -1 0 -1 0 -1 1 -1 0 -1 0 -1 0 -1 1 0 0 -1 0 -1 0 -1"/>
<path stroke="red" d="M636 365l0 -1 1 -1 0 -1 0 -1 1 -1 0 -1 0 -1 0 -1 0 -1 1 -1 0 -1 0 -1 1 -1 0 -1 0 -1 0 -1 0 -1 1 0 0 -1 0 -1 0 -1 1 -1 0 -1 0 -1 0 -1 1 -1 0 -1 0 -1 0 -1 0 -1 1 0 0 -1 0 -1 0 -1 1 -1 0 -1 0 -1 0 -1 1 -1 0 -1 0 -1 0 -1 1 -1"/>
<path stroke="red" d="M647 324l0 -1 0 -1 0 -1 1 -1 0 -1 0 -1 1 -1 0 -1 0 -1 0 -1 1 -1 0 -1 0 -1 0 -1 1 0 0 -1 0 -1 0 -1 0 -1 1 -1 0 -1 0 -1 0 -1 1 -1 0 -1 0 -1 1 -1 0 -1 0 -1 0 -1 1 -1 0 -1 0 -1 1 -1 0 -1 0 -1 0 -1 1 -1 0 -1 0 -1 0 -1 1 0 0 -1"/>
<path stroke="red" d="M658 283l0 -1 0 -1 0 -1 1 0 0 -1 0 -1 0 -1 1 0 0 -1 0 -1 0 -1 0 -1 1 0 0 -1 0 -1 0 -1 1 -1 0 -1 0 -1 0 -1 1 0 0 -1 0 -1 0 -1 1 -1 0 -1 0 -1 0 -1 1 0 0 -1 0 -1 0 -1 1 -1 0 -1 0 -1 1 -1 0 -1 0 -1 0 -1 1 -1 0 -1 0 -1 1 -1 0 -1"/>
<path stroke="red" d="M669 244l0 -1 0 -1 1 0 0 -1 0 -1 0 -1 1 -1 0 -1 0 -1 1 -1 0 -1 0 -1 0 -1 1 -1 0 -1 0 -1 1 -1 0 -1 0 -1 0 -1 1 0 0 -1 0 -1 0 -1 1 0 0 -1 0 -1 0 -1 1 -1 0 -1 0 -1 1 -1 0 -1 0 -1 0 -1 1 0 0 -1 0 -1 0 -1 1 -1 0 -1 0 -1 1 0 0 -1"/>
<path stroke="red" d="M681 205l0 -1 0 -1 1 -1 0 -1 0 -1 1 -1 0 -1 0 -1 0 -1 1 0 0 -1 0 -1 1 -1 0 -1 0 -1 0 -1 1 0 0 -1 0 -1 0 -1 1 0 0 -1 0 -1 0 -1 1 0 0 -1 0 -1 0 -1 1 -1 0 -1 0 -1 1 0 0 -1 0 -1 0 -1 1 -1 0 -1 0 -1 1 0 0 -1 0 -1 0 -1 1 -1 0 -1"/>
<path stroke="red" d="M693 167l0 -1 1 0 0 -1 0 -1 0 -1 1 -1 0 -1 0 -1 1 0 0 -1 0 -1 0 -1 1 0 0 -1 0 -1 0 -1 1 0 0 -1 0 -1 0 -1 1 0 0 -1 0 -1 0 -1 1 0 0 -1 0 -1 1 -1 0 -1 0 -1 1 -1 0 -1 0 -1 1 0 0 -1 0 -1 0 -1 1 -1 0 -1 0 -1 1 0 0 -1 0 -1 0 -1"/>
<path stroke="red" d="M705 131l1 0 0 -1 0 -1 0 -18 1 1 0 1 0 -1 0 1 1 -1 0 1 0 -1 0 1 0 -1 0 1 1 -1 0 1 0 -1 0 1 0 -1 1 1 0 -1 0 1 0 -1 0 1 0 -1 1 1 1 0 0 1 0 -1 0 1 0 -1 0 1 1 -1 0 1 0 -1 0 1 0 -1 1 1 0 -1 0 1 0 -1 0 1 0 -1 1 1 0 -1 0 1 0 -1"/>
<path stroke="red" d="M715 113l0 1 0 -1 1 1 0 -1 0 1 0 -1 0 1 1 0 0 1 0 -1 0 1 1 -1 0 1 0 -1 0 1 0 -1 1 1 0 -1 0 1 0 -1 0 1 0 -1 1 1 0 -1 0 1 0 -1 0 1 1 -1 0 1 0 -1 0 1 0 -1 0 1 1 -1 0 1 0 -1 0 1 0 -1 1 1 0 1 0 -1 1 1 0 -1 0 1 0 -1 0 1 0 -1 1 1"/>
<path stroke="red" d="M725 116l0 -1 0 1 0 -1 0 1 1 -1 0 1 0 -1 0 1 0 -1 0 1 1 -1 0 1 0 -1 0 1 0 -1 1 1 0 -1 0 1 0 -1 0 1 0 -1 1 1 0 -1 0 1 0 -1 0 1 1 -1 0 1 0 -1 0 2 0 -1 0 1 1 -1 0 1 0 -1 0 1 0 -1 1 1 0 -1 0 1 0 -1 0 1 0 -1 1 1 0 -1 0 1 0 -1"/>
<path stroke="red" d="M733 116l0 1 0 -1 1 1 0 -1 0 1 0 -1 0 1 1 -1 0 1 0 -1 0 1 0 -1 0 1 1 -1 0 1 0 -1 0 1 0 -1 1 1 0 -1 0 1 0 -1 0 1 0 -1 1 1 0 -1 0 1 0 -1 0 2 1 -2 0 2 0 -2 0 2 0 -1 0 1 1 -1 0 1 0 -1 0 1 0 -1 1 1 0 -1 0 1 0 -1 0 1 0 -1 1 1"/>
<path stroke="red" d="M742 118l0 -1 0 1 0 -1 0 1 0 -1 1 1 0 -1 0 1 0 -1 0 1 1 -1 0 1 0 -1 0 1 0 -1 0 1 1 -1 0 1 0 -1 0 1 0 -1 1 1 0 -1 0 1 0 -1 0 1 0 -1 1 1 0 -1 0 1 0 -1 0 1 1 -1 0 1 0 -1 0 1 0 -1 0 1 1 -1 0 2 0 -2 0 2 0 -2 1 2 0 -2 0 2 0 -2"/>
<path stroke="red" d="M750 117l0 2 0 -2 1 2 0 -1 0 1 0 -1 0 1 0 -1 1 1 0 -1 0 1 0 -1 0 1 1 -1 0 1 0 -1 0 1 0 -1 0 1 1 -1 0 1 0 -1 0 1 0 -1 1 1 0 -1 0 1 0 -1 0 1 0 -1 1 1 0 -1 0 1 0 -1 0 1 1 -1 0 1 0 -1 0 1 0 -1 0 1 1 -1 0 1 0 -1 0 1 0 -1 1 1"/>
<path stroke="red" d="M759 119l0 -1 0 1 0 -1 0 1 0 -1 1 1 0 -1 0 1 0 -1 0 1 0 -1 1 1 0 -1 0 1 0 -1 0 1 1 -1 0 2 0 -2 0 2 0 -2 0 2 1 -2 0 2 0 -2 0 2 0 -2 1 2 0 -2 0 2 0 -2 0 2 0 -2 1 2 0 -2 0 2 0 -2 0 2 1 -2 0 2 0 -2 0 2 0 -2 0 2 1 -1 0 1 0 -1"/>
<path stroke="red" d="M767 119l0 1 0 -1 1 1 0 -1 0 1 0 -1 0 1 0 -1 1 1 0 -1 0 1 0 -1 0 1 0 -1 1 1 0 -1 0 1 0 -1 0 1 1 -1 0 1 0 -1 0 1 0 -1 0 1 1 -1 0 1 0 -1 0 1 0 -1 1 1 0 -1 0 1 0 -1 0 1 0 -1 1 1 0 -1 0 1 0 -1 0 1 1 -1 0 1 0 -1 0 1 0 -1 0 1"/>
<path stroke="red" d="M775 120l1 -1 0 1 0 -1 0 1 0 -1 1 1 0 -1 0 1 0 -1 0 1 0 -1 1 1 0 -1 0 1 0 -1 0 1 0 -1 1 1 0 -1 0 1 0 -1 0 1 1 -1 0 1 0 -1 0 1 0 -1 0 1 1 -1 0 2 0 -2 0 2 0 -2 1 2 0 -2 0 2 0 -2 0 2 0 -2 1 2 0 -2 0 2 0 -2 0 2 1 -2 0 2 0 -2"/>
<path stroke="red" d="M784 119l0 2 0 -2 0 2 1 -2 0 2 0 -2 0 2 0 -2 1 2 0 -2 0 2 0 -2 0 2 0 -2 1 2 0 -2 0 2 0 -2 0 2 0 -2 1 2 0 -2 0 2 0 -2 0 2 1 -2 0 2 0 -2 0 2 0 -2 0 2 1 -2 0 2 0 -2 0 2 0 -2 1 2 0 -2 0 2 0 -2 0 2 0 -2 1 2 0 -2 0 2 0 -2 0 2"/>
<path stroke="red" d="M792 121l1 -2 0 2 0 -2 0 2 0 -1 0 1 1 -1 0 1 0 -1 0 1 0 -1 1 1 0 -1 0 1 0 -1 0 1 0 -1 1 1 0 -1 0 1 0 -1 0 1 0 -1 1 1 0 -1 0 1 0 -1 0 1 1 -1 0 1 0 -1 0 1 0 -1 0 1 1 -1 0 1 0 -1 0 1 0 -1 1 1 0 -1 0 1 0 -1 0 1 0 -1 1 1 0 -1"/>
<path stroke="red" d="M801 120l0 1 0 -1 0 1 1 -1 0 1 0 -1 0 1 0 -1 0 1 1 -1 0 1 0 -1 0 1 0 -1 1 1 0 -1 0 1 0 -1 0 1 0 -1 1 1 0 -1 0 1 0 -1 0 1 0 -1 1 1 0 -1 0 1 0 -1 0 1 1 -1 0 1 0 -1 0 1 0 -1 0 1 1 -1 0 1 0 -1 0 1 0 -1 1 1 0 -1 0 1 0 -1 0 1"/>
<path stroke="red" d="M809 121l0 -1 1 1 0 -1 0 1 0 -1 0 1 1 -1 0 1 0 -1 0 1 0 -1 0 1 1 -1 0 1 0 -1 0 1 0 -1 1 1 0 -1 0 1 0 -1 0 1 0 -1 1 1 0 -1 0 1 0 -1 0 1 0 -1 1 1 0 -1 0 1 0 -1 0 1 1 -1 0 2 0 -2 0 2 0 -2 0 2 1 -2 0 2 0 -2 0 2 0 -2 1 2 0 -2"/>
<path stroke="red" d="M818 120l0 2 0 -2 0 2 0 -2 1 2 0 -2 0 2 0 -2 0 2 1 -2 0 2 0 -2 0 2 0 -2 0 2 1 -2 0 2 0 -2 0 2 0 -2 1 2 0 -2 0 2 0 -2 0 2 0 -2 1 2 0 -2 0 2 0 -2 0 2 0 -2 1 2 0 -2 0 2 0 -2 0 2 1 -2 0 2 0 -2 0 2 0 -2 0 2 1 -2 0 2 0 -2 0 2"/>
<path stroke="red" d="M826 122l0 -2 1 2 0 -2 0 2 0 -2 0 2 0 -2 1 2 0 -2 0 2 0 -2 0 2 1 -2 0 2 0 -2 0 2 0 -2 0 2 1 -2 0 2 0 -2 0 2 0 -2 1 2 0 -2 0 2 0 -2 0 2 0 -2 1 2 0 -2 0 2 0 -2 0 2 0 -2 1 2 0 -2 0 2 0 -2 0 2 1 -2 0 2 0 -2 0 2 0 -2 0 2 1 -2"/>
<path stroke="red" d="M835 120l0 2 0 -2 0 2 0 -2 1 2 0 -1 0 1 0 -1 0 1 0 1 0 1 1 0 0 2 0 2 0 1 0 3 0 1 0 8 0 175 0 320 0 8 0 1 0 1 0 1 0 1 0 -1 0 -1 0 -1 0 -1 1 -1 0 -1 0 -1 0 -1 0 -1 0 -1 1 -1 0 -1 0 -1 0 -1 0 -1 1 -1 0 -1 0 -1 0 -1 0 -1 0 -1"/>
<path stroke="red" d="M840 627l1 -1 0 -1 0 -1 0 -1 0 -1 1 -1 0 -1 0 -1 0 -1 0 -2 1 0 0 -1 0 -1 0 -1 0 -1 0 -1 1 -1 0 -1 0 -1 0 -1 0 -1 1 -1 0 -1 0 -1 0 -1 0 -1 0 -1 1 -1 0 -1 0 -1 0 -1 0 -1 1 0 0 -2 0 -1 0 -1 0 -1 1 -1 0 -1 0 -1 0 -1 0 -1 1 -1"/>
<path stroke="red" d="M849 584l0 -1 0 -1 0 -1 0 -1 0 -1 1 -1 0 -1 0 -1 0 -1 1 -1 0 -1 0 -1 0 -1 0 -1 0 -1 1 -1 0 -1 0 -1 0 -1 0 -1 1 -1 0 -1 0 -1 0 -1 0 -1 1 -1 0 -1 0 -1 0 -1 0 -1 1 -1 0 -1 0 -1 0 -1 0 -1 1 -1 0 -1 0 -1 0 -1 0 -1 1 -1 0 -1 0 -1"/>
<path stroke="red" d="M857 541l0 -1 0 -1 1 -1 0 -1 0 -1 0 -1 0 -1 1 -1 0 -1 0 -1 0 -1 0 -1 1 0 0 -1 0 -1 0 -1 0 -1 0 -1 1 -1 0 -1 0 -2 0 -1 1 -1 0 -1 0 -1 0 -1 1 -1 0 -1 0 -1 0 -1 0 -1 0 -1 1 -1 0 -1 0 -1 0 -1 1 -1 0 -1 0 -1 0 -1 0 -1 1 -1 0 -1"/>
<path stroke="red" d="M866 498l0 -1 0 -1 1 -1 0 -1 0 -1 0 -1 0 -1 0 -1 1 -1 0 -1 0 -1 0 -1 1 -1 0 -1 0 -1 0 -1 0 -1 1 -1 0 -1 0 -1 0 -1 0 -1 1 -1 0 -1 0 -1 0 -1 1 -1 0 -1 0 -1 0 -1 0 -1 1 -1 0 -1 0 -1 0 -1 1 -1 0 -1 0 -1 0 -1 0 -1 1 -1 0 -1 0 -1"/>
<path stroke="red" d="M875 455l0 -1 1 -1 0 -1 0 -1 0 -1 0 -1 1 -1 0 -1 0 -1 0 -1 1 -1 0 -1 0 -1 0 -1 0 -1 1 -1 0 -1 0 -1 0 -1 0 -1 1 0 0 -1 0 -1 0 -1 0 -1 1 -1 0 -1 0 -1 0 -1 1 -1 0 -1 0 -1 0 -1 1 -1 0 -1 0 -1 0 -1 0 -1 1 -1 0 -1 0 -1 0 -1 1 -1"/>
<path stroke="red" d="M885 413l0 -1 0 -1 0 -1 1 -1 0 -1 0 -1 0 -1 1 -1 0 -1 0 -1 0 -1 0 -1 1 -1 0 -1 0 -1 0 -1 0 -1 1 0 0 -1 0 -1 0 -1 1 -1 0 -1 0 -1 0 -1 0 -1 1 -1 0 -1 0 -1 0 -1 1 0 0 -1 0 -1 0 -1 0 -1 1 -1 0 -1 0 -1 0 -1 1 -1 0 -1 0 -1 0 -1"/>
<path stroke="red" d="M894 372l1 -1 0 -1 0 -1 0 -1 1 0 0 -1 0 -1 0 -1 0 -1 1 -1 0 -1 0 -1 0 -1 0 -1 1 0 0 -1 0 -1 0 -1 1 -1 0 -1 0 -1 0 -1 1 -1 0 -1 0 -1 0 -1 1 -1 0 -1 0 -1 0 -1 1 -1 0 -1 0 -1 0 -1 1 -1 0 -1 0 -1 0 -1 1 -1 0 -1 0 -1 0 -1 1 0"/>
<path stroke="red" d="M905 332l0 -1 0 -1 0 -1 0 -1 1 0 0 -1 0 -1 0 -1 0 -1 1 0 0 -1 0 -1 0 -1 1 -1 0 -1 0 -1 0 -1 1 -1 0 -1 0 -1 0 -1 1 0 0 -1 0 -1 0 -1 0 -1 1 0 0 -1 0 -1 0 -1 1 -1 0 -1 0 -1 0 -1 1 -1 0 -1 0 -1 0 -1 1 0 0 -1 0 -1 0 -1 0 -1 1 0"/>
<path stroke="red" d="M915 294l0 -1 0 -1 0 -1 1 -1 0 -1 0 -1 0 -1 1 0 0 -1 0 -1 0 -1 0 -1 1 0 0 -1 0 -1 0 -1 1 0 0 -1 0 -1 0 -1 0 -1 1 0 0 -1 0 -1 0 -1 1 -1 0 -1 0 -1 0 -1 1 0 0 -1 0 -1 0 -1 1 0 0 -1 0 -1 0 -1 0 -1 1 0 0 -1 0 -1 0 -1 1 -1 0 -1"/>
<path stroke="red" d="M925 257l0 -1 1 -1 0 -1 0 -1 0 -1 1 -1 0 -1 0 -1 1 -1 0 -1 0 -1 0 -1 1 -1 0 -1 0 -1 1 -1 0 -1 0 -1 0 -1 1 0 0 -1 0 -1 0 -1 1 0 0 -1 0 -1 0 -1 1 -1 0 -1 0 -1 0 -1 1 0 0 -1 0 -1 0 -1 1 -1 0 -1 0 -1 1 -1 0 -1 0 -1 1 -1 0 -1"/>
<path stroke="red" d="M937 217l0 -1 0 -1 1 0 0 -1 0 -1 0 -1 1 0 0 -1 0 -1 0 -1 1 -1 0 -1 0 -1 1 -1 0 -1 0 -1 0 -1 1 0 0 -1 0 -1 0 -1 1 0 0 -1 0 -1 0 -1 1 0 0 -1 0 -1 0 -1 1 -1 0 -1 0 -1 1 0 0 -1 0 -1 0 -1 1 -1 0 -1 0 -1 1 -1 0 -1 0 -1 1 -1 0 -1"/>
<path stroke="red" d="M949 179l0 -1 1 -1 0 -1 0 -1 1 -1 0 -1 0 -1 0 -1 1 0 0 -1 0 -1 1 -1 0 -1 0 -1 0 -1 1 0 0 -1 0 -1 1 -1 0 -1 0 -1 1 -1 0 -1 0 -1 1 -1 0 -1 0 -1 1 -1 0 -1 0 -1 1 0 0 -1 0 -1 0 -1 1 0 0 -1 0 -1"/>
</svg>
