<svg xmlns="http://www.w3.org/2000/svg" width="100%" height="100%" version="1.1" viewBox="0 0 1024 768" style="fill:none;font:Helvetica"><rect width="1024" height="768" x="0" y="0" fill="#fff" stroke="none"/><text x="358" y="752" fill="#00f" stroke="none" font-size="16">time</text><text x="10" y="16" fill="#00f" stroke="none" font-size="16">tran1: astable multiibrator (set2).</text><path stroke="#00f" stroke-dasharray="1 2" d="M60 704l0 -636"/><text x="35" y="728" fill="#00f" stroke="none" font-size="16">195.0</text><path stroke="#00f" stroke-dasharray="1 2" d="M150 704l0 -636"/><text x="125" y="728" fill="#00f" stroke="none" font-size="16">195.5</text><path stroke="#00f" stroke-dasharray="1 2" d="M240 704l0 -636"/><text x="215" y="728" fill="#00f" stroke="none" font-size="16">196.0</text><path stroke="#00f" stroke-dasharray="1 2" d="M330 704l0 -636"/><text x="305" y="728" fill="#00f" stroke="none" font-size="16">196.5</text><path stroke="#00f" stroke-dasharray="1 2" d="M420 704l0 -636"/><text x="395" y="728" fill="#00f" stroke="none" font-size="16">197.0</text><path stroke="#00f" stroke-dasharray="1 2" d="M510 704l0 -636"/><text x="485" y="728" fill="#00f" stroke="none" font-size="16">197.5</text><path stroke="#00f" stroke-dasharray="1 2" d="M600 704l0 -636"/><text x="575" y="728" fill="#00f" stroke="none" font-size="16">198.0</text><path stroke="#00f" stroke-dasharray="1 2" d="M690 704l0 -636"/><text x="665" y="728" fill="#00f" stroke="none" font-size="16">198.5</text><path stroke="#00f" stroke-dasharray="1 2" d="M780 704l0 -636"/><text x="755" y="728" fill="#00f" stroke="none" font-size="16">199.0</text><path stroke="#00f" stroke-dasharray="1 2" d="M870 704l0 -636"/><text x="845" y="728" fill="#00f" stroke="none" font-size="16">199.5</text><path stroke="#00f" stroke-dasharray="1 2" d="M960 704l0 -636"/><text x="935" y="728" fill="#00f" stroke="none" font-size="16">200.0</text><text x="614" y="752" fill="#00f" stroke="none" font-size="16">ms</text><path stroke="#00f" d="M60 704l900 0"/><text x="28" y="712" fill="#00f" stroke="none" font-size="16">0.0</text><path stroke="#00f" stroke-dasharray="1 2" d="M60 651l900 0"/><text x="28" y="659" fill="#00f" stroke="none" font-size="16">1.0</text><path stroke="#00f" stroke-dasharray="1 2" d="M60 598l900 0"/><text x="28" y="606" fill="#00f" stroke="none" font-size="16">2.0</text><path stroke="#00f" stroke-dasharray="1 2" d="M60 545l900 0"/><text x="28" y="553" fill="#00f" stroke="none" font-size="16">3.0</text><path stroke="#00f" stroke-dasharray="1 2" d="M60 492l900 0"/><text x="28" y="500" fill="#00f" stroke="none" font-size="16">4.0</text><path stroke="#00f" stroke-dasharray="1 2" d="M60 439l900 0"/><text x="28" y="447" fill="#00f" stroke="none" font-size="16">5.0</text><path stroke="#00f" stroke-dasharray="1 2" d="M60 386l900 0"/><text x="28" y="394" fill="#00f" stroke="none" font-size="16">6.0</text><path stroke="#00f" stroke-dasharray="1 2" d="M60 333l900 0"/><text x="28" y="341" fill="#00f" stroke="none" font-size="16">7.0</text><path stroke="#00f" stroke-dasharray="1 2" d="M60 280l900 0"/><text x="28" y="288" fill="#00f" stroke="none" font-size="16">8.0</text><path stroke="#00f" stroke-dasharray="1 2" d="M60 227l900 0"/><text x="28" y="235" fill="#00f" stroke="none" font-size="16">9.0</text><path stroke="#00f" stroke-dasharray="1 2" d="M60 174l900 0"/><text x="18" y="182" fill="#00f" stroke="none" font-size="16">10.0</text><path stroke="#00f" stroke-dasharray="1 2" d="M60 121l900 0"/><text x="18" y="129" fill="#00f" stroke="none" font-size="16">11.0</text><path stroke="#00f" stroke-dasharray="1 2" d="M60 68l900 0"/><text x="18" y="76" fill="#00f" stroke="none" font-size="16">12.0</text><text x="10" y="32" fill="#00f" stroke="none" font-size="16">V</text><path stroke="red" d="M450 23l45 0"/><text x="505" y="32" fill="#00f" stroke="none" font-size="16">d</text><path stroke="red" d="M60 702l1 0 1 0 1 0 1 0 1 0 1 0 1 0 1 0 1 0 1 0 1 0 1 0 1 0 1 0 1 0 1 0 1 0 1 0 1 0 1 0 1 0 1 0 1 0 1 0 0 -1 0 1 1 -1 0 1 0 -1 0 1 0 -1 0 1 1 -1 0 1 0 -1 0 1 0 -1 0 1 1 -1 0 1 0 -1 0 1 0 -1 1 1 0 -1 0 1 0 -1 0 1 0 -1 1 1"/><path stroke="red" d="M89 702l0 -1 0 1 0 -1 0 1 1 -1 0 1 0 -1 0 1 0 -1 0 1 1 -1 0 1 0 -1 0 1 0 -1 1 1 0 -1 0 1 0 -1 0 1 0 -1 1 1 0 -1 0 1 0 -1 0 1 1 -1 0 1 0 -1 0 1 0 -1 0 1 1 -1 0 1 0 -1 0 1 0 -1 0 1 1 -1 0 1 0 -1 0 1 0 -1 1 1 0 -1 0 1 0 -1"/><path stroke="red" d="M97 701l0 1 0 -1 1 1 0 -1 0 1 0 -1 0 1 1 -1 0 1 0 -1 0 1 0 -1 0 1 1 -1 0 1 0 -1 0 1 0 -1 1 0 1 0 1 0 1 0 1 0 1 0 1 0 1 0 1 0 1 0 1 0 1 0 1 0 1 0 1 0 1 0 1 0 1 0 1 0 1 0 1 0 1 0 1 0 1 0 1 0 1 0 1 0 1 0 1 0 1 0 1 0 1 0 1 0"/><path stroke="red" d="M133 701l1 0 1 0 1 0 1 0 1 0 1 0 1 0 1 0 1 0 1 0 1 0 1 0 1 0 1 0 1 0 1 0 1 0 1 0 1 0 1 0 1 0 1 0 1 0 1 0 1 0 1 0 1 0 1 0 1 0 1 0 1 0 1 0 1 0 1 0 1 0 1 0 1 0 1 0 1 0 1 0 1 0 1 0 1 0 1 0 1 0 1 0 1 0 1 0 1 0 1 0 1 0 1 0 1 0"/><path stroke="red" d="M186 701l1 0 0 -1 0 -1 0 -23 0 -5 0 9 0 -4 0 5 0 -3 0 4 0 -3 0 3 0 -2 0 2 0 -2 0 1 0 -4 1 0 0 -4 0 -1 0 -5 0 -1 0 -5 1 -1 0 -5 0 -1 0 -5 0 -1 0 -5 1 0 0 -5 0 -1 0 -5 0 -1 1 -4 0 -1 0 -5 0 -5 0 -1 1 -5 0 -5 0 -1 0 -4 1 -1"/><path stroke="red" d="M193 599l0 -4 0 -1 0 -5 0 -5 1 0 0 -5 0 -5 1 -5 0 -5 0 -4 0 -1 1 -4 0 -1 0 -4 0 -1 0 -4 1 0 0 -4 0 -1 0 -4 0 -1 0 -4 1 0 0 -4 0 -1 0 -4 0 -4 1 -1 0 -4 0 -4 1 -4 0 -1 0 -4 0 -4 1 -4 0 -4 0 -4 1 -1 0 -3 0 -1 0 -3 0 -1 0 -3"/><path stroke="red" d="M202 472l1 -1 0 -3 0 -1 0 -3 1 -4 0 -4 0 -4 1 -4 0 -3 0 -4 1 0 0 -4 0 -3 0 -4 1 0 0 -3 0 -4 0 -3 1 0 0 -4 0 -3 1 -4 0 -3 0 -3 1 -4 0 -3 0 -3 1 0 0 -3 0 -3 0 -4 1 1 0 -4 0 -3 1 -3 0 -3 0 -3 1 -3 0 1 0 -4 0 1 0 -3 1 0 0 -3"/><path stroke="red" d="M215 357l0 -3 0 -3 1 0 0 -3 0 1 0 -3 0 -3 1 0 0 -3 0 -3 0 1 1 -3 0 -3 0 -2 1 -3 0 -2 0 -3 1 0 0 -2 0 -3 0 -2 1 0 0 -3 0 1 0 -3 1 -3 0 1 0 -3 0 -2 1 -3 0 1 0 -3 0 1 0 -3 1 0 0 -2 0 -2 0 -3 1 1 0 -3 0 1 0 -3 0 -2 1 0 0 -2"/><path stroke="red" d="M226 281l0 -2 1 -2 0 -2 0 -2 1 -2 0 -2 0 -2 1 0 0 -2 0 -2 0 -2 1 0 0 -2 0 -2 1 -2 0 1 0 -3 0 1 0 -2 1 -2 0 -2 0 -2 1 1 0 -3 0 1 0 -2 0 -2 1 1 0 -3 0 1 0 -2 0 -2 1 0 0 -2 0 1 0 -2 1 -2 0 1 0 -2 0 -2 1 -2 0 1 0 -2 0 -2 1 1"/><path stroke="red" d="M238 224l0 -2 0 -2 0 1 0 -2 1 0 0 -2 0 1 0 -2 1 -2 0 1 0 -2 0 -1 1 -2 0 1 0 -2 0 -2 1 1 0 -2 0 1 0 -2 0 -2 1 1 0 -2 0 1 0 -2 0 -2 1 1 0 -2 0 1 0 -2 1 -1 0 -2 0 1 0 -2 0 1 1 -2 0 -1 0 -2 1 1 0 -2 0 1 0 -2 0 1 0 -2 1 0 0 -1"/><path stroke="red" d="M248 185l0 -1 1 -2 0 1 0 -2 0 1 0 -2 0 1 1 -2 0 1 0 -2 0 1 0 -2 1 1 0 -2 0 -1 0 -1 1 0 0 -1 0 -1 0 -1 1 0 0 -1 0 -1 1 -1 0 -1 0 -1 1 -1 0 -1 0 -1 1 1 0 -2 0 1 0 -2 0 1 0 -2 1 1 0 -2 0 1 0 -2 0 1 1 -1 0 -1 0 -1 1 -1 0 -1"/><path stroke="red" d="M259 154l0 1 0 -2 1 1 0 -2 0 1 0 -1 0 -1 1 0 0 -1 0 1 0 -2 0 1 0 -2 1 1 0 -1 0 -1 1 -1 0 1 0 -2 0 1 0 -1 1 -1 0 -1 0 1 0 -2 1 1 0 -1 0 -1 0 -1 1 1 0 -2 0 1 0 -1 1 -1 0 1 0 -2 0 1 0 -1 1 -1 0 1 0 -2 0 1 0 -1 1 0 0 -1 0 1"/><path stroke="red" d="M269 135l0 -2 0 1 0 -1 1 0 0 -1 0 1 0 -2 0 1 0 -1 1 0 0 -1 0 1 0 -1 1 -1 0 1 0 -2 0 1 0 -1 1 -1 0 1 0 -1 0 -1 1 1 0 -1 0 -1 0 -1 1 1 0 -1 0 -1 0 1 1 -1 0 -1 0 1 0 -1 1 -1 0 1 0 -1 0 -1 1 1 0 -1 0 -1 0 1 0 -1 1 0 0 -1 0 1"/><path stroke="red" d="M279 119l0 -1 0 -1 1 1 0 -1 0 -1 0 1 1 -1 0 -1 0 1 0 -1 1 -1 0 1 0 -1 0 -1 1 1 0 -1 0 1 0 -1 0 -1 1 1 0 -1 0 -1 0 1 1 -1 0 -1 0 1 0 -1 0 1 1 -1 0 -1 0 1 0 -1 1 0 0 -1 0 1 0 -1 1 0 0 -1 0 1 0 -1 0 -1 1 1 0 -1 0 1 0 -1 1 -1"/><path stroke="red" d="M290 105l0 1 0 -1 1 -1 0 1 0 -1 1 0 0 -1 0 1 0 -1 1 0 0 -1 0 1 0 -1 1 0 0 -1 0 1 0 -1 1 0 0 -1 0 1 0 -1 1 0 0 -1 0 1 0 -1 1 0 0 -1 0 1 0 -1 1 1 0 -1 0 -1 0 1 1 -1 0 1 0 -1 1 -1 0 1 0 -1 0 1 0 -1 1 0 0 -1 0 1 0 -1 1 0 0 -1"/><path stroke="red" d="M302 94l0 1 1 -1 0 1 0 -1 1 -1 0 1 0 -1 0 1 0 -1 1 0 0 -1 0 1 0 -1 1 1 0 -1 1 0 0 -1 0 1 0 -1 1 0 0 -1 0 1 1 -1 0 1 0 -1 1 0 0 -1 0 1 0 -1 1 1 0 -1 1 -1 0 1 0 -1 0 1 0 -1 0 1 1 -1 1 0 0 -1 0 1 0 -1 0 1 0 -1 1 0 0 -1 1 1"/><path stroke="red" d="M316 87l0 -1 0 1 0 -1 0 1 1 614 0 1 0 -1 0 1 0 -1 0 1 0 -1 1 1 0 -1 0 1 0 -1 0 1 0 -1 1 1 0 -1 0 1 0 -1 0 1 1 -1 0 1 0 -1 0 1 0 -1 0 1 1 -1 0 1 0 -1 0 1 0 -1 1 1 0 -1 0 1 0 -1 0 1 0 -1 1 1 0 -1 0 1 0 -1 0 1 0 -1 1 1 0 -1"/><path stroke="red" d="M324 701l0 1 0 -1 0 1 1 -1 0 1 0 -1 0 1 0 -1 0 1 1 0 1 0 1 0 1 0 1 0 1 0 1 0 1 0 1 0 1 0 0 -1 0 1 0 -1 1 1 0 -1 0 1 0 -1 0 1 0 -1 1 1 0 -1 0 1 0 -1 0 1 1 -1 0 1 0 -1 0 1 0 -1 0 1 1 -1 0 1 0 -1 0 1 0 -1 1 1 0 -1 0 1 0 -1"/><path stroke="red" d="M340 701l0 1 0 -1 1 1 0 -1 0 1 0 -1 0 1 0 -1 1 1 0 -1 0 1 0 -1 0 1 1 -1 0 1 0 -1 0 1 0 -1 0 1 1 -1 0 1 0 -1 0 1 0 -1 1 1 0 -1 0 1 0 -1 0 1 0 -1 1 1 0 -1 0 1 0 -1 0 1 1 -1 0 1 0 -1 0 1 0 -1 0 1 1 -1 0 1 0 -1 0 1 0 -1 1 1"/><path stroke="red" d="M349 702l0 -1 0 1 0 -1 0 1 0 -1 1 1 0 -1 0 1 0 -1 0 1 0 -1 1 1 0 -1 0 1 0 -1 0 1 1 -1 0 1 0 -1 0 1 0 -1 0 1 1 -1 0 1 0 -1 0 1 0 -1 1 1 0 -1 0 1 0 -1 0 1 0 -1 1 1 0 -1 0 1 0 -1 0 1 1 -1 0 1 0 -1 0 1 0 -1 0 1 1 -1 0 1 0 -1"/><path stroke="red" d="M357 701l0 1 0 -1 1 1 0 -1 0 1 0 -1 0 1 0 -1 1 1 0 -1 0 1 0 -1 0 1 0 -1 1 1 0 -1 0 1 0 -1 0 1 1 -1 0 1 0 -1 0 1 0 -1 0 1 1 -1 1 0 1 0 1 0 1 0 1 0 1 0 1 0 1 0 1 0 1 0 1 0 1 0 1 0 1 0 1 0 1 0 1 0 1 0 1 0 1 0 1 0 1 0 1 0 1 0"/><path stroke="red" d="M386 701l1 0 1 0 1 0 1 0 1 0 1 0 1 0 1 0 1 0 1 0 1 0 1 0 1 0 1 0 1 0 1 0 1 0 1 0 1 0 1 0 1 0 1 0 1 0 1 0 1 0 1 0 1 0 1 0 1 0 1 0 1 0 1 0 1 0 1 0 1 0 1 0 1 0 1 0 1 0 1 0 1 0 1 0 1 0 1 0 1 0 1 0 1 0 1 0 1 0 1 0 1 0 1 0 1 0"/><path stroke="red" d="M439 701l1 0 1 0 1 0 1 0 1 0 1 0 1 0 1 -1 0 -1 0 -1 0 -17 0 -20 0 19 0 -9 0 9 0 -5 0 5 0 -3 0 4 0 -3 0 4 0 -3 0 3 0 -2 0 2 0 -3 0 2 0 -3 0 -5 0 -1 0 -5 1 -1 0 -5 0 -1 0 -5 1 -5 0 -1 0 -5 0 -1 0 -5 1 -5 0 -1 0 -5 0 -1 0 -4"/><path stroke="red" d="M450 622l1 -1 0 -5 0 -5 0 -1 0 -5 1 0 0 -5 0 -5 0 -1 1 -4 0 -1 0 -4 0 -1 0 -4 0 -1 1 -4 0 -1 0 -4 0 -1 0 -4 1 -1 0 -4 0 -1 0 -4 0 -5 1 0 0 -5 0 -4 0 -5 1 0 0 -4 0 -1 0 -4 1 -5 0 -4 0 -4 1 -5 0 -4 0 -4 1 0 0 -5 0 -4 0 -4"/><path stroke="red" d="M460 488l1 0 0 -4 0 -4 1 -4 0 -4 0 -4 1 -4 0 -4 0 -4 1 0 0 -4 0 1 0 -4 0 -4 1 0 0 -4 0 -4 0 1 0 -4 1 0 0 -4 0 1 0 -4 1 -4 0 -3 0 -4 0 1 1 -4 0 -4 0 1 0 -4 1 0 0 -3 0 -4 0 1 0 -4 1 1 0 -4 0 -3 1 -3 0 -4 0 1 0 -4 0 1 1 -4"/><path stroke="red" d="M472 377l0 1 0 -4 0 1 0 -4 1 1 0 -4 0 1 0 -4 0 1 0 -4 1 1 0 -3 0 -3 0 -3 1 1 0 -4 0 1 0 -4 0 1 1 -3 0 -3 0 1 0 -4 0 1 1 -4 0 1 0 -3 0 1 0 -4 1 1 0 -3 0 -3 0 1 0 -4 1 1 0 -3 0 1 0 -4 0 1 1 -3 0 1 0 -3 0 -3 0 1 1 -3 0 1 0 -4"/><path stroke="red" d="M481 307l0 1 0 -3 1 1 0 -3 0 1 0 -4 0 1 0 -3 1 1 0 -3 0 1 0 -3 0 1 0 -4 1 1 0 -3 0 1 0 -3 0 1 1 -3 0 1 0 -3 0 1 0 -3 0 1 1 -3 0 1 0 -4 0 1 0 -3 1 1 0 -3 0 1 0 -3 0 1 0 -3 1 1 0 -3 0 2 0 -4 0 2 1 -3 0 1 0 -3 0 1 0 -3 0 1"/><path stroke="red" d="M489 260l1 -3 0 1 0 -3 0 1 0 -3 1 1 0 -3 0 2 0 -3 0 1 0 -3 1 1 0 -3 0 1 0 -3 0 1 0 -2 1 1 0 -3 0 1 0 -3 0 1 1 -3 0 2 0 -3 0 1 0 -3 0 1 1 -3 0 2 0 -3 0 1 0 -3 1 2 0 -3 0 1 0 -3 0 1 0 -2 1 1 0 -3 0 1 0 -2 0 1 1 -3 0 1 0 -2"/><path stroke="red" d="M498 219l0 1 0 -3 0 1 1 -2 0 1 0 -3 0 1 0 -2 1 1 0 -3 0 2 0 -3 0 1 0 -3 1 2 0 -3 0 1 0 -2 0 1 0 -3 1 2 0 -3 0 1 0 -2 0 1 1 -3 0 2 0 -3 0 1 0 -2 0 1 1 -3 0 2 0 -3 0 2 0 -3 1 1 0 -2 0 1 0 -2 0 1 0 -3 1 2 0 -3 0 2 0 -3 0 1"/><path stroke="red" d="M506 189l1 -2 0 1 0 -2 0 1 0 -3 0 2 1 -3 0 2 0 -3 0 2 0 -3 1 1 0 -2 0 1 0 -2 0 1 0 -2 1 1 0 -2 0 1 0 -2 0 1 0 -3 1 2 0 -3 0 2 0 -3 0 2 1 -3 0 2 0 -3 0 2 0 -3 0 2 1 -3 0 2 0 -3 0 2 0 -3 1 2 0 -3 0 2 0 -3 0 2 0 -2 1 1 0 -2"/><path stroke="red" d="M515 163l0 1 0 -2 0 1 1 -2 0 1 0 -2 0 1 0 -2 0 1 1 -2 0 2 0 -3 0 2 0 -3 1 2 0 -3 0 2 0 -3 0 2 0 -2 1 1 0 -2 0 1 0 -2 0 2 0 -3 1 2 0 -3 0 2 0 -2 0 1 1 -2 0 1 0 -2 0 1 0 -2 0 2 1 -3 0 2 0 -2 0 1 0 -2 1 1 0 -2 0 2 0 -3 0 2"/><path stroke="red" d="M523 145l0 -2 1 1 0 -2 0 1 0 -2 0 2 1 -3 0 2 0 -2 0 1 0 -2 0 2 1 -3 0 2 0 -2 0 1 0 -2 1 1 0 -2 0 2 0 -2 0 1 0 -2 1 1 0 -2 0 2 0 -2 0 1 0 -2 1 2 0 -3 0 2 0 -2 0 1 1 -2 0 2 0 -3 0 2 0 -2 0 1 1 -2 0 2 0 -2 0 1 0 -2 1 2 0 -3"/><path stroke="red" d="M532 127l0 2 0 -2 0 1 0 -2 1 2 0 -2 0 1 0 -2 0 2 1 -3 0 2 0 -2 0 2 0 -3 0 2 1 -2 0 1 0 -2 0 2 0 -2 1 1 0 -2 0 2 0 -2 0 1 0 -2 1 2 0 -2 0 1 0 -2 0 2 0 -2 1 1 0 -2 0 2 0 -2 0 1 1 -2 0 2 0 -2 0 1 0 -2 0 2 1 -2 0 1 0 -2 0 2"/><path stroke="red" d="M540 117l0 -2 1 1 0 -2 0 2 0 -2 0 1 0 -2 1 2 0 -2 0 2 0 -3 0 2 1 -2 0 2 0 -2 0 1 0 -2 0 2 1 -2 0 1 0 -2 0 2 0 -2 1 2 0 -3 0 2 0 -2 0 2 0 -2 1 1 0 -2 0 2 0 -2 0 2 0 -3 1 2 0 -2 0 2 0 -2 0 1 1 -2 0 2 0 -2 0 2 0 -3 0 2 1 -2"/><path stroke="red" d="M549 105l0 2 0 -2 0 1 0 -2 1 2 0 -2 0 2 0 -2 0 1 0 -2 1 2 0 -2 0 2 0 -2 0 1 1 -2 0 2 0 -2 0 2 0 -2 0 1 1 -2 0 2 0 -2 0 2 0 -2 1 1 0 -2 0 2 0 -2 0 2 0 -2 1 1 0 -2 0 2 0 -2 0 2 0 -2 1 1 0 -2 0 2 0 -2 0 2 1 -2 0 2 0 -3 0 2"/><path stroke="red" d="M557 99l0 -2 0 2 1 -2 0 2 0 -2 0 1 0 -2 1 2 0 -2 0 2 0 -2 0 1 0 -2 1 2 0 -2 0 2 0 -2 0 2 1 -2 0 1 0 -2 0 2 0 -2 0 2 1 -2 0 2 0 -2 0 1 0 -2 1 2 0 -2 0 2 0 -2 0 2 0 -2 1 1 0 -2 0 2 0 -2 0 2 0 -2 1 2 0 -2 0 1 0 -2 0 2 1 -2"/><path stroke="red" d="M566 91l0 2 0 -2 0 2 0 -2 0 1 1 -2 0 2 0 -2 0 2 0 -2 1 2 0 -2 0 2 0 -2 0 1 0 -2 1 2 0 -2 0 2 0 -2 0 2 1 -2 0 1 0 -2 0 2 0 -2 0 2 1 -2 0 2 0 -2 0 2 0 -2 1 1 0 -2 0 2 0 -2 0 2 0 -2 1 2 0 -2 0 2 0 -2 0 1 0 -2 1 2 0 -2 0 2 0 -2"/><path stroke="red" d="M574 86l0 2 1 -2 0 2 0 -2 0 2 0 -2 0 1 1 -1 0 2 0 -2 0 2 0 -2 1 4 0 -2 0 1 0 2 0 1 0 1 0 5 0 599 0 2 0 1 0 1 0 1 0 -1 0 1 0 -1 0 1 0 -1 1 1 0 -1 0 1 0 -1 0 1 1 -1 0 1 0 -1 0 1 0 -1 0 1 1 -1 0 1 0 -1 0 1 0 -1 0 1 1 -1 0 1"/><path stroke="red" d="M581 702l0 -1 0 1 0 -1 1 1 0 -1 0 1 0 -1 0 1 0 -1 1 1 0 -1 0 1 0 -1 0 1 1 -1 0 1 0 -1 0 1 0 -1 0 1 1 -1 0 1 0 -1 0 1 0 -1 1 1 1 0 1 0 1 0 1 0 1 0 1 0 1 0 1 0 1 0 1 0 1 0 1 0 1 0 0 -1 0 1 0 -1 1 1 0 -1 0 1 0 -1 0 1 0 -1 1 1"/><path stroke="red" d="M601 702l0 -1 0 1 0 -1 0 1 1 -1 0 1 0 -1 0 1 0 -1 0 1 1 -1 0 1 0 -1 0 1 0 -1 1 1 0 -1 0 1 0 -1 0 1 0 -1 1 1 0 -1 0 1 0 -1 0 1 1 -1 0 1 0 -1 0 1 0 -1 0 1 1 -1 0 1 0 -1 0 1 0 -1 0 1 1 -1 0 1 0 -1 0 1 0 -1 1 1 0 -1 0 1 0 -1"/><path stroke="red" d="M609 701l0 1 0 -1 1 1 0 -1 0 1 0 -1 0 1 1 -1 0 1 0 -1 0 1 0 -1 0 1 1 -1 0 1 0 -1 0 1 0 -1 1 1 0 -1 0 1 0 -1 0 1 0 -1 1 1 0 -1 0 1 0 -1 0 1 1 -1 0 1 0 -1 0 1 0 -1 0 1 1 -1 0 1 0 -1 0 1 0 -1 0 1 1 -1 0 1 0 -1 0 1 0 -1 1 1"/><path stroke="red" d="M618 702l0 -1 0 1 0 -1 0 1 0 -1 1 1 0 -1 0 1 0 -1 0 1 1 -1 1 0 1 0 1 0 1 0 1 0 1 0 1 0 1 0 1 0 1 0 1 0 1 0 1 0 1 0 1 0 1 0 1 0 1 0 1 0 1 0 1 0 1 0 1 0 1 0 1 0 1 0 1 0 1 0 1 0 1 0 1 0 1 0 1 0 1 0 1 0 1 0 1 0 1 0 1 0 1 0 1 0"/><path stroke="red" d="M661 701l1 0 1 0 1 0 1 0 1 0 1 0 1 0 1 0 1 0 1 0 1 0 1 0 1 0 1 0 1 0 1 0 1 0 1 0 1 0 1 0 1 0 1 0 1 0 1 0 1 0 1 0 1 0 1 0 1 0 1 0 1 0 1 0 1 0 1 0 1 0 1 0 1 0 1 0 1 0 1 0 1 0 1 0 1 0 1 0 1 0 0 -22 1 0 0 -2 0 -3 0 -2 0 -4 0 -2"/><path stroke="red" d="M707 666l1 -4 0 -2 0 -4 0 -2 0 -4 0 -2 1 -3 0 -2 0 -4 0 -2 0 -4 1 -2 0 -3 0 -2 0 -4 0 -2 0 -3 1 -2 0 -4 0 -1 0 -4 0 -2 1 -3 0 -2 0 -3 0 -2 0 -4 0 -1 1 -4 0 -1 0 -4 0 -1 0 -4 1 -1 0 -4 0 -1 0 -4 0 -1 0 -4 1 -1 0 -3 0 -2 0 -3"/><path stroke="red" d="M715 551l0 -2 0 -3 1 -1 0 -4 0 -1 0 -3 0 -2 1 -3 0 -1 0 -3 0 -2 0 -3 0 -1 1 -3 0 -2 0 -3 0 -1 0 -3 1 -1 0 -4 0 -1 0 -3 0 -1 0 -3 1 -1 0 -3 0 -1 0 -3 0 -1 1 -4 0 -1 0 -3 0 -1 0 -3 0 -1 1 -3 0 -1 0 -3 0 -1 0 -3 1 0 0 -3 0 -1"/><path stroke="red" d="M723 460l0 -3 0 -1 0 -3 1 -1 0 -3 0 -1 0 -3 0 -3 1 -1 0 -3 0 -1 0 -3 1 -3 0 -1 0 -3 0 -3 0 -1 1 -3 0 -3 0 -1 0 -3 1 0 0 -3 0 -1 0 -2 0 -1 0 -3 1 0 0 -3 0 -1 0 -2 0 -1 1 -3 0 -3 0 -3 1 -3 0 -3 0 -3 1 -1 0 -2 0 -1 0 -2 0 -1"/><path stroke="red" d="M732 371l0 -2 1 -1 0 -2 0 -3 0 -3 1 0 0 -3 0 -3 1 -2 0 -1 0 -2 0 -3 1 -3 0 -2 0 -1 0 -2 1 0 0 -3 0 -2 0 -3 1 0 0 -3 0 -2 1 -3 0 -2 0 -3 1 -2 0 -2 0 -3 1 0 0 -2 0 -3 0 1 0 -3 1 0 0 -2 0 -3 0 1 0 -3 1 0 0 -2 0 -2 1 -2 0 -3"/><path stroke="red" d="M744 287l0 1 0 -3 1 -2 0 -2 0 -2 1 0 0 -2 0 -2 0 -2 1 0 0 -2 0 -2 1 -2 0 -2 0 -2 1 -2 0 -2 0 1 0 -3 1 1 0 -3 0 1 0 -2 0 -2 1 0 0 -2 0 -2 0 1 0 -3 1 1 0 -2 0 -2 1 -2 0 1 0 -3 0 1 0 -2 1 -2 0 1 0 -3 0 1 0 -2 1 0 0 -2 0 1 0 -2"/><path stroke="red" d="M755 230l0 -2 1 1 0 -3 0 1 0 -2 0 1 1 -3 0 1 0 -2 0 -2 0 1 1 -2 0 1 0 -3 0 1 0 -2 1 1 0 -3 0 1 0 -2 0 1 0 -2 1 0 0 -2 0 1 0 -2 0 1 0 -3 1 1 0 -2 0 1 0 -2 1 -2 0 1 0 -2 0 1 0 -2 1 -2 0 1 0 -2 0 1 0 -2 1 1 0 -2 0 -2 0 1 0 -2"/><path stroke="red" d="M764 193l1 1 0 -2 0 1 0 -2 1 -2 0 1 0 -2 0 1 0 -2 0 1 1 -2 0 1 0 -2 0 1 0 -2 1 0 0 -2 0 1 0 -2 0 1 0 -2 1 1 0 -2 0 1 0 -2 0 1 0 -2 1 1 0 -2 0 1 0 -2 0 1 1 -2 0 1 0 -2 0 1 0 -2 0 1 1 -2 0 1 0 -2 0 1 0 -2 1 1 0 -2 0 1 0 -2"/><path stroke="red" d="M773 167l0 1 0 -2 1 1 0 -2 0 1 0 -2 0 1 1 -2 0 1 0 -2 0 1 0 -2 0 1 1 -2 0 1 0 -2 0 1 0 -2 1 1 0 -2 0 1 0 -2 0 2 0 -2 1 1 0 -2 0 1 0 -2 0 1 0 -2 1 1 0 -2 0 1 0 -2 0 2 1 -2 0 1 0 -2 0 1 0 -2 0 1 1 -2 0 1 0 -2 0 2 0 -2 1 1"/><path stroke="red" d="M782 148l0 -2 0 1 0 -2 0 1 0 -2 1 1 0 -2 0 2 0 -2 0 1 1 -2 0 1 0 -2 0 2 0 -2 0 1 1 -2 0 1 0 -2 0 1 0 -2 1 2 0 -2 0 1 0 -2 0 1 0 -2 1 2 0 -2 0 1 0 -2 0 1 0 -2 1 2 0 -2 0 1 0 -2 0 1 1 -2 0 2 0 -2 0 1 0 -2 0 1 1 -2 0 2 0 -2"/><path stroke="red" d="M790 130l0 1 0 -2 1 2 0 -2 0 1 0 -2 0 1 0 -2 1 2 0 -2 0 1 0 -2 0 2 1 -2 0 1 0 -2 0 2 0 -2 0 1 1 -2 0 1 0 -2 0 2 0 -2 1 1 0 -2 0 2 0 -2 0 1 0 -2 1 2 0 -2 0 1 0 -2 0 2 0 -2 1 1 0 -2 0 2 0 -2 0 1 1 -2 0 2 0 -2 0 1 0 -2 0 2"/><path stroke="red" d="M798 119l1 -2 0 1 0 -2 0 2 0 -2 1 1 0 -2 0 2 0 -2 0 1 0 -2 1 2 0 -2 0 1 0 -2 0 2 1 -2 0 1 0 -1 0 1 0 -2 0 2 1 -2 0 1 0 -2 0 2 0 -2 1 1 0 -2 0 2 0 -2 0 1 0 -1 1 1 0 -2 0 2 0 -2 0 1 0 -2 1 2 0 -2 0 1 0 -2 0 2 1 -2 0 2 0 -2"/><path stroke="red" d="M807 107l0 1 0 -2 0 2 1 -2 0 2 0 -2 0 1 0 -2 1 2 0 -2 0 1 0 -2 0 2 0 -2 1 2 0 -2 0 1 0 -2 0 2 1 -2 0 2 0 -2 0 1 0 -2 0 2 1 -2 0 2 0 -2 0 1 0 -2 1 2 0 -2 0 2 0 -2 0 1 0 -2 1 2 0 -2 0 2 0 -2 0 1 0 -2 1 2 0 -2 0 2 0 -2 0 1"/><path stroke="red" d="M815 100l1 -2 0 2 0 -2 0 2 0 -2 0 1 1 -1 0 1 0 -2 0 2 0 -2 1 2 0 -2 0 1 0 -2 0 2 0 -2 1 2 0 -2 0 1 0 -2 0 2 1 -2 0 2 0 -2 0 2 0 -2 0 1 1 -2 0 2 0 -2 0 2 0 -2 1 2 0 -2 0 1 0 -2 0 2 0 -2 1 2 0 -2 0 2 0 -2 0 1 0 -2 1 2 0 -2"/><path stroke="red" d="M824 92l0 2 0 -2 0 2 1 -2 0 1 0 -2 0 2 0 -2 0 2 1 -2 0 2 0 -2 0 1 0 -2 1 2 0 -2 0 2 0 -2 0 2 0 -2 1 1 0 -1 0 1 0 -2 0 2 1 -2 0 2 0 -2 0 2 0 -2 0 1 1 -2 0 2 0 -2 0 2 0 -2 1 2 0 -2 0 2 0 -2 0 1 0 -2 1 2 0 -2 0 2 0 -2 0 2 0 -2"/><path stroke="red" d="M832 87l1 2 0 -2 0 1 0 -2 0 2 1 -2 0 2 0 -2 0 2 0 -2 0 2 1 -2 0 2 0 -2 0 1 0 -1 1 1 0 -1 0 1 0 -1 0 2 0 -1 0 1 0 1 0 1 1 1 0 1 0 1 0 2 0 1 0 3 0 2 0 9 0 205 0 372 0 9 0 1 0 1 0 1 0 1 0 1 0 1 0 -1 0 1 0 -1 0 1 0 -1 1 1 0 -1"/><path stroke="red" d="M838 701l0 1 0 -1 0 1 0 -1 1 1 0 -1 0 1 0 -1 0 1 1 -1 0 1 0 -1 0 1 0 -1 0 1 1 -1 0 1 0 -1 0 1 0 -1 1 1 0 -1 0 1 0 -1 0 1 0 -1 1 1 0 -1 0 1 0 -1 0 1 0 -1 1 1 0 -1 0 1 0 -1 0 1 1 -1 0 1 1 0 1 0 1 0 1 0 1 0 1 0 0 -1 1 1 0 -1"/><path stroke="red" d="M852 701l0 1 0 -1 0 1 0 -1 1 1 0 -1 0 1 0 -1 0 1 1 -1 0 1 0 -1 0 1 0 -1 0 1 1 -1 0 1 0 -1 0 1 0 -1 1 1 0 -1 0 1 0 -1 0 1 0 -1 1 1 0 -1 0 1 0 -1 0 1 1 -1 0 1 0 -1 0 1 0 -1 0 1 1 -1 0 1 0 -1 0 1 0 -1 1 1 0 -1 0 1 0 -1 0 1"/><path stroke="red" d="M860 702l0 -1 1 1 0 -1 0 1 0 -1 0 1 0 -1 1 1 0 -1 0 1 0 -1 0 1 1 -1 0 1 0 -1 0 1 0 -1 0 1 1 -1 0 1 0 -1 0 1 0 -1 1 1 0 -1 0 1 0 -1 0 1 0 -1 1 1 0 -1 0 1 0 -1 0 1 1 -1 0 1 0 -1 0 1 0 -1 0 1 1 -1 0 1 0 -1 0 1 0 -1 1 1 0 -1"/><path stroke="red" d="M869 701l0 1 0 -1 0 1 0 -1 1 1 0 -1 0 1 0 -1 0 1 0 -1 1 1 0 -1 0 1 0 -1 0 1 1 -1 0 1 0 -1 0 1 0 -1 0 1 1 -1 0 1 0 -1 0 1 0 -1 1 1 0 -1 0 1 0 -1 0 1 0 -1 1 1 0 -1 0 1 0 -1 0 1 1 -1 0 1 0 -1 0 1 0 -1 0 1 1 -1 0 1 0 -1 0 1"/><path stroke="red" d="M877 702l0 -1 1 1 0 -1 0 1 0 -1 0 1 0 -1 1 1 0 -1 0 1 0 -1 0 1 0 -1 1 1 0 -1 0 1 0 -1 0 1 1 -1 0 1 0 -1 0 1 0 -1 0 1 1 -1 0 1 0 -1 0 1 0 -1 1 1 0 -1 0 1 0 -1 0 1 0 -1 1 1 0 -1 0 1 0 -1 0 1 1 -1 0 1 0 -1 0 1 0 -1 0 1 1 -1"/><path stroke="red" d="M886 701l1 0 1 0 1 0 1 0 1 0 1 0 1 0 1 0 1 0 1 0 1 0 1 0 1 0 1 0 1 0 1 0 1 0 1 0 1 0 1 0 1 0 1 0 1 0 1 0 1 0 1 0 1 0 1 0 1 0 1 0 1 0 1 0 1 0 1 0 1 0 1 0 1 0 1 0 1 0 1 0 1 0 1 0 1 0 1 0 1 0 1 0 1 0 1 0 1 0 1 0 1 0 1 0 1 0"/><path stroke="red" d="M939 701l1 0 1 0 1 0 1 0 1 0 1 0 1 0 1 0 1 0 1 0 1 0 1 0 1 0 1 0 1 0 1 0 1 0 1 0 1 0 1 0 1 0"/></svg>