<svg xmlns="http://www.w3.org/2000/svg" width="100%" height="100%" version="1.1" viewBox="0 0 1024 768" style="fill:none;font:Helvetica"><rect width="1024" height="768" x="0" y="0" fill="#fff" stroke="none"/><text x="358" y="752" fill="#00f" stroke="none" font-size="16">time</text><text x="10" y="16" fill="#00f" stroke="none" font-size="16">tran1: astable multiibrator (set2).</text><path stroke="#00f" stroke-dasharray="1 2" d="M60 704l0 -637"/><text x="35" y="728" fill="#00f" stroke="none" font-size="16">195.0</text><path stroke="#00f" stroke-dasharray="1 2" d="M150 704l0 -637"/><text x="125" y="728" fill="#00f" stroke="none" font-size="16">195.5</text><path stroke="#00f" stroke-dasharray="1 2" d="M240 704l0 -637"/><text x="215" y="728" fill="#00f" stroke="none" font-size="16">196.0</text><path stroke="#00f" stroke-dasharray="1 2" d="M330 704l0 -637"/><text x="305" y="728" fill="#00f" stroke="none" font-size="16">196.5</text><path stroke="#00f" stroke-dasharray="1 2" d="M420 704l0 -637"/><text x="395" y="728" fill="#00f" stroke="none" font-size="16">197.0</text><path stroke="#00f" stroke-dasharray="1 2" d="M510 704l0 -637"/><text x="485" y="728" fill="#00f" stroke="none" font-size="16">197.5</text><path stroke="#00f" stroke-dasharray="1 2" d="M600 704l0 -637"/><text x="575" y="728" fill="#00f" stroke="none" font-size="16">198.0</text><path stroke="#00f" stroke-dasharray="1 2" d="M690 704l0 -637"/><text x="665" y="728" fill="#00f" stroke="none" font-size="16">198.5</text><path stroke="#00f" stroke-dasharray="1 2" d="M780 704l0 -637"/><text x="755" y="728" fill="#00f" stroke="none" font-size="16">199.0</text><path stroke="#00f" stroke-dasharray="1 2" d="M870 704l0 -637"/><text x="845" y="728" fill="#00f" stroke="none" font-size="16">199.5</text><path stroke="#00f" stroke-dasharray="1 2" d="M960 704l0 -637"/><text x="935" y="728" fill="#00f" stroke="none" font-size="16">200.0</text><text x="614" y="752" fill="#00f" stroke="none" font-size="16">ms</text><path stroke="#00f" stroke-dasharray="1 2" d="M60 704l900 0"/><text x="8" y="712" fill="#00f" stroke="none" font-size="16">-12.0</text><path stroke="#00f" stroke-dasharray="1 2" d="M60 613l900 0"/><text x="8" y="621" fill="#00f" stroke="none" font-size="16">-10.0</text><path stroke="#00f" stroke-dasharray="1 2" d="M60 522l900 0"/><text x="18" y="530" fill="#00f" stroke="none" font-size="16">-8.0</text><path stroke="#00f" stroke-dasharray="1 2" d="M60 431l900 0"/><text x="18" y="439" fill="#00f" stroke="none" font-size="16">-6.0</text><path stroke="#00f" stroke-dasharray="1 2" d="M60 340l900 0"/><text x="18" y="348" fill="#00f" stroke="none" font-size="16">-4.0</text><path stroke="#00f" stroke-dasharray="1 2" d="M60 249l900 0"/><text x="18" y="257" fill="#00f" stroke="none" font-size="16">-2.0</text><path stroke="#00f" d="M60 158l900 0"/><text x="18" y="166" fill="#00f" stroke="none" font-size="16">-0.0</text><path stroke="#00f" stroke-dasharray="1 2" d="M60 67l900 0"/><text x="28" y="75" fill="#00f" stroke="none" font-size="16">2.0</text><text x="10" y="32" fill="#00f" stroke="none" font-size="16">V</text><path stroke="red" d="M450 23l45 0"/><text x="505" y="32" fill="#00f" stroke="none" font-size="16">b</text><path stroke="red" d="M60 111l0 3 0 -2 1 2 0 -2 0 2 0 -2 0 2 0 -2 1 2 0 -2 0 2 0 -2 0 2 1 -2 0 2 0 -2 0 2 0 -2 0 2 1 -2 0 3 0 -3 0 3 0 -3 1 3 0 -3 0 3 0 -3 0 3 0 -2 1 2 0 -2 0 2 0 -2 0 2 1 -2 0 2 0 -2 0 2 0 -2 0 2 1 -2 0 2 0 -2 0 2 0 -2 0 2 1 -2"/><path stroke="red" d="M69 113l0 2 0 -2 0 3 0 -3 1 3 0 -3 0 3 0 -3 0 3 0 -3 1 3 0 -3 0 3 0 -3 0 3 1 -2 0 2 0 -2 0 2 0 -2 0 2 1 -2 0 2 0 -2 0 2 0 -2 1 2 0 -2 0 2 0 -2 0 2 0 -2 1 2 0 -2 0 2 0 -2 0 2 1 -2 0 3 0 -3 0 3 0 -3 0 3 1 -3 0 3 0 -3 0 3 0 -3"/><path stroke="red" d="M77 114l0 3 1 -3 0 3 0 -3 0 3 0 -3 1 3 0 -2 0 2 0 -2 0 2 0 -2 1 2 0 -2 0 2 0 -2 0 2 1 -2 0 2 0 -2 0 2 0 -2 0 2 1 -2 0 2 0 -2 0 2 0 -2 1 2 0 -2 0 3 0 -3 0 3 0 -3 1 3 0 -3 0 3 0 -3 0 3 1 -3 0 3 0 -3 0 3 0 -3 0 3 1 -3 0 3 0 -3"/><path stroke="red" d="M86 115l0 3 0 -3 0 3 1 -3 0 3 0 -3 0 3 0 -2 1 2 0 -2 0 2 0 -2 0 2 0 -2 1 2 0 -2 0 2 0 -2 0 2 1 -2 0 2 0 -2 0 2 0 -2 0 2 1 -2 0 2 0 -2 0 2 0 -2 1 3 0 -3 0 3 0 -3 0 3 0 -3 1 3 0 -3 0 3 0 -3 0 3 1 -3 0 3 0 -3 0 3 0 -3 0 3 1 -3"/><path stroke="red" d="M95 116l0 3 0 -3 0 3 0 -3 0 3 1 -3 0 3 0 -3 0 3 0 -3 1 3 0 -3 0 3 0 -3 0 3 0 -3 1 3 0 -3 0 3 0 -2 0 2 1 -2 0 2 0 -2 0 2 0 -2 0 2 1 -2 0 2 0 -2 0 2 0 -2 1 2 0 -2 0 2 0 -2 0 2 0 -2 1 2 0 -2 0 2 0 -2 0 3 1 -3 0 3 0 -3 0 3 0 -3"/><path stroke="red" d="M103 117l0 3 1 -3 0 3 0 -3 0 3 0 -3 0 3 1 -3 0 3 0 -3 0 3 0 -3 1 3 0 -3 0 3 0 -3 0 3 0 -3 1 3 0 -3 0 3 0 -3 0 3 1 -3 0 3 0 -3 0 3 0 -3 0 3 1 -3 0 3 0 -3 0 3 0 -3 1 3 0 -3 0 3 0 -3 0 3 0 -3 1 3 0 -3 0 3 0 -3 0 3 1 -3 0 3"/><path stroke="red" d="M112 120l0 -3 0 3 0 -3 0 3 1 -3 0 3 0 -2 0 2 0 -2 0 2 1 -2 0 2 0 -2 0 2 0 -2 1 2 0 -2 0 2 0 -2 0 2 0 -2 1 2 0 -2 0 2 0 -2 0 3 1 -3 0 3 0 -3 0 3 0 -3 0 3 1 -3 0 3 0 -3 0 3 0 -3 1 3 0 -3 0 3 0 -3 0 3 0 -3 1 3 0 -3 0 3 0 -3"/><path stroke="red" d="M120 118l0 3 1 -3 0 3 0 -3 0 3 0 -3 0 3 1 -3 0 3 0 -3 0 3 0 -3 0 3 1 -3 0 3 0 -3 0 3 0 -3 1 3 0 -3 0 3 0 -3 0 3 0 -3 1 3 0 -3 0 3 0 -3 0 3 1 -3 0 3 0 -3 0 3 0 -3 0 3 1 -3 0 3 0 -3 0 3 0 -3 1 3 0 -3 0 3 0 -3 0 3 0 -3 1 3"/><path stroke="red" d="M129 121l0 -3 0 3 0 -3 0 3 1 -3 0 3 0 -3 0 3 0 -3 0 3 1 -3 0 3 0 -3 0 3 0 -3 0 3 1 -3 0 3 0 -3 0 3 0 -3 1 3 0 -3 0 3 0 -3 0 3 0 -3 1 3 0 -3 0 3 0 -3 0 3 1 -3 0 3 0 -3 0 3 0 -3 0 3 1 -3 0 3 0 -2 0 2 0 -2 1 2 0 -2 0 2 0 -2"/><path stroke="red" d="M137 119l0 3 0 -3 1 3 0 -3 0 3 0 -3 0 3 1 -3 0 3 0 -3 0 3 0 -3 0 3 1 -3 0 3 0 -3 0 3 0 -3 0 3 1 -3 0 3 0 -3 0 3 0 -3 1 3 0 -3 0 3 0 -3 0 3 0 -3 1 3 0 -3 0 3 0 -3 0 3 1 -3 0 3 0 -3 0 3 0 -3 0 3 1 -3 0 3 0 -3 0 3 0 -3 1 3"/><path stroke="red" d="M146 122l0 -3 0 3 0 -3 0 3 0 -3 1 3 0 -3 0 3 0 -3 0 3 1 -3 0 3 0 -3 0 3 0 -3 0 3 1 -3 0 3 0 -3 0 3 0 -3 0 3 1 -3 0 3 0 -3 0 3 0 -3 1 3 0 -3 0 3 0 -3 0 3 0 -3 1 3 0 -3 0 3 0 -3 0 3 1 -3 0 3 0 -3 0 3 0 -3 0 3 1 -3 0 3 0 -3"/><path stroke="red" d="M154 119l0 3 0 -3 1 3 0 -3 0 3 0 -3 0 3 0 -3 1 3 0 -3 0 3 0 -3 0 3 1 -3 0 3 0 -3 0 3 0 -3 0 3 1 -3 0 3 0 -3 0 3 0 -3 0 3 1 -3 0 3 0 -3 0 3 0 -3 1 3 0 -3 0 3 0 -3 0 3 0 -3 1 3 0 -3 0 3 0 -3 0 3 1 -3 0 3 0 -3 0 3 0 -3 0 3"/><path stroke="red" d="M162 122l1 -3 0 3 0 -3 0 3 0 -3 1 3 0 -3 0 3 0 -3 0 3 0 -3 1 3 0 -3 0 3 0 -3 0 3 1 -3 0 3 0 -3 0 3 0 -3 0 3 1 -3 0 3 0 -3 0 3 0 -3 0 3 1 -3 0 3 0 -3 0 3 0 -3 1 3 0 -3 0 3 0 -3 0 3 0 -3 1 3 0 -3 0 3 0 -3 0 3 1 -3 0 3 0 -3"/><path stroke="red" d="M171 119l0 3 0 -3 0 3 1 -3 0 3 0 -3 0 3 0 -3 1 3 0 -3 0 3 0 -3 0 3 0 -3 1 3 0 -3 0 3 0 -3 0 3 1 -3 0 3 0 -3 0 3 0 -3 0 3 1 -3 0 3 0 -3 0 3 0 -3 0 3 1 -3 0 3 0 -3 0 3 0 -3 1 3 0 -3 0 3 0 -3 0 3 0 -3 1 3 0 -3 0 3 0 -3 0 3"/><path stroke="red" d="M179 122l1 -3 0 3 0 -3 0 3 0 -3 0 3 1 -3 0 3 0 -3 0 3 0 -3 1 3 0 -3 0 3 0 -3 0 3 0 -3 1 4 0 -4 0 4 0 -4 0 4 1 -4 0 4 0 -4 0 4 0 -4 0 4 1 -4 0 4 0 -4 0 4 0 -4 0 4 1 -3 0 3 0 -3 0 3 0 -3 1 3 0 -3 0 3 0 -1 0 1 0 1 0 1 0 1 0 3"/><path stroke="red" d="M187 129l0 516 0 2 0 1 0 -1 1 0 0 -1 0 -1 0 -1 0 -1 0 -1 1 -1 0 -1 0 -1 0 -1 0 -1 0 -1 1 -1 0 -1 0 -1 0 -1 0 -1 1 -1 0 -1 0 -1 0 -1 0 -1 0 -1 1 -1 0 -1 0 -1 0 -1 0 -1 1 -1 0 -1 0 -1 0 -1 0 -1 0 -1 1 -1 0 -1 0 -1 0 -2 1 0"/><path stroke="red" d="M195 609l0 -2 0 -1 0 -1 0 -1 1 -1 0 -1 0 -1 0 -1 0 -1 1 -1 0 -1 0 -1 0 -1 0 -1 0 -1 1 -1 0 -1 0 -1 0 -2 1 -1 0 -1 0 -1 0 -1 0 -1 1 -1 0 -1 0 -1 0 -1 0 -1 0 -1 1 -1 0 -1 0 -2 1 -1 0 -1 0 -1 0 -1 0 -1 0 -1 1 -1 0 -1 0 -1 0 -1"/><path stroke="red" d="M203 563l0 -1 1 0 0 -1 0 -1 0 -1 0 -1 0 -1 1 -1 0 -1 0 -1 0 -1 0 -1 1 -1 0 -1 0 -1 0 -1 0 -1 1 -1 0 -1 0 -1 0 -1 0 -1 1 -1 0 -1 0 -1 0 -1 0 -1 1 -1 0 -1 0 -1 0 -1 0 -1 1 -1 0 -1 0 -1 0 -1 0 -1 1 -1 0 -1 0 -1 0 -1 0 -1 1 -1"/><path stroke="red" d="M212 521l0 -1 0 -1 0 -1 1 -1 0 -1 0 -1 0 -1 0 -1 0 -1 1 0 0 -1 0 -1 0 -1 0 -1 1 -1 0 -1 0 -1 0 -1 0 -1 1 -1 0 -1 0 -1 0 -1 0 -1 1 -1 0 -1 0 -1 0 -1 0 -1 1 0 0 -1 0 -1 0 -1 0 -1 0 -1 1 0 0 -1 0 -1 0 -1 0 -1 1 -1 0 -1 0 -1"/><path stroke="red" d="M220 481l0 -1 0 -1 1 -1 0 -1 0 -1 0 -1 1 -1 0 -1 0 -1 0 -1 0 -1 1 -1 0 -1 0 -1 0 -1 1 -1 0 -1 0 -1 0 -1 0 -1 1 -1 0 -1 0 -1 0 -1 0 -1 1 -1 0 -1 0 -1 0 -1 1 -1 0 -1 0 -1 0 -1 0 -1 1 -1 0 -1 0 -1 0 -1 1 -1 0 -1 0 -1 0 -1 0 -1"/><path stroke="red" d="M229 438l1 -1 0 -1 0 -1 0 -1 1 -1 0 -1 0 -1 0 -1 0 -1 1 0 0 -1 0 -1 0 -1 1 -1 0 -1 0 -1 0 -1 0 -1 1 -1 0 -1 0 -1 0 -1 0 -1 1 -1 0 -1 0 -1 0 -1 1 0 0 -1 0 -1 0 -1 0 -1 1 -1 0 -1 0 -1 0 -1 1 -1 0 -1 0 -1 0 -1 0 -1 1 -1 0 -1"/><path stroke="red" d="M239 397l0 -1 0 -1 1 0 0 -1 0 -1 0 -1 0 -1 1 -1 0 -1 0 -1 0 -1 1 -1 0 -1 0 -1 0 -1 1 -1 0 -1 0 -1 0 -1 0 -1 1 -1 0 -1 0 -1 1 -1 0 -1 0 -1 0 -1 0 -1 1 -1 0 -1 0 -1 0 -1 1 0 0 -1 0 -1 0 -1 0 -1 1 -1 0 -1 0 -1 0 -1 1 0 0 -1"/><path stroke="red" d="M249 357l0 -1 0 -1 0 -1 1 -1 0 -1 0 -1 1 -1 0 -1 0 -1 0 -1 0 -1 1 0 0 -1 0 -1 0 -1 0 -1 1 -1 0 -1 0 -1 1 -1 0 -1 0 -1 0 -1 0 -1 1 0 0 -1 0 -1 0 -1 1 -1 0 -1 0 -1 0 -1 1 -1 0 -1 0 -1 0 -1 1 0 0 -1 0 -1 0 -1 0 -1 1 -1 0 -1"/><path stroke="red" d="M259 317l0 -1 1 -1 0 -1 0 -1 0 -1 1 -1 0 -1 0 -1 0 -1 1 -1 0 -1 0 -1 0 -1 1 0 0 -1 0 -1 0 -1 0 -1 1 0 0 -1 0 -1 0 -1 1 -1 0 -1 0 -1 0 -1 1 -1 0 -1 0 -1 1 -1 0 -1 0 -1 0 -1 1 -1 0 -1 0 -1 1 -1 0 -1 0 -1 0 -1 1 -1 0 -1 0 -1"/><path stroke="red" d="M270 276l0 -1 1 -1 0 -1 0 -1 1 -1 0 -1 0 -1 0 -1 1 -1 0 -1 0 -1 1 -1 0 -1 0 -1 0 -1 1 -1 0 -1 0 -1 1 -1 0 -1 0 -1 0 -1 1 -1 0 -1 0 -1 1 -1 0 -1 0 -1 0 -1 1 0 0 -1 0 -1 0 -1 1 -1 0 -1 0 -1 1 -1 0 -1 0 -1 0 -1 1 -1 0 -1 0 -1"/><path stroke="red" d="M282 234l1 -1 0 -1 0 -1 0 -1 1 0 0 -1 0 -1 0 -1 1 0 0 -1 0 -1 0 -1 1 -1 0 -1 0 -1 1 -1 0 -1 0 -1 0 -1 1 0 0 -1 0 -1 0 -1 1 -1 0 -1 0 -1 1 -1 0 -1 0 -1 0 -1 1 0 0 -1 0 -1 1 -1 0 -1 0 -1 0 -1 1 0 0 -1 0 -1 0 -1 1 0 0 -1 0 -1"/><path stroke="red" d="M294 196l0 -1 1 -1 0 -1 0 -1 1 0 0 -1 0 -1 0 -1 1 -1 0 -1 0 -1 0 -1 1 0 0 -1 0 -1 1 -1 0 -1 0 -1 0 -1 1 0 0 -1 0 -1 1 -1 0 -1 0 -1 0 -1 1 0 0 -1 0 -1 1 -1 0 -1 0 -1 0 -1 1 0 0 -1 0 -1 1 -1 0 -1 0 -1 0 -1 1 0 0 -1 0 -1 0 -1"/><path stroke="red" d="M306 158l1 0 0 -1 0 -1 1 -1 0 -1 0 -1 1 -1 0 -1 0 -1 1 0 0 -1 0 -1 0 -1 1 -1 0 -1 0 -1 1 0 0 -1 0 -1 0 -1 1 0 0 -1 0 -1 1 -1 0 -1 0 -1 1 -1 0 -1 0 -1 1 -1 0 -1 0 -1 1 -19 0 1 1 0 0 1 0 -1 0 1 0 -1 1 1 0 -1 0 1 0 -1 0 1 1 -1"/><path stroke="red" d="M320 112l0 1 1 0 1 0 1 0 0 1 0 -1 0 1 0 -1 1 1 0 -1 0 1 0 -1 0 1 1 -1 0 1 0 -1 0 1 1 0 1 0 1 0 0 1 1 -1 0 1 0 -1 0 1 0 -1 0 1 1 -1 0 1 0 -1 0 1 0 -1 1 1 0 -1 0 1 0 -1 0 1 1 0 1 0 1 0 0 1 1 -1 0 1 0 -1 0 1 0 -1 1 1 0 -1 0 1"/><path stroke="red" d="M336 116l0 -1 0 1 0 -1 1 1 0 -1 0 1 0 -1 0 1 1 -1 0 1 0 -1 0 1 0 -1 0 1 1 0 1 0 1 0 1 1 0 -1 0 1 0 -1 0 1 1 -1 0 1 0 -1 0 1 0 -1 0 1 1 -1 0 1 0 -1 0 1 0 -1 1 1 0 -1 0 1 0 -1 0 1 0 -1 1 1 0 -1 0 1 0 -1 0 1 1 -1 0 1 0 -1 0 1"/><path stroke="red" d="M347 117l1 0 1 0 1 0 0 1 0 -1 1 1 0 -1 0 1 0 -1 0 1 1 -1 0 1 0 -1 0 1 0 -1 0 1 1 -1 0 1 0 -1 0 1 0 -1 1 1 0 -1 0 1 0 -1 0 1 0 -1 1 1 0 -1 0 1 0 -1 0 1 1 -1 0 1 0 -1 0 1 0 -1 0 1 1 -1 0 1 0 -1 0 1 0 -1 1 1 1 0 1 0 1 0 0 1"/><path stroke="red" d="M361 119l1 -1 0 1 0 -1 0 1 0 -1 1 1 0 -1 0 1 0 -1 0 1 0 -1 1 1 0 -1 0 1 0 -1 0 1 1 -1 0 1 0 -1 0 1 0 -1 0 1 1 -1 0 1 0 -1 0 1 0 -1 1 1 0 -1 0 1 0 -1 0 1 0 -1 1 1 0 -1 0 1 0 -1 0 1 0 -1 1 1 0 -1 0 1 0 -1 0 1 1 -1 0 1 0 -1"/><path stroke="red" d="M370 118l0 1 0 -1 0 1 1 -1 0 1 0 -1 0 1 0 -1 1 1 0 -1 0 1 0 -1 0 1 1 0 1 0 1 0 1 1 0 -1 0 1 0 -1 0 1 0 -1 1 1 0 -1 0 1 0 -1 0 1 0 -1 1 1 0 -1 0 1 0 -1 0 1 1 -1 0 1 0 -1 0 1 0 -1 0 1 1 -1 0 1 0 -1 0 1 0 -1 1 1 0 -1 0 1 0 -1"/><path stroke="red" d="M381 119l0 1 0 -1 1 1 0 -1 0 1 0 -1 0 1 1 -1 0 1 0 -1 0 1 0 -1 0 1 1 -1 0 1 0 -1 0 1 0 -1 1 1 0 -1 0 1 0 -1 0 1 0 -1 1 1 0 -1 0 1 0 -1 0 1 0 -1 1 1 0 -1 0 1 0 -1 0 1 1 -1 0 1 0 -1 0 1 0 -1 0 1 1 -1 0 1 0 -1 0 1 0 -1 1 1"/><path stroke="red" d="M390 120l0 -1 0 1 0 -1 0 1 0 -1 1 1 0 -1 0 1 0 -1 0 1 1 -1 0 1 0 -1 0 1 0 -1 0 1 1 -1 0 1 0 -1 0 1 0 -1 1 1 0 -1 0 1 0 -1 0 1 0 -1 1 1 1 0 1 0 0 1 0 -1 0 1 1 -1 0 1 0 -1 0 1 0 -1 1 1 0 -1 0 1 0 -1 0 1 0 -1 1 1 0 -1 0 1 0 -1"/><path stroke="red" d="M400 120l0 1 1 -1 0 1 0 -1 0 1 0 -1 0 1 1 -1 0 1 0 -1 0 1 0 -1 1 1 0 -1 0 1 0 -1 0 1 0 -1 1 1 0 -1 0 1 0 -1 0 1 0 -1 1 1 0 -1 0 1 0 -1 0 1 1 -1 0 1 0 -1 0 1 0 -1 0 1 1 -1 0 1 0 -1 0 1 0 -1 1 1 0 -1 0 1 0 -1 0 1 0 -1 1 1"/><path stroke="red" d="M409 121l0 -1 0 1 0 -1 0 1 1 -1 0 1 0 -1 0 1 0 -1 0 1 1 -1 0 1 0 -1 0 1 0 -1 1 1 0 -1 0 1 0 -1 0 1 0 -1 1 1 0 -1 0 1 0 -1 0 1 0 -1 1 1 0 -1 0 1 0 -1 0 1 1 -1 0 1 0 -1 0 1 0 -1 0 1 1 -1 0 1 0 -1 0 1 0 -1 1 1 0 -1 0 1 0 -1"/><path stroke="red" d="M417 120l0 1 0 -1 1 1 0 -1 0 1 0 -1 0 1 1 -1 0 1 0 -1 0 1 0 -1 0 1 1 -1 0 1 0 -1 0 1 0 -1 1 1 0 -1 0 1 0 -1 0 1 0 -1 1 1 0 -1 0 1 0 -1 0 1 0 -1 1 1 0 -1 0 1 0 -1 0 1 1 -1 0 1 0 -1 0 1 0 -1 0 1 1 -1 0 1 0 -1 0 1 0 -1 1 1"/><path stroke="red" d="M426 121l0 -1 0 1 0 -1 0 1 0 -1 1 1 0 -1 0 1 0 -1 0 1 1 -1 0 1 0 -1 0 1 0 -1 0 1 1 -1 0 1 0 -1 0 1 0 -1 1 1 0 -1 0 1 0 -1 0 1 0 -1 1 1 0 -1 0 1 0 -1 0 1 0 -1 1 1 0 -1 0 1 0 -1 0 1 1 -1 0 1 0 -1 0 1 0 -1 0 1 1 -1 0 1 0 -1"/><path stroke="red" d="M434 120l0 1 0 -1 1 1 0 -1 0 1 0 -1 0 1 0 -1 1 1 0 -1 0 1 0 -1 0 1 1 -1 0 1 0 -1 0 1 0 -1 0 1 1 -1 0 1 0 -1 0 1 0 -1 1 1 0 -1 0 1 0 -1 0 1 0 -1 1 1 0 -1 0 1 0 -1 0 1 0 -1 1 1 0 -1 0 1 0 -1 0 1 1 -1 0 1 0 -1 0 1 0 -1 0 1"/><path stroke="red" d="M442 121l1 -1 0 1 0 -1 0 1 0 -1 1 1 0 -1 0 1 0 -1 0 2 0 -2 1 2 0 -1 0 1 0 -1 0 1 1 -1 0 1 0 -1 0 1 1 1 0 1 0 2 0 1 0 3 0 326 0 189 0 1 0 1 0 1 0 -1 0 -1 0 -1 0 -1 1 -1 0 -1 0 -1 0 -1 0 -1 1 -1 0 -1 0 -1 0 -1 0 -1 0 -1 1 -1"/><path stroke="red" d="M450 632l0 -1 0 -1 0 -1 0 -1 1 -1 0 -1 0 -1 0 -1 0 -1 0 -1 1 -1 0 -1 0 -1 0 -1 0 -1 1 -1 0 -1 0 -1 0 -1 0 -1 1 -1 0 -1 0 -1 0 -1 0 -1 1 -1 0 -1 0 -1 0 -1 0 -1 0 -1 1 -1 0 -1 0 -1 0 -1 0 -1 0 -1 1 -1 0 -1 0 -1 0 -1 1 -1 0 -1"/><path stroke="red" d="M458 589l0 -1 0 -1 0 -1 0 -1 1 -1 0 -1 0 -1 0 -1 0 -1 1 -1 0 -1 0 -1 0 -1 0 -1 1 -1 0 -1 0 -1 0 -1 0 -1 1 -1 0 -1 0 -1 0 -1 0 -1 0 -1 1 0 0 -1 0 -1 0 -1 0 -1 1 -1 0 -1 0 -1 0 -1 0 -1 0 -1 1 0 0 -1 0 -1 0 -1 0 -1 0 -1 1 -1"/><path stroke="red" d="M466 548l0 -1 0 -1 0 -1 0 -1 1 0 0 -1 0 -1 0 -1 0 -1 0 -1 1 -1 0 -1 0 -1 0 -1 1 -1 0 -1 0 -1 0 -1 0 -1 0 -1 1 -1 0 -1 0 -1 0 -1 1 -1 0 -1 0 -1 0 -1 0 -1 1 -1 0 -1 0 -1 0 -1 0 -1 1 -1 0 -1 0 -1 0 -1 0 -1 1 -1 0 -1 0 -1 0 -1"/><path stroke="red" d="M474 506l0 -1 1 -1 0 -1 0 -1 0 -1 1 -1 0 -1 0 -1 0 -1 0 -1 0 -1 1 -1 0 -1 0 -1 0 -1 1 -1 0 -1 0 -1 0 -1 0 -1 1 -1 0 -1 0 -1 0 -1 1 -1 0 -1 0 -1 0 -1 0 -1 1 -1 0 -1 0 -1 0 -1 1 -1 0 -1 0 -1 0 -1 0 -1 1 -1 0 -1 0 -1 0 -1 0 -1"/><path stroke="red" d="M483 463l1 -1 0 -1 0 -1 0 -1 1 -1 0 -1 0 -1 0 -1 0 -1 1 -1 0 -1 0 -1 0 -1 1 -1 0 -1 0 -1 0 -1 0 -1 1 -1 0 -1 0 -1 0 -1 1 -1 0 -1 0 -1 0 -1 0 -1 1 -1 0 -1 0 -1 0 -1 1 -1 0 -1 0 -1 0 -1 0 -1 1 0 0 -1 0 -1 0 -1 0 -1 1 -1 0 -1"/><path stroke="red" d="M493 421l0 -1 0 -1 1 -1 0 -1 0 -1 0 -1 0 -1 1 -1 0 -1 0 -1 0 -1 1 -1 0 -1 0 -1 0 -1 0 -1 1 0 0 -1 0 -1 0 -1 1 -1 0 -1 0 -1 0 -1 0 -1 1 -1 0 -1 0 -1 0 -1 1 0 0 -1 0 -1 0 -1 0 -1 1 -1 0 -1 0 -1 0 -1 0 -1 1 0 0 -1 0 -1 0 -1"/><path stroke="red" d="M502 381l1 -1 0 -1 0 -1 0 -1 0 -1 1 -1 0 -1 0 -1 0 -1 1 0 0 -1 0 -1 0 -1 0 -1 1 -1 0 -1 0 -1 0 -1 1 0 0 -1 0 -1 0 -1 0 -1 1 -1 0 -1 0 -1 0 -1 1 0 0 -1 0 -1 0 -1 0 -1 1 -1 0 -1 0 -1 0 -1 1 -1 0 -1 0 -1 0 -1 1 0 0 -1 0 -1"/><path stroke="red" d="M512 342l0 -1 0 -1 1 -1 0 -1 0 -1 1 -1 0 -1 0 -1 0 -1 0 -1 1 0 0 -1 0 -1 0 -1 1 -1 0 -1 0 -1 0 -1 1 -1 0 -1 0 -1 0 -1 1 0 0 -1 0 -1 0 -1 0 -1 1 0 0 -1 0 -1 0 -1 0 -1 1 0 0 -1 0 -1 0 -1 1 -1 0 -1 0 -1 0 -1 1 -1 0 -1 0 -1"/><path stroke="red" d="M522 303l0 -1 1 0 0 -1 0 -1 0 -1 0 -1 1 0 0 -1 0 -1 0 -1 1 -1 0 -1 0 -1 0 -1 1 -1 0 -1 0 -1 1 -1 0 -1 0 -1 0 -1 1 -1 0 -1 0 -1 0 -1 1 -1 0 -1 0 -1 1 -1 0 -1 0 -1 0 -1 1 -1 0 -1 0 -1 1 -1 0 -1 0 -1 0 -1 1 -1 0 -1 0 -1 1 -1"/><path stroke="red" d="M534 262l0 -1 0 -1 0 -1 1 -1 0 -1 0 -1 1 -1 0 -1 0 -1 0 -1 1 0 0 -1 0 -1 0 -1 1 -1 0 -1 0 -1 1 -1 0 -1 0 -1 0 -1 1 -1 0 -1 0 -1 1 -1 0 -1 0 -1 0 -1 1 0 0 -1 0 -1 0 -1 1 0 0 -1 0 -1 0 -1 1 -1 0 -1 0 -1 1 -1 0 -1 0 -1 0 -1"/><path stroke="red" d="M545 222l1 0 0 -1 0 -1 0 -1 1 -1 0 -1 0 -1 1 -1 0 -1 0 -1 0 -1 1 0 0 -1 0 -1 0 -1 1 0 0 -1 0 -1 0 -1 1 -1 0 -1 0 -1 1 -1 0 -1 0 -1 1 -1 0 -1 0 -1 1 -1 0 -1 0 -1 0 -1 1 0 0 -1 0 -1 0 -1 1 -1 0 -1 0 -1 1 0 0 -1 0 -1 0 -1 1 -1"/><path stroke="red" d="M558 183l0 -1 0 -1 1 0 0 -1 0 -1 0 -1 1 -1 0 -1 0 -1 1 -1 0 -1 0 -1 1 -1 0 -1 0 -1 1 0 0 -1 0 -1 0 -1 1 -1 0 -1 0 -1 1 -1 0 -1 0 -1 1 -1 0 -1 0 -1 1 -1 0 -1 0 -1 1 0 0 -1 0 -1 0 -1 1 0 0 -1 0 -1 1 -1 0 -1 0 -1 0 -1 1 0 0 -1"/><path stroke="red" d="M571 144l0 -1 1 -1 0 -1 0 -1 1 -1 0 -1 0 -1 1 -1 0 -1 0 -1 1 0 0 -1 0 -1 0 -1 1 0 0 -1 0 -1 0 -1 1 0 0 -1 0 -1 0 -1 0 -20 0 -3 0 7 0 -3 0 4 0 -2 0 3 0 -1 0 1 0 -1 0 1 0 1 0 -1 0 1 1 0 1 1 0 -1 0 1 0 -1 0 1 0 -1 1 1 0 -1"/><path stroke="red" d="M580 112l0 1 1 0 1 0 1 0 1 1 0 -1 0 1 0 -1 0 1 0 -1 1 1 1 0 1 0 1 0 1 0 1 1 0 -1 0 1 0 -1 0 1 1 0 1 0 1 0 1 0 1 0 1 0 1 1 0 -1 0 1 1 0 1 0 1 0 1 0 1 0 1 0 1 0 0 1 0 -1 1 1 1 0 1 0 1 0 1 0 1 0 1 0 1 0 1 0 0 1 0 -1 1 1 0 -1"/><path stroke="red" d="M614 117l0 1 0 -1 0 1 1 -1 0 1 0 -1 0 1 1 0 1 0 1 0 1 0 1 0 1 0 1 0 1 0 1 0 0 1 1 -1 0 1 0 -1 0 1 0 -1 0 1 1 -1 0 1 0 -1 0 1 0 -1 1 1 0 -1 0 1 0 -1 0 1 0 -1 1 1 0 -1 0 1 0 -1 0 1 1 -1 0 1 0 -1 0 1 1 0 1 0 1 0 1 0 1 0 1 0"/><path stroke="red" d="M635 119l1 0 1 0 1 0 1 0 0 1 0 -1 1 1 0 -1 0 1 0 -1 0 1 0 -1 1 1 0 -1 0 1 0 -1 0 1 1 -1 0 1 0 -1 0 1 0 -1 0 1 1 -1 0 1 0 -1 0 1 0 -1 0 1 1 -1 0 1 0 -1 0 1 0 -1 1 1 0 -1 0 1 0 -1 0 1 0 -1 1 1 0 -1 0 1 0 -1 0 1 1 -1 0 1 0 -1"/><path stroke="red" d="M647 119l0 1 0 -1 0 1 1 -1 0 1 0 -1 0 1 0 -1 1 1 0 -1 0 1 0 -1 0 1 0 -1 1 1 0 -1 0 1 0 -1 0 1 1 0 1 0 1 0 1 0 1 0 1 0 1 0 1 0 1 0 1 0 1 0 0 1 1 -1 0 1 0 -1 0 1 0 -1 1 1 0 -1 0 1 0 -1 0 1 0 -1 1 1 0 -1 0 1 0 -1 0 1 1 -1 0 1"/><path stroke="red" d="M665 121l0 -1 0 1 0 -1 0 1 1 -1 0 1 0 -1 0 1 0 -1 1 1 0 -1 0 1 0 -1 0 1 0 -1 1 1 0 -1 0 1 0 -1 0 1 1 -1 0 1 0 -1 0 1 0 -1 0 1 1 -1 0 1 0 -1 0 1 0 -1 0 1 1 -1 0 1 0 -1 0 1 0 -1 1 1 0 -1 0 1 0 -1 0 1 0 -1 1 1 0 -1 0 1 0 -1"/><path stroke="red" d="M673 120l0 1 1 -1 0 1 0 -1 0 1 0 -1 0 1 1 -1 0 1 0 -1 0 1 0 -1 1 1 0 -1 0 1 0 -1 0 1 0 -1 1 1 0 -1 0 1 0 -1 0 1 1 -1 0 1 0 -1 0 1 0 -1 0 1 1 -1 0 1 0 -1 0 1 0 -1 0 1 1 -1 0 1 0 -1 0 1 0 -1 1 1 0 -1 0 1 0 -1 0 1 0 -1 1 1"/><path stroke="red" d="M682 121l0 -1 0 1 0 -1 0 1 1 -1 0 1 0 -1 0 1 0 -1 0 1 1 -1 0 1 0 -1 0 1 0 -1 1 1 0 -1 0 1 0 -1 0 1 0 -1 1 1 0 -1 0 1 0 -1 0 1 1 -1 0 1 0 -1 0 1 0 -1 0 1 1 -1 0 1 0 -1 0 1 0 -1 0 1 1 -1 0 1 0 -1 0 1 0 -1 1 1 0 -1 0 1 0 -1"/><path stroke="red" d="M690 120l0 1 0 -1 1 1 0 -1 0 1 0 -1 0 1 1 -1 0 1 0 -1 0 1 0 -1 0 1 1 -1 0 1 0 -1 0 1 0 -1 1 1 0 -1 0 1 0 -1 0 1 0 -1 1 1 0 -1 0 1 0 -1 0 1 1 -1 0 1 0 -1 0 1 0 -1 0 1 1 -1 0 1 0 -1 0 1 0 -1 0 1 1 -1 0 1 0 -1 0 1 0 -1 1 1"/><path stroke="red" d="M699 121l0 -1 0 1 0 -1 0 1 0 -1 1 1 0 -1 0 1 0 -1 0 1 1 -1 0 1 1 0 1 0 1 0 1 0 1 0 0 1 0 526 1 0 0 -1 0 -1 0 -1 0 -1 0 -1 1 -1 0 -2 0 -2 1 -2 0 -2 0 -2 1 0 0 -2 0 -1 0 -1 0 -1 1 -1 0 -1 0 -1 0 -1 0 -1 1 -1 0 -1 0 -1 0 -1"/><path stroke="red" d="M712 618l0 -1 0 -1 1 -1 0 -1 0 -1 0 -1 0 -1 1 -1 0 -1 0 -1 0 -1 0 -1 0 -1 1 -1 0 -1 0 -2 0 -1 1 -1 0 -1 0 -1 0 -1 0 -1 1 -1 0 -1 0 -1 0 -1 0 -1 0 -1 1 -1 0 -1 0 -1 0 -1 0 -1 1 0 0 -1 0 -1 0 -1 0 -1 0 -1 1 -1 0 -1 0 -1 0 -1"/><path stroke="red" d="M720 575l0 -1 1 -1 0 -1 0 -1 0 -2 1 -1 0 -1 0 -1 0 -1 0 -1 1 -1 0 -1 0 -1 0 -1 0 -2 1 0 0 -1 0 -1 0 -1 0 -1 0 -1 1 -1 0 -1 0 -1 0 -1 1 -1 0 -1 0 -1 0 -1 0 -1 0 -1 1 -1 0 -1 0 -1 0 -1 1 -1 0 -1 0 -1 0 -1 0 -1 0 -1 1 -1 0 -1"/><path stroke="red" d="M729 531l0 -1 0 -1 1 -1 0 -1 0 -1 0 -1 0 -1 1 -1 0 -1 0 -1 0 -1 0 -1 1 -1 0 -1 0 -1 0 -1 0 -1 1 -1 0 -1 0 -1 0 -1 0 -1 1 -1 0 -1 0 -1 0 -1 0 -1 1 -1 0 -1 0 -1 0 -1 0 -1 1 -1 0 -1 0 -1 0 -1 1 -1 0 -1 0 -1 0 -1 0 -1 1 -1 0 -1"/><path stroke="red" d="M738 488l0 -1 0 -1 1 -1 0 -1 0 -1 0 -1 0 -1 1 -1 0 -1 0 -1 0 -1 0 -1 1 0 0 -1 0 -1 0 -1 0 -1 0 -1 1 0 0 -1 0 -1 0 -1 0 -1 0 -1 1 0 0 -1 0 -1 0 -1 0 -1 1 -1 0 -1 0 -1 0 -1 0 -1 1 0 0 -1 0 -1 0 -1 0 -1 1 0 0 -1 0 -1 0 -1 0 -1"/><path stroke="red" d="M746 449l0 -1 1 0 0 -1 0 -1 0 -1 0 -1 1 0 0 -1 0 -1 0 -1 0 -1 1 -1 0 -1 0 -1 0 -1 1 -1 0 -1 0 -1 0 -1 0 -1 1 -1 0 -1 0 -1 0 -1 0 -1 1 -1 0 -1 0 -1 0 -1 1 -1 0 -1 0 -1 0 -1 1 -1 0 -1 0 -1 0 -1 1 -1 0 -1 0 -1 0 -1 0 -1 1 -1"/><path stroke="red" d="M756 408l0 -1 0 -1 0 -1 1 -1 0 -1 0 -1 0 -1 1 -1 0 -1 0 -1 0 -1 1 -1 0 -1 0 -1 0 -1 0 -1 1 0 0 -1 0 -1 0 -1 0 -1 1 -1 0 -1 0 -1 0 -1 1 -1 0 -1 0 -1 0 -1 1 -1 0 -1 0 -1 0 -1 1 -1 0 -1 0 -1 0 -1 0 -1 1 0 0 -1 0 -1 0 -1 1 -1"/><path stroke="red" d="M766 367l0 -1 0 -1 0 -1 0 -1 1 0 0 -1 0 -1 0 -1 1 -1 0 -1 0 -1 0 -1 0 -1 1 0 0 -1 0 -1 0 -1 0 -1 1 -1 0 -1 0 -1 1 -1 0 -1 0 -1 0 -1 0 -1 1 0 0 -1 0 -1 0 -1 1 -1 0 -1 0 -1 0 -1 1 -1 0 -1 0 -1 0 -1 1 -1 0 -1 0 -1 0 -1 1 -1"/><path stroke="red" d="M776 327l0 -1 0 -1 0 -1 1 0 0 -1 0 -1 0 -1 0 -1 1 0 0 -1 0 -1 0 -1 0 -1 1 0 0 -1 0 -1 0 -1 1 -1 0 -1 0 -1 0 -1 1 -1 0 -1 0 -1 0 -1 1 0 0 -1 0 -1 0 -1 0 -1 1 0 0 -1 0 -1 0 -1 1 -1 0 -1 0 -1 0 -1 1 -1 0 -1 0 -1 1 -1 0 -1 0 -1"/><path stroke="red" d="M786 288l0 -1 1 -1 0 -1 0 -1 0 -1 1 -1 0 -1 0 -1 1 -1 0 -1 0 -1 0 -1 1 -1 0 -1 0 -1 1 -1 0 -1 0 -1 0 -1 1 -1 0 -1 0 -1 1 -1 0 -1 0 -1 0 -1 1 -1 0 -1 0 -1 1 -1 0 -1 0 -1 0 -1 1 -1 0 -1 0 -1 0 -1 1 0 0 -1 0 -1 0 -1 1 0 0 -1"/><path stroke="red" d="M798 247l0 -1 0 -1 1 -1 0 -1 0 -1 1 -1 0 -1 0 -1 0 -1 1 -1 0 -1 0 -1 1 -1 0 -1 0 -1 0 -1 1 0 0 -1 0 -1 0 -1 1 0 0 -1 0 -1 0 -1 1 -1 0 -1 0 -1 0 -1 1 0 0 -1 0 -1 0 -1 1 0 0 -1 0 -1 0 -1 1 -1 0 -1 0 -1 1 -1 0 -1 0 -1 0 -1"/><path stroke="red" d="M809 208l1 0 0 -1 0 -1 1 -1 0 -1 0 -1 0 -1 1 -1 0 -1 0 -1 1 0 0 -1 0 -1 0 -1 1 -1 0 -1 0 -1 0 -1 1 0 0 -1 0 -1 1 -1 0 -1 0 -1 0 -1 1 0 0 -1 0 -1 1 -1 0 -1 0 -1 0 -1 1 0 0 -1 0 -1 1 -1 0 -1 0 -1 0 -1 1 0 0 -1 0 -1 1 -1 0 -1"/><path stroke="red" d="M822 170l0 -1 0 -1 1 0 0 -1 0 -1 0 -1 1 0 0 -1 0 -1 0 -1 1 0 0 -1 0 -1 0 -1 1 0 0 -1 0 -1 1 -1 0 -1 0 -1 0 -1 1 0 0 -1 0 -1 1 -1 0 -1 0 -1 1 -1 0 -1 0 -1 1 0 0 -1 0 -1 0 -1 1 0 0 -1 0 -1 0 -1 1 0 0 -1 0 -1 0 -1 1 0 0 -1"/><path stroke="red" d="M834 135l0 -1 0 -1 1 0 0 -1 0 -1 1 -1 0 -1 0 -1 0 -1 1 0 0 -1 0 -1 0 -2 0 -23 0 8 0 -19 0 18 0 -9 0 10 0 -6 0 8 0 -5 0 7 0 -4 0 5 0 -3 0 4 0 -4 0 4 0 -4 0 4 0 -4 1 4 0 -4 0 4 0 -4 0 4 0 -4 1 4 0 -3 0 3 0 -3 0 4 1 -4 0 4"/><path stroke="red" d="M840 115l0 -4 0 4 0 -4 0 4 1 -4 0 4 0 -4 0 4 0 -4 1 4 0 -4 0 4 0 -4 0 4 0 -4 1 4 0 -4 0 4 0 -4 0 4 0 -4 1 4 0 -3 0 3 0 -3 0 4 1 -4 0 4 0 -4 0 4 0 -4 0 4 1 -4 0 4 0 -4 0 4 0 -4 1 4 0 -4 0 4 0 -4 0 4 0 -4 1 4 0 -4 0 4 0 -4"/><path stroke="red" d="M848 112l0 4 1 -4 0 4 0 -4 0 4 0 -4 0 4 1 -4 0 5 0 -4 0 4 0 -4 1 4 0 -4 0 4 0 -4 0 4 0 -4 1 4 0 -4 0 4 0 -4 0 4 0 -4 1 4 0 -4 0 4 0 -4 0 4 1 -4 0 4 0 -4 0 4 0 -4 0 4 1 -4 0 4 0 -4 0 4 0 -4 1 4 0 -4 0 4 0 -4 0 5 0 -5 1 5"/><path stroke="red" d="M857 118l0 -4 0 4 0 -4 0 4 1 -4 0 4 0 -4 0 4 0 -4 0 4 1 -4 0 4 0 -4 0 4 0 -4 1 4 0 -4 0 4 0 -4 0 4 0 -4 1 4 0 -4 0 4 0 -4 0 4 0 -4 1 4 0 -4 0 4 0 -4 0 4 1 -4 0 4 0 -4 0 4 0 -4 0 4 1 -4 0 5 0 -5 0 5 0 -5 1 5 0 -5 0 5 0 -5"/><path stroke="red" d="M865 114l0 5 0 -4 1 4 0 -4 0 4 0 -4 0 4 1 -4 0 4 0 -4 0 4 0 -4 0 4 1 -4 0 4 0 -4 0 4 0 -4 1 4 0 -4 0 4 0 -4 0 4 0 -4 1 4 0 -4 0 4 0 -4 0 4 0 -4 1 4 0 -4 0 4 0 -4 0 4 1 -4 0 4 0 -4 0 4 0 -4 0 5 1 -5 0 5 0 -5 0 5 0 -5 1 5"/><path stroke="red" d="M874 120l0 -5 0 5 0 -5 0 5 0 -5 1 5 0 -5 0 5 0 -5 0 5 1 -5 0 5 0 -4 0 4 0 -4 0 4 1 -4 0 4 0 -4 0 4 0 -4 1 4 0 -4 0 4 0 -4 0 4 0 -4 1 4 0 -4 0 4 0 -4 0 4 0 -4 1 4 0 -4 0 4 0 -4 0 4 1 -4 0 4 0 -4 0 4 0 -4 0 4 1 -4 0 4 0 -4"/><path stroke="red" d="M882 116l0 4 0 -4 1 4 0 -4 0 4 0 -4 0 4 0 -4 1 5 0 -5 0 5 0 -5 0 5 1 -5 0 5 0 -5 0 5 0 -5 0 5 1 -5 0 5 0 -5 0 5 0 -5 1 5 0 -5 0 5 0 -5 0 5 0 -5 1 5 0 -5 0 5 0 -5 0 5 0 -5 1 5 0 -5 0 5 0 -5 0 5 1 -5 0 5 0 -4 0 4 0 -4 0 4"/><path stroke="red" d="M890 121l1 -4 0 4 0 -4 0 4 0 -4 1 4 0 -4 0 4 0 -4 0 4 0 -4 1 4 0 -4 0 4 0 -4 0 4 1 -4 0 4 0 -4 0 4 0 -4 0 4 1 -4 0 4 0 -4 0 4 0 -4 1 4 0 -4 0 4 0 -4 0 4 0 -4 1 4 0 -4 0 4 0 -4 0 4 0 -4 1 4 0 -4 0 5 0 -5 0 5 1 -5 0 5 0 -5"/><path stroke="red" d="M899 117l0 5 0 -5 0 5 1 -5 0 5 0 -5 0 5 0 -5 1 5 0 -5 0 5 0 -5 0 5 0 -5 1 5 0 -5 0 5 0 -5 0 5 1 -5 0 5 0 -5 0 5 0 -5 0 5 1 -5 0 5 0 -5 0 5 0 -5 1 5 0 -5 0 5 0 -5 0 5 0 -5 1 5 0 -5 0 5 0 -5 0 5 0 -5 1 5 0 -5 0 5 0 -5 0 5"/><path stroke="red" d="M907 122l1 -5 0 5 0 -5 0 5 0 -5 0 5 1 -5 0 5 0 -5 0 5 0 -5 1 5 0 -5 0 5 0 -5 0 5 0 -5 1 5 0 -5 0 5 0 -5 0 5 1 -5 0 5 0 -4 0 4 0 -4 0 4 1 -4 0 4 0 -4 0 4 0 -4 1 4 0 -4 0 4 0 -4 0 4 0 -4 1 4 0 -4 0 4 0 -4 0 4 0 -4 1 4 0 -4"/><path stroke="red" d="M916 118l0 4 0 -4 0 4 1 -4 0 4 0 -4 0 4 0 -4 0 4 1 -4 0 4 0 -4 0 4 0 -4 1 4 0 -4 0 4 0 -4 0 4 0 -4 1 4 0 -4 0 4 0 -4 0 5 1 -5 0 5 0 -5 0 5 0 -5 0 5 1 -5 0 5 0 -5 0 5 0 -5 1 5 0 -5 0 5 0 -5 0 5 0 -5 1 5 0 -5 0 5 0 -5 0 5"/><path stroke="red" d="M924 123l0 -5 1 5 0 -5 0 5 0 -5 0 5 1 -5 0 5 0 -5 0 5 0 -5 0 5 1 -5 0 5 0 -5 0 5 0 -5 1 5 0 -5 0 5 0 -5 0 5 0 -5 1 5 0 -5 0 5 0 -5 0 5 1 -5 0 5 0 -5 0 5 0 -5 0 5 1 -5 0 5 0 -5 0 5 0 -5 1 5 0 -5 0 5 0 -5 0 5 0 -5 1 5 0 -5"/><path stroke="red" d="M933 118l0 5 0 -5 0 5 0 -5 1 5 0 -5 0 5 0 -5 0 5 1 -5 0 5 0 -5 0 5 0 -5 0 5 1 -5 0 5 0 -5 0 5 0 -5 1 5 0 -5 0 5 0 -5 0 5 0 -5 1 5 0 -5 0 5 0 -5 0 5 1 -5 0 5 0 -5 0 5 0 -5 0 5 1 -5 0 5 0 -5 0 5 0 -5 1 5 0 -5 0 5 0 -5 0 5"/><path stroke="red" d="M941 123l0 -5 1 5 0 -5 0 5 0 -5 0 5 0 -5 1 5 0 -5 0 5 0 -5 0 5 1 -5 0 5 0 -5 0 5 0 -5 0 5 1 -5 0 5 0 -5 0 5 0 -5 1 5 0 -5 0 5 0 -5 0 5 0 -5 1 5 0 -5 0 5 0 -5 0 5 1 -5 0 5 0 -5 0 5 0 -5 0 5 1 -5 0 5 0 -5 0 5 0 -5 1 5 0 -5"/><path stroke="red" d="M950 118l0 5 0 -5 0 5 0 -5 1 5 0 -5 0 5 0 -5 0 5 0 -5 1 5 0 -5 0 5 0 -5 0 5 1 -5 0 5 0 -5 0 5 0 -5 0 5 1 -5 0 5 0 -5 0 5 0 -5 1 5 0 -5 0 5 0 -5 0 5 0 -5 1 5 0 -5 0 5 0 -5 0 5 1 -5 0 5 0 -5 0 5 0 -5 0 5 1 -5 0 5 0 -5 0 5"/><path stroke="red" d="M958 123l0 -5 1 5 0 -5 0 5 0 -4 0 4 0 -4 1 4 0 -4 0 4 0 -4"/></svg>