<svg xmlns="http://www.w3.org/2000/svg" width="100%" height="100%" version="1.1" viewBox="0 0 1024 768" style="fill:none;font:Helvetica"><rect width="1024" height="768" x="0" y="0" fill="#fff" stroke="none"/><text x="358" y="752" fill="#00f" stroke="none" font-size="16">time</text><text x="10" y="16" fill="#00f" stroke="none" font-size="16">tran1: astable multiibrator (set1).</text><path stroke="#00f" stroke-dasharray="1 2" d="M60 704l0 -637"/><text x="35" y="728" fill="#00f" stroke="none" font-size="16">198.0</text><path stroke="#00f" stroke-dasharray="1 2" d="M150 704l0 -637"/><text x="125" y="728" fill="#00f" stroke="none" font-size="16">198.2</text><path stroke="#00f" stroke-dasharray="1 2" d="M240 704l0 -637"/><text x="215" y="728" fill="#00f" stroke="none" font-size="16">198.4</text><path stroke="#00f" stroke-dasharray="1 2" d="M330 704l0 -637"/><text x="305" y="728" fill="#00f" stroke="none" font-size="16">198.6</text><path stroke="#00f" stroke-dasharray="1 2" d="M420 704l0 -637"/><text x="395" y="728" fill="#00f" stroke="none" font-size="16">198.8</text><path stroke="#00f" stroke-dasharray="1 2" d="M510 704l0 -637"/><text x="485" y="728" fill="#00f" stroke="none" font-size="16">199.0</text><path stroke="#00f" stroke-dasharray="1 2" d="M600 704l0 -637"/><text x="575" y="728" fill="#00f" stroke="none" font-size="16">199.2</text><path stroke="#00f" stroke-dasharray="1 2" d="M690 704l0 -637"/><text x="665" y="728" fill="#00f" stroke="none" font-size="16">199.4</text><path stroke="#00f" stroke-dasharray="1 2" d="M780 704l0 -637"/><text x="755" y="728" fill="#00f" stroke="none" font-size="16">199.6</text><path stroke="#00f" stroke-dasharray="1 2" d="M870 704l0 -637"/><text x="845" y="728" fill="#00f" stroke="none" font-size="16">199.8</text><path stroke="#00f" stroke-dasharray="1 2" d="M960 704l0 -637"/><text x="935" y="728" fill="#00f" stroke="none" font-size="16">200.0</text><text x="614" y="752" fill="#00f" stroke="none" font-size="16">ms</text><path stroke="#00f" stroke-dasharray="1 2" d="M60 704l900 0"/><text x="8" y="712" fill="#00f" stroke="none" font-size="16">-12.0</text><path stroke="#00f" stroke-dasharray="1 2" d="M60 613l900 0"/><text x="8" y="621" fill="#00f" stroke="none" font-size="16">-10.0</text><path stroke="#00f" stroke-dasharray="1 2" d="M60 522l900 0"/><text x="18" y="530" fill="#00f" stroke="none" font-size="16">-8.0</text><path stroke="#00f" stroke-dasharray="1 2" d="M60 431l900 0"/><text x="18" y="439" fill="#00f" stroke="none" font-size="16">-6.0</text><path stroke="#00f" stroke-dasharray="1 2" d="M60 340l900 0"/><text x="18" y="348" fill="#00f" stroke="none" font-size="16">-4.0</text><path stroke="#00f" stroke-dasharray="1 2" d="M60 249l900 0"/><text x="18" y="257" fill="#00f" stroke="none" font-size="16">-2.0</text><path stroke="#00f" d="M60 158l900 0"/><text x="18" y="166" fill="#00f" stroke="none" font-size="16">-0.0</text><path stroke="#00f" stroke-dasharray="1 2" d="M60 67l900 0"/><text x="28" y="75" fill="#00f" stroke="none" font-size="16">2.0</text><text x="10" y="32" fill="#00f" stroke="none" font-size="16">V</text><path stroke="red" d="M450 23l45 0"/><text x="505" y="32" fill="#00f" stroke="none" font-size="16">b</text><path stroke="red" d="M60 635l1 -3 0 -3 1 -2 0 -3 1 -3 0 -3 0 -3 1 -2 0 -3 1 -3 0 -3 1 -2 0 -3 1 -3 0 -3 1 -2 0 -3 0 -3 1 -3 0 -2 1 -3 0 -3 1 -2 0 -3 1 -3 0 -2 0 -3 1 -3 0 -2 1 -3 0 -3 1 -2 0 -3 1 -2 0 -3 1 -2 0 -3 0 -3 1 -2 0 -3 1 -2 0 -3 1 -2"/><path stroke="red" d="M80 520l0 -3 1 -2 0 -3 0 -2 1 -3 0 -2 1 -3 0 -2 1 -3 0 -2 1 -3 0 -2 1 -3 0 -2 0 -3 1 -2 0 -2 1 -3 0 -2 1 -3 0 -2 1 -2 0 -3 0 -2 1 -2 0 -3 1 -2 0 -3 1 -2 0 -2 1 -3 0 -2 1 -2 0 -3 0 -2 1 -2 0 -2 1 -3 0 -2 1 -2 0 -2 1 -3 0 -2"/><path stroke="red" d="M99 417l0 -2 1 -2 0 -3 1 -2 0 -2 1 -2 0 -3 1 -2 0 -2 1 -2 0 -2 0 -2 1 -3 0 -2 1 -2 0 -2 1 -2 0 -2 1 -3 0 -2 0 -2 1 -2 0 -2 1 -2 0 -2 1 -2 0 -2 1 -2 0 -3 1 -2 0 -2 0 -2 1 -2 0 -2 1 -2 0 -2 1 -2 0 -2 1 -2 0 -2 0 -2 1 -2 0 -2"/><path stroke="red" d="M118 326l1 -2 0 -2 1 -2 0 -2 1 -2 0 -2 1 -2 0 -2 0 -2 1 -2 0 -1 1 -2 0 -2 1 -2 0 -2 1 -2 0 -2 0 -2 1 -2 0 -2 1 -1 0 -2 1 -2 0 -2 1 -2 0 -2 1 -2 0 -1 0 -2 1 -2 0 -2 1 -2 0 -2 1 -1 0 -2 1 -2 0 -2 0 -2 1 -1 0 -2 1 -2 0 -2 1 -1"/><path stroke="red" d="M138 246l0 -2 1 -2 0 -2 1 -1 0 -2 0 -2 1 -2 0 -1 1 -2 0 -2 1 -1 0 -2 1 -2 0 -2 0 -1 1 -2 0 -2 1 -1 0 -2 1 -2 0 -1 1 -2 0 -2 1 -1 0 -2 0 -1 1 -1 0 -1 0 -1 0 -1 1 -1 0 -1 0 -1 1 -1 0 -2 0 -1 1 -2 0 -2 1 -1 0 -2 1 -1 0 -2 1 -2"/><path stroke="red" d="M156 179l0 -1 0 -2 1 -1 0 -2 1 -1 0 -2 1 -1 0 -2 1 -2 0 -1 1 -2 0 -1 0 -2 1 -1 0 -2 1 -1 0 -2 1 -1 0 -2 1 -1 0 -2 0 -1 1 -2 0 -1 1 -2 0 -29 1 2 0 -1 0 1 1 -1 0 1 1 1 0 -1 1 1 0 -1 1 2 0 -1 1 1 0 -1 1 1 0 -1 0 2 1 -1 0 1"/><path stroke="red" d="M175 117l1 -1 0 1 1 -1 0 1 1 -1 0 2 0 -1 1 1 0 -1 1 1 0 -1 1 1 0 -1 1 2 0 -1 1 1 0 -1 0 1 1 -1 0 1 1 -1 0 1 1 -1 0 2 1 -2 0 2 0 -1 1 1 0 -1 1 1 0 -1 1 1 0 -1 1 1 0 -1 1 2 0 -2 0 2 1 -2 0 2 1 -1 0 1 1 -1 0 1 1 -1 0 1 0 -1"/><path stroke="red" d="M196 120l1 1 0 -1 1 1 0 -1 1 1 0 -1 1 2 0 -2 1 2 0 -2 0 2 1 -2 0 2 1 -2 0 2 1 -2 0 2 1 -1 0 1 0 -1 1 1 0 -1 1 1 0 -1 1 1 0 -1 1 1 0 -1 1 1 0 -1 0 1 1 -1 0 1 1 -1 0 1 1 -1 0 2 1 -2 0 2 0 -2 1 2 0 -2 1 2 0 -2 1 2 0 -2 1 2"/><path stroke="red" d="M218 123l0 -2 1 2 0 -2 0 2 1 -2 0 2 1 -2 0 2 1 -2 0 2 1 -2 0 2 0 -2 1 2 0 -2 1 2 0 -2 1 2 0 -2 1 2 0 -2 1 2 0 -2 0 2 1 -2 0 2 1 -2 0 2 1 -2 0 2 1 -2 0 2 0 -1 1 1 0 -1 1 1 0 -1 1 1 0 -1 1 1 0 -1 1 1 0 -1 0 1 1 -1 0 1 1 -1"/><path stroke="red" d="M239 122l0 1 1 -1 0 1 1 -1 0 1 0 -1 1 1 0 -1 1 1 0 -1 1 1 0 -1 1 1 0 -1 1 1 0 -1 0 1 1 -1 0 1 1 -1 0 1 1 -1 0 1 1 -1 0 1 0 -1 1 1 0 -1 1 1 0 -1 1 1 0 -1 1 1 0 -1 1 1 0 -1 0 1 1 -1 0 1 1 -1 0 1 1 -1 0 1 1 -1 0 1 0 -1 1 1"/><path stroke="red" d="M260 123l0 -1 1 1 0 -1 1 1 0 -1 1 1 0 -1 1 1 0 -1 0 1 1 -1 0 1 1 -1 0 1 1 -1 0 1 1 -1 0 1 0 -1 1 1 0 -1 1 1 0 -1 1 1 0 -1 1 1 0 -1 1 1 0 -1 0 1 1 -1 0 1 1 -1 0 1 1 -1 0 1 1 -1 0 1 0 -1 1 1 0 -1 1 1 0 -1 1 1 0 -1 1 1 0 -1"/><path stroke="red" d="M281 122l1 2 0 -2 0 1 0 1 0 1 0 1 0 2 0 4 0 2 0 46 0 228 0 213 0 39 0 1 0 1 0 1 0 1 1 -1 0 -1 0 -2 0 -2 1 -3 0 -3 1 -3 0 -3 1 -3 0 -3 1 -3 0 -2 0 -3 1 -3 0 -3 1 -3 0 -3 1 -2 0 -3 1 -3 0 -3 1 -2 0 -3 0 -3 1 -3 0 -2 1 -3 0 -3"/><path stroke="red" d="M294 590l1 -3 0 -2 1 -3 0 -3 0 -2 1 -3 0 -3 1 -2 0 -3 1 -3 0 -2 1 -3 0 -3 1 -2 0 -3 0 -2 1 -3 0 -3 1 -2 0 -3 1 -3 0 -2 1 -3 0 -2 0 -3 1 -2 0 -3 1 -2 0 -3 1 -2 0 -3 1 -2 0 -3 1 -2 0 -3 0 -2 1 -3 0 -2 1 -3 0 -2 1 -3 0 -2 1 -2"/><path stroke="red" d="M314 480l0 -3 0 -2 1 -3 0 -2 1 -2 0 -3 1 -2 0 -3 1 -2 0 -2 1 -3 0 -2 0 -2 1 -3 0 -2 1 -2 0 -2 1 -3 0 -2 1 -3 0 -2 0 -2 1 -2 0 -3 1 -2 0 -2 1 -2 0 -3 1 -2 0 -2 1 -2 0 -3 0 -2 1 -2 0 -2 1 -2 0 -2 1 -3 0 -2 1 -2 0 -2 0 -2 1 -2"/><path stroke="red" d="M333 382l0 -3 1 -2 0 -2 1 -2 0 -2 1 -2 0 -2 1 -2 0 -3 0 -1 1 -3 0 -2 1 -2 0 -2 1 -2 0 -2 1 -2 0 -2 0 -2 1 -2 0 -2 1 -2 0 -2 1 -2 0 -2 1 -2 0 -2 1 -2 0 -2 0 -2 1 -2 0 -2 1 -2 0 -2 1 -2 0 -2 1 -2 0 -2 0 -2 1 -1 0 -3 1 -1 0 -2"/><path stroke="red" d="M352 295l1 -2 0 -2 1 -2 0 -2 1 -2 0 -2 0 -1 1 -2 0 -2 1 -2 0 -2 1 -2 0 -1 1 -2 0 -2 0 -2 1 -2 0 -2 1 -1 0 -2 1 -2 0 -2 1 -1 0 -2 1 -2 0 -2 0 -2 1 -1 0 -2 1 -2 0 -2 1 -1 0 -2 1 -2 0 -2 0 -1 1 -2 0 -2 1 -1 0 -2 1 -2 0 -2 1 -1"/><path stroke="red" d="M372 218l0 -2 1 -1 0 -2 0 -2 1 -2 0 -1 1 -2 0 -1 1 -2 0 -2 1 -1 0 -2 0 -2 1 -1 0 -2 1 -1 0 -2 1 -2 0 -1 1 -2 0 -2 1 -1 0 -2 0 -1 1 -2 0 -1 1 -2 0 -1 1 -2 0 -2 1 -1 0 -2 0 -1 1 -2 0 -1 1 -2 0 -1 1 -2 0 -1 1 -2 0 -1 1 -2 0 -1"/><path stroke="red" d="M391 150l0 -2 1 -1 0 -2 1 -1 0 -2 1 -1 0 -2 1 -1 0 -2 0 -1 1 -2 0 -1 1 -6 0 -1 0 -23 0 8 0 -11 0 -1 0 5 0 1 0 2 0 1 0 2 0 1 0 1 0 1 0 1 1 0 1 1 1 0 0 1 1 0 1 0 1 0 0 1 1 0 1 0 1 1 0 -1 1 1 1 0 1 0 0 1 1 0 1 0 1 0 1 0 1 1"/><path stroke="red" d="M414 119l1 0 1 0 1 0 1 0 1 0 0 1 1 0 1 0 1 0 1 0 1 0 1 0 1 0 1 1 0 -1 0 1 1 0 1 0 1 0 1 0 1 0 1 0 1 0 1 0 1 0 1 0 0 1 1 -1 0 1 1 -1 0 1 1 -1 0 1 1 0 1 0 1 0 1 0 1 0 1 0 1 0 1 0 1 0 1 0 1 0 1 0 1 0 1 0 1 0 1 0 1 0 1 0 1 0"/><path stroke="red" d="M459 122l1 0 1 0 1 0 1 0 1 0 1 0 1 0 1 0 1 0 1 0 1 0 1 0 1 1 0 -1 0 1 1 -1 0 1 1 -1 0 1 1 -1 0 1 1 -1 0 1 0 -1 1 1 0 -1 1 1 0 -1 1 1 0 -1 1 1 0 -1 1 1 0 -1 0 1 1 -1 0 1 1 -1 0 1 1 -1 0 1 1 -1 0 1 0 -1 1 1 0 -1 1 1 0 -1 1 1"/><path stroke="red" d="M488 123l0 -1 1 1 0 -1 1 1 0 -1 0 1 1 -1 0 1 1 -1 0 1 1 -1 0 1 1 -1 0 1 0 -1 1 1 0 -1 1 1 0 -1 1 1 0 -1 1 1 1 0 1 0 1 0 1 0 1 0 1 0 1 0 1 0 1 0 1 0 1 0 1 0 1 0 1 0 0 1 0 1 0 537 0 1 0 1 0 -1 0 -1 1 -1 0 -2 0 -3 1 -3 0 -3"/><path stroke="red" d="M514 650l1 -3 0 -2 1 -4 0 -2 1 -3 0 -3 0 -3 1 -3 0 -3 1 -2 0 -3 1 -3 0 -3 1 -2 0 -3 0 -3 1 -3 0 -2 1 -3 0 -3 1 -3 0 -2 1 -3 0 -3 1 -3 0 -2 0 -3 1 -2 0 -3 1 -3 0 -3 1 -2 0 -3 1 -2 0 -3 0 -3 1 -2 0 -3 1 -3 0 -2 1 -3 0 -2 1 -3"/><path stroke="red" d="M534 533l0 -2 1 -3 0 -2 0 -3 1 -3 0 -2 1 -3 0 -2 1 -3 0 -2 1 -3 0 -2 0 -3 1 -2 0 -3 1 -2 0 -2 1 -3 0 -2 1 -3 0 -2 1 -3 0 -2 0 -3 1 -2 0 -2 1 -3 0 -2 1 -2 0 -3 1 -2 0 -3 0 -2 1 -2 0 -2 1 -3 0 -2 1 -3 0 -2 1 -2 0 -2 1 -3 0 -2"/><path stroke="red" d="M553 429l0 -2 1 -2 0 -3 1 -2 0 -2 1 -3 0 -2 1 -2 0 -2 0 -2 1 -3 0 -2 1 -2 0 -2 1 -3 0 -2 1 -2 0 -2 1 -2 0 -2 0 -3 1 -2 0 -2 1 -2 0 -2 1 -2 0 -2 1 -2 0 -3 0 -2 1 -2 0 -2 1 -2 0 -2 1 -2 0 -2 1 -2 0 -2 1 -2 0 -2 0 -2 1 -2 0 -2"/><path stroke="red" d="M572 337l1 -2 0 -2 1 -2 0 -2 1 -2 0 -2 0 -2 1 -2 0 -2 1 -2 0 -2 1 -2 0 -2 1 -2 0 -2 1 -2 0 -2 0 -2 1 -2 0 -2 1 -1 0 -2 1 -2 0 -2 1 -2 0 -2 0 -2 1 -2 0 -2 1 -1 0 -2 1 -2 0 -2 1 -2 0 -2 1 -1 0 -2 0 -2 1 -2 0 -2 1 -1 0 -2 1 -2"/><path stroke="red" d="M592 255l0 -2 1 -2 0 -1 0 -2 1 -2 0 -2 1 -2 0 -1 1 -2 0 -2 1 -1 0 -2 1 -2 0 -2 0 -1 1 -2 0 -2 1 -1 0 -2 1 -2 0 -2 1 -1 0 -2 0 -2 1 -1 0 -2 1 -2 0 -1 1 -2 0 -2 1 -1 0 -2 1 -1 0 -2 0 -2 1 -1 0 -2 1 -2 0 -1 1 -2 0 -1 1 -2 0 -2"/><path stroke="red" d="M611 182l0 -1 1 -2 0 -1 1 -2 0 -1 1 -2 0 -2 1 -1 0 -2 1 -1 0 -2 0 -1 1 -2 0 -1 1 -2 0 -1 1 -2 0 -1 1 -44 0 4 0 -3 1 3 0 -2 1 3 0 -3 1 3 0 -3 1 3 0 -2 0 3 1 -3 0 3 1 -3 0 3 1 -2 0 3 1 -3 0 3 0 -3 1 3 0 -3 1 4 0 -3 1 3 0 -3"/><path stroke="red" d="M631 116l1 3 0 -3 1 3 0 -3 0 4 1 -3 0 3 1 -3 0 3 1 -3 0 3 1 -3 0 3 0 -3 1 4 0 -4 1 4 0 -3 1 3 0 -3 1 3 0 -3 1 3 0 -3 0 3 1 -3 0 4 1 -4 0 4 1 -4 0 4 1 -4 0 4 0 -4 1 4 0 -3 1 3 0 -3 1 3 0 -3 1 4 0 -4 1 4 0 -4 0 4 1 -4 0 4"/><path stroke="red" d="M652 123l1 -4 0 4 1 -4 0 4 1 -4 0 4 0 -4 1 4 0 -4 1 4 0 -4 1 4 0 -4 1 4 0 -4 1 4 0 -4 0 5 1 -4 0 4 1 -4 0 4 1 -4 0 4 1 -4 0 4 0 -4 1 4 0 -4 1 4 0 -4 1 4 0 -4 1 4 0 -4 1 4 0 -4 0 4 1 -4 0 4 1 -4 0 4 1 -4 0 4 1 -4 0 4 0 -4"/><path stroke="red" d="M673 120l1 4 0 -4 1 4 0 -4 1 4 0 -4 1 4 0 -4 1 4 0 -4 0 4 1 -4 0 4 1 -4 0 4 1 -4 0 4 1 -4 0 4 0 -4 1 4 0 -4 1 4 0 -4 1 4 0 -4 1 5 0 -5 1 5 0 -5 0 5 1 -5 0 5 1 -5 0 5 1 -5 0 5 1 -5 0 5 0 -5 1 5 0 -5 1 5 0 -5 1 5 0 -5 1 5"/><path stroke="red" d="M695 125l0 -5 1 5 0 -5 0 5 1 -5 0 5 1 -5 0 5 1 -5 0 5 1 -5 0 5 0 -5 1 5 0 -5 1 5 0 -5 1 5 0 -5 1 5 0 -5 1 5 0 -5 0 5 1 -5 0 5 1 -5 0 5 1 -5 0 5 1 -5 0 5 0 -5 1 5 0 -5 1 5 0 -5 1 5 0 -5 1 5 0 -5 1 5 0 -5 0 5 1 -5 0 5 1 -5"/><path stroke="red" d="M716 120l0 5 1 -5 0 5 1 -5 0 5 0 -5 1 5 0 -5 1 5 0 -5 1 5 0 -5 1 5 0 -5 1 5 0 -5 0 5 1 -5 0 5 1 -5 0 5 1 -5 0 5 1 -5 0 5 0 -5 1 5 0 -5 1 5 0 -5 1 5 0 -5 1 5 0 -5 1 5 0 -5 0 5 1 -5 0 5 1 -5 0 3 0 1 1 1 0 1 0 2 0 1 0 3 0 2"/><path stroke="red" d="M735 134l0 49 0 186 0 203 0 87 0 2 0 1 0 1 0 1 0 -1 0 -1 0 -2 1 -1 0 -3 0 -3 1 -3 0 -3 1 -3 0 -3 1 -3 0 -2 1 -3 0 -3 0 -3 1 -3 0 -3 1 -2 0 -3 1 -3 0 -3 1 -2 0 -3 1 -3 0 -3 0 -2 1 -3 0 -3 1 -3 0 -2 1 -3 0 -3 1 -2 0 -3 0 -3"/><path stroke="red" d="M749 572l1 -2 0 -3 1 -3 0 -2 1 -3 0 -3 1 -2 0 -3 1 -3 0 -2 0 -3 1 -2 0 -3 1 -3 0 -2 1 -3 0 -2 1 -3 0 -2 0 -3 1 -2 0 -3 1 -2 0 -3 1 -2 0 -3 1 -2 0 -3 1 -2 0 -3 0 -2 1 -3 0 -2 1 -3 0 -2 1 -3 0 -2 1 -2 0 -3 0 -2 1 -2 0 -3 1 -2"/><path stroke="red" d="M769 464l0 -3 1 -2 0 -2 1 -3 0 -2 1 -2 0 -3 0 -2 1 -2 0 -3 1 -2 0 -2 1 -3 0 -2 1 -2 0 -2 0 -3 1 -2 0 -2 1 -2 0 -3 1 -2 0 -2 1 -2 0 -3 1 -2 0 -2 0 -2 1 -3 0 -2 1 -2 0 -2 1 -2 0 -2 1 -3 0 -2 0 -2 1 -2 0 -2 1 -2 0 -2 1 -2 0 -3"/><path stroke="red" d="M788 367l1 -2 0 -2 1 -2 0 -2 0 -2 1 -2 0 -2 1 -2 0 -2 1 -2 0 -2 1 -2 0 -2 0 -2 1 -2 0 -3 1 -1 0 -3 1 -1 0 -3 1 -1 0 -2 1 -2 0 -2 0 -2 1 -2 0 -2 1 -2 0 -2 1 -2 0 -2 1 -2 0 -2 0 -2 1 -2 0 -2 1 -1 0 -2 1 -2 0 -2 1 -2 0 -2 1 -2"/><path stroke="red" d="M808 282l0 -2 0 -1 1 -2 0 -2 1 -2 0 -2 1 -2 0 -1 1 -2 0 -2 0 -2 1 -2 0 -2 1 -1 0 -2 1 -2 0 -2 1 -1 0 -2 1 -2 0 -2 0 -1 1 -2 0 -2 1 -2 0 -1 1 -2 0 -2 1 -2 0 -1 0 -2 1 -2 0 -2 1 -1 0 -2 1 -2 0 -1 1 -2 0 -2 1 -1 0 -2 0 -2 1 -1"/><path stroke="red" d="M827 207l0 -2 1 -2 0 -1 1 -2 0 -1 1 -2 0 -2 0 -1 1 -2 0 -2 1 -1 0 -2 1 -1 0 -2 1 -1 0 -2 1 -2 0 -1 0 -2 1 -1 0 -2 1 -2 0 -1 1 -2 0 -1 1 -2 0 -1 0 -2 1 -1 0 -2 1 -1 0 -2 1 -1 0 -2 1 -1 0 -2 1 -1 0 -2 0 -1 1 -2 0 -1 1 -2 0 -1"/><path stroke="red" d="M846 140l1 -2 0 -1 1 -2 0 -1 0 -2 1 -6 0 -21 0 -5 0 11 0 -5 0 4 0 -2 0 2 0 1 0 1 0 -1 0 2 0 -1 0 1 0 -1 0 1 1 0 0 1 0 -1 1 1 1 1 0 -1 1 1 0 -1 1 1 0 1 1 -1 0 1 1 -1 0 1 1 0 0 1 1 -1 0 1 1 -1 0 1 0 -1 1 1 1 1 0 -1 1 1 0 -1"/><path stroke="red" d="M862 117l1 1 0 -1 0 1 1 0 0 1 1 -1 0 1 1 -1 0 1 1 -1 0 1 1 -1 0 1 1 1 0 -1 1 1 0 -1 1 1 0 -1 1 1 0 -1 0 1 1 -1 0 1 1 -1 0 2 1 -2 0 2 1 -1 0 1 1 -1 0 1 0 -1 1 1 0 -1 1 1 0 -1 1 1 0 -1 1 1 0 -1 0 1 1 -1 0 1 1 -1 0 2 1 -2 0 2"/><path stroke="red" d="M884 122l1 -2 0 2 1 -1 0 1 0 -1 1 1 0 -1 1 1 0 -1 1 1 0 -1 1 1 0 -1 0 1 1 -1 0 1 1 -1 0 1 1 -1 0 1 1 -1 0 1 1 -1 0 1 0 -1 1 1 0 -1 1 2 0 -2 1 2 0 -2 1 2 0 -2 0 2 1 -2 0 2 1 -2 0 2 1 -2 0 2 1 -2 0 2 1 -2 0 2 0 -2 1 2 0 -2"/><path stroke="red" d="M905 121l1 2 0 -2 1 2 0 -2 1 2 0 -2 0 2 1 -2 0 2 1 -2 0 2 1 -2 0 2 1 -2 0 2 1 -2 0 2 0 -1 1 1 0 -1 1 1 0 -1 1 1 0 -1 1 1 0 -1 0 1 1 -1 0 1 1 -1 0 1 1 -1 0 1 1 -1 0 1 1 -1 0 1 0 -1 1 1 0 -1 1 1 0 -1 1 1 0 -1 1 1 0 -1 0 1"/><path stroke="red" d="M926 123l1 -1 0 1 1 -1 0 1 1 -1 0 1 1 -1 0 1 1 -1 0 1 0 -1 1 1 0 -1 1 1 0 -1 1 1 0 -1 1 1 0 -1 0 1 1 -1 0 1 1 -1 0 1 1 -1 0 1 1 -1 0 1 1 -1 0 1 0 -1 1 1 0 -1 1 1 0 -1 1 1 0 -1 1 1 0 -1 0 1 1 -1 0 1 1 -1 0 1 1 -1 0 1 1 -1"/><path stroke="red" d="M948 122l0 1 1 -1 0 1 0 -1 1 1 0 -1 1 1 0 -1 1 1 0 -1 1 1 0 -1 0 1 1 -1 0 1 1 -1 0 2 1 -2 0 2 1 -2 0 2 1 -2 0 2 0 -2 1 2 0 -2 1 2 0 -2"/></svg>