<?xml version="1.0" standalone="yes"?>
<!DOCTYPE svg PUBLIC "-//W3C//DTD SVG 1.1//EN"
 "http://www.w3.org/Graphics/SVG/1.1/DTD/svg11.dtd">
<svg xmlns="http://www.w3.org/2000/svg" version="1.1"
  width="100%" height="100%" viewBox="0 0 1024 768"
  style="fill: none; font-family: Helvetica;
 font: Helvetica;
">

<!-- Creator: NGspice -->

<rect x="0" y="0" width="1024" height="768" fill="white" stroke="none"/>
<text stroke="none" fill="blue" font-size="16" x="358" y="752">
time
</text>
<text stroke="none" fill="blue" font-size="16" x="10" y="16">
tran1: astable multiibrator (set1).
</text>
<path stroke="blue" stroke-dasharray="1,2" d="M60 704l0 -637"/>
<text stroke="none" fill="blue" font-size="16" x="35" y="728">
198.0
</text>
<path stroke="blue" stroke-dasharray="1,2" d="M150 704l0 -637"/>
<text stroke="none" fill="blue" font-size="16" x="125" y="728">
198.2
</text>
<path stroke="blue" stroke-dasharray="1,2" d="M240 704l0 -637"/>
<text stroke="none" fill="blue" font-size="16" x="215" y="728">
198.4
</text>
<path stroke="blue" stroke-dasharray="1,2" d="M330 704l0 -637"/>
<text stroke="none" fill="blue" font-size="16" x="305" y="728">
198.6
</text>
<path stroke="blue" stroke-dasharray="1,2" d="M420 704l0 -637"/>
<text stroke="none" fill="blue" font-size="16" x="395" y="728">
198.8
</text>
<path stroke="blue" stroke-dasharray="1,2" d="M510 704l0 -637"/>
<text stroke="none" fill="blue" font-size="16" x="485" y="728">
199.0
</text>
<path stroke="blue" stroke-dasharray="1,2" d="M600 704l0 -637"/>
<text stroke="none" fill="blue" font-size="16" x="575" y="728">
199.2
</text>
<path stroke="blue" stroke-dasharray="1,2" d="M690 704l0 -637"/>
<text stroke="none" fill="blue" font-size="16" x="665" y="728">
199.4
</text>
<path stroke="blue" stroke-dasharray="1,2" d="M780 704l0 -637"/>
<text stroke="none" fill="blue" font-size="16" x="755" y="728">
199.6
</text>
<path stroke="blue" stroke-dasharray="1,2" d="M870 704l0 -637"/>
<text stroke="none" fill="blue" font-size="16" x="845" y="728">
199.8
</text>
<path stroke="blue" stroke-dasharray="1,2" d="M960 704l0 -637"/>
<text stroke="none" fill="blue" font-size="16" x="935" y="728">
200.0
</text>
<text stroke="none" fill="blue" font-size="16" x="614" y="752">
ms
</text>
<path stroke="blue" d="M60 704l900 0"/>
<text stroke="none" fill="blue" font-size="16" x="28" y="712">
0.0
</text>
<path stroke="blue" stroke-dasharray="1,2" d="M60 613l900 0"/>
<text stroke="none" fill="blue" font-size="16" x="28" y="621">
2.0
</text>
<path stroke="blue" stroke-dasharray="1,2" d="M60 522l900 0"/>
<text stroke="none" fill="blue" font-size="16" x="28" y="530">
4.0
</text>
<path stroke="blue" stroke-dasharray="1,2" d="M60 431l900 0"/>
<text stroke="none" fill="blue" font-size="16" x="28" y="439">
6.0
</text>
<path stroke="blue" stroke-dasharray="1,2" d="M60 340l900 0"/>
<text stroke="none" fill="blue" font-size="16" x="28" y="348">
8.0
</text>
<path stroke="blue" stroke-dasharray="1,2" d="M60 249l900 0"/>
<text stroke="none" fill="blue" font-size="16" x="18" y="257">
10.0
</text>
<path stroke="blue" stroke-dasharray="1,2" d="M60 158l900 0"/>
<text stroke="none" fill="blue" font-size="16" x="18" y="166">
12.0
</text>
<path stroke="blue" stroke-dasharray="1,2" d="M60 67l900 0"/>
<text stroke="none" fill="blue" font-size="16" x="18" y="75">
14.0
</text>
<text stroke="none" fill="blue" font-size="16" x="10" y="32">
V
</text>
<path stroke="red" d="M450 23l45 0"/>
<text stroke="none" fill="blue" font-size="16" x="505" y="32">
a
</text>
<path stroke="red" d="M60 702l1 0 1 0 1 0 1 0 1 0 1 0 1 0 1 0 1 0 1 0 1 0 1 0 1 0 1 0 1 0 1 0 1 0 1 0 1 0 1 0 1 0 1 0 1 0 1 0 1 0 1 0 1 0 1 0 1 0 1 -1 0 1 0 -1 1 1 0 -1 1 1 0 -1 1 0 1 0 1 0 1 0 1 0 1 0 1 0 1 0 1 0 1 0 1 0 1 0 1 0 1 0 1 0 1 0"/>
<path stroke="red" d="M108 701l1 0 1 0 1 0 1 0 1 0 1 0 1 0 1 0 1 0 1 0 1 0 1 0 1 0 1 0 1 0 1 0 1 0 1 0 1 0 1 0 1 0 1 0 1 0 1 0 1 0 1 0 1 0 1 0 1 0 1 0 1 0 1 0 1 0 1 0 1 0 1 0 1 0 1 0 1 0 1 0 1 0 1 0 1 0 1 0 1 0 1 0 1 0 1 0 1 0 1 0 1 0 1 0 1 0"/>
<path stroke="red" d="M161 701l1 0 1 0 1 0 1 0 1 0 1 0 0 -36 1 -8 0 -9 0 -10 1 -10 0 -12 0 -13 1 -11 0 -13 1 -10 0 -12 1 -10 0 -12 1 -9 0 -11 1 -8 0 -11 0 -8 1 -10 0 -7 1 -10 0 -7 1 -9 0 -7 1 -8 0 -7 0 -8 1 -6 0 -8 1 -5 0 -7 1 -6 0 -7 1 -4 0 -7"/>
<path stroke="red" d="M182 365l1 -5 0 -6 0 -4 1 -7 0 -4 1 -6 0 -3 1 -6 0 -3 1 -6 0 -3 0 -5 1 -3 0 -5 1 -3 0 -5 1 -2 0 -5 1 -2 0 -5 1 -1 0 -5 0 -2 1 -4 0 -1 1 -5 0 -1 1 -4 0 -1 1 -4 0 -1 0 -4 1 -1 0 -4 1 0 0 -4 1 -1 0 -3 1 -1 0 -3 1 0 0 -4 1 -3"/>
<path stroke="red" d="M202 220l1 -3 0 -1 1 -3 1 -3 0 -2 1 0 0 -3 1 0 0 -3 1 1 0 -3 1 0 0 -2 1 0 0 -2 1 -2 1 -2 1 -2 1 -2 0 1 0 -3 1 1 0 -2 1 1 0 -3 1 1 0 -2 1 1 0 -2 1 1 0 -2 1 -2 0 1 1 -2 0 1 1 -2 0 1 1 -2 0 1 0 -2 1 1 0 -2 1 1 0 -2 1 2 0 -2"/>
<path stroke="red" d="M226 172l1 1 0 -2 1 1 0 -2 0 1 1 -2 0 2 1 -2 0 1 1 -2 0 2 1 -2 0 1 0 -2 1 1 0 -1 1 1 0 -2 1 1 0 -1 1 1 0 -2 1 2 0 -2 0 1 1 -2 0 2 1 -2 0 1 1 -1 0 1 1 -2 0 2 0 -2 1 1 0 -1 1 1 0 -2 1 2 0 -2 1 2 0 -2 1 1 0 -1 0 1 1 -2 0 2"/>
<path stroke="red" d="M247 163l1 -2 0 2 1 -2 0 1 1 -1 0 1 0 -1 1 1 0 -2 1 2 0 -2 1 2 0 -2 1 2 0 -2 1 1 0 -1 0 1 1 -1 0 1 1 -2 0 2 1 -2 0 2 1 -2 0 2 0 -2 1 2 0 -2 1 2 0 -2 1 2 0 -2 1 1 0 -1 1 1 0 -1 0 1 1 -1 0 1 1 -1 0 1 1 -2 0 2 1 -2 0 2 0 -2"/>
<path stroke="red" d="M268 158l1 2 0 -2 1 2 0 -2 1 2 0 -2 1 2 0 -2 1 2 0 -2 0 2 1 -2 0 2 1 -2 0 2 1 -2 0 2 1 -2 0 1 0 -1 1 1 0 -1 1 1 0 -1 1 1 0 -1 1 1 0 -1 1 2 0 -2 0 1 0 1 0 1 0 1 0 1 0 1 0 1 0 4 0 1 0 47 0 228 0 213 0 39 0 1 0 1 0 1 0 1 0 1"/>
<path stroke="red" d="M282 702l1 0 1 0 1 0 1 0 1 0 1 0 1 0 1 0 1 0 1 0 1 0 1 0 1 0 1 0 1 0 1 0 1 0 1 0 1 0 1 0 1 0 1 0 1 0 1 0 1 0 1 0 1 0 1 0 1 0 1 0 1 0 1 0 0 -1 1 1 0 -1 1 1 0 -1 1 1 0 -1 1 1 0 -1 1 1 0 -1 0 1 1 -1 0 1 1 -1 1 0 1 0 1 0 1 0"/>
<path stroke="red" d="M325 701l1 0 1 0 1 0 1 0 1 0 1 0 1 0 1 0 1 0 1 0 1 0 1 0 1 0 1 0 1 0 1 0 1 0 1 0 1 0 1 0 1 0 1 0 1 0 1 0 1 0 1 0 1 0 1 0 1 0 1 0 1 0 1 0 1 0 1 0 1 0 1 0 1 0 1 0 1 0 1 0 1 0 1 0 1 0 1 0 1 0 1 0 1 0 1 0 1 0 1 0 1 0 1 0 1 0"/>
<path stroke="red" d="M378 701l1 0 1 0 1 0 1 0 1 0 1 0 1 0 1 0 1 0 1 0 1 0 1 0 1 0 1 0 1 0 1 0 1 0 1 0 1 -5 0 -24 0 8 0 -11 0 -1 0 6 0 2 0 1 0 2 0 1 0 -1 0 -1 0 -3 0 -5 0 -7 1 -9 0 -12 1 -13 0 -13 1 -12 0 -12 0 -12 1 -11 0 -11 1 -11 0 -10 1 -11"/>
<path stroke="red" d="M403 526l0 -10 1 -9 0 -10 0 -9 1 -9 0 -8 1 -9 0 -8 1 -8 0 -8 1 -7 0 -8 1 -7 0 -7 0 -6 1 -7 0 -6 1 -7 0 -6 1 -6 0 -5 1 -6 0 -5 0 -6 1 -5 0 -5 1 -5 0 -5 1 -4 0 -5 1 -4 0 -4 1 -4 0 -4 0 -4 1 -4 0 -4 1 -3 0 -4 1 -3 0 -4 1 -3"/>
<path stroke="red" d="M422 275l0 -3 0 -3 1 -3 0 -3 1 -3 0 -3 1 -2 0 -3 1 -2 0 -3 1 -2 0 -3 0 -2 1 -2 0 -2 1 -2 0 -2 1 -2 0 -2 1 -2 0 -2 0 -2 1 -1 0 -2 1 -2 0 -1 1 -2 0 -1 1 -2 0 -1 1 -1 0 -2 0 -1 1 -2 0 -1 1 -1 0 -1 1 -1 0 -1 1 -2 0 -2 1 -1 0 -1"/>
<path stroke="red" d="M441 193l1 0 0 -2 1 0 0 -1 1 -1 0 -1 1 -1 0 -1 1 -1 0 -1 1 0 0 -1 1 -1 1 -1 0 -1 1 -1 1 -1 0 -1 1 0 0 -1 1 0 0 -1 1 0 0 -1 1 0 0 -1 1 0 1 -1 1 -1 1 -1 1 0 0 -1 1 0 1 0 0 -1 1 0 0 -1 1 0 1 0 1 -1 1 0 0 -1 1 0 1 0 1 0 0 -1"/>
<path stroke="red" d="M470 164l1 0 1 0 1 -1 1 0 1 0 1 -1 1 0 1 0 1 0 1 0 0 -1 1 0 1 0 1 0 1 0 1 0 0 -1 1 1 0 -1 1 0 1 0 1 0 1 0 1 0 1 0 1 0 1 -1 0 1 0 -1 1 0 1 0 1 0 1 0 1 0 1 0 1 0 1 0 1 0 1 0 1 0 1 0 1 0 1 0 1 0 1 0 1 0 1 0 0 1 0 1 0 1 0 537"/>
<path stroke="red" d="M512 699l0 2 0 1 1 0 1 0 1 0 1 0 1 0 1 0 1 0 1 0 1 0 1 0 1 0 1 0 1 0 1 0 1 0 1 0 1 0 1 0 1 0 1 0 1 0 1 0 1 0 1 0 1 0 1 0 1 0 1 0 1 0 1 0 1 0 1 -1 0 1 0 -1 1 1 0 -1 1 1 0 -1 1 1 0 -1 1 1 0 -1 0 1 1 -1 0 1 1 -1 0 1 1 -1 1 0"/>
<path stroke="red" d="M552 701l1 0 1 0 1 0 1 0 1 0 1 0 1 0 1 0 1 0 1 0 1 0 1 0 1 0 1 0 1 0 1 0 1 0 1 0 1 0 1 0 1 0 1 0 1 0 1 0 1 0 1 0 1 0 1 0 1 0 1 0 1 0 1 0 1 0 1 0 1 0 1 0 1 0 1 0 1 0 1 0 1 0 1 0 1 0 1 0 1 0 1 0 1 0 1 0 1 0 1 0 1 0 1 0 1 0"/>
<path stroke="red" d="M605 701l1 0 1 0 1 0 1 0 1 0 1 0 1 0 1 0 1 0 1 0 1 0 1 0 1 0 1 0 1 -50 0 -9 0 -16 1 -8 0 -14 1 -9 0 -15 1 -8 0 -15 1 -7 0 -14 0 -7 1 -13 0 -7 1 -12 0 -6 1 -12 0 -6 1 -11 0 -6 0 -11 1 -4 0 -11 1 -4 0 -11 1 -3 0 -10 1 -4 0 -9"/>
<path stroke="red" d="M632 389l1 -3 0 -10 0 -2 1 -9 0 -3 1 -8 0 -3 1 -8 0 -2 1 -8 0 -1 0 -8 1 -1 0 -8 1 -1 0 -8 1 0 0 -8 1 0 0 -7 1 0 0 -7 1 -7 1 -6 1 -7 0 1 1 -6 0 1 0 -7 1 1 0 -6 1 1 0 -6 1 2 0 -6 1 1 0 -6 1 2 0 -6 0 2 1 -6 0 2 1 -6 0 2 1 -5"/>
<path stroke="red" d="M654 219l0 2 1 -5 0 2 0 -6 1 3 0 -6 1 3 0 -5 1 2 0 -5 1 3 0 -6 1 3 0 -5 0 3 1 -5 0 3 1 -5 0 3 1 -6 0 4 1 -5 0 3 0 -5 1 3 0 -5 1 3 0 -5 1 4 0 -5 1 3 0 -5 1 4 0 -5 0 3 1 -4 0 3 1 -5 0 4 1 -5 0 4 1 -5 0 4 0 -5 1 4 0 -5 1 4"/>
<path stroke="red" d="M675 178l0 -5 1 4 0 -5 1 4 0 -5 1 4 0 -5 0 4 1 -4 0 4 1 -5 0 4 1 -5 0 4 1 -4 0 4 0 -5 1 4 0 -5 1 4 0 -4 1 4 0 -5 1 4 0 -4 1 4 0 -5 0 4 1 -4 0 4 1 -5 0 5 1 -5 0 4 1 -4 0 4 0 -5 1 4 0 -4 1 4 0 -4 1 4 0 -5 1 5 0 -5 1 4 0 -4"/>
<path stroke="red" d="M696 161l0 4 1 -5 0 5 1 -5 0 4 1 -4 0 4 1 -4 0 4 0 -4 1 4 0 -5 1 5 0 -5 1 4 0 -4 1 4 0 -4 1 4 0 -4 0 4 1 -4 0 4 1 -5 0 5 1 -5 0 5 1 -5 0 4 0 -4 1 4 0 -4 1 4 0 -4 1 4 0 -4 1 4 0 -4 1 4 0 -5 0 5 1 -5 0 5 1 -5 0 5 1 -5 0 5"/>
<path stroke="red" d="M717 162l1 -5 0 4 0 -4 1 4 0 -4 1 4 0 -4 1 4 0 -4 1 4 0 -4 1 4 0 -4 0 4 1 -4 0 4 1 -4 0 4 1 -4 0 4 1 -4 0 4 0 -4 1 4 0 -4 1 4 0 -4 1 4 0 -5 1 5 0 -5 1 5 0 -5 0 5 1 -5 0 5 1 -5 0 3 0 1 1 2 0 1 0 2 0 1 0 3 0 2 0 49 0 186 0 203"/>
<path stroke="red" d="M735 609l0 87 0 2 0 1 0 1 0 1 0 1 1 0 1 0 1 0 1 0 1 0 1 0 1 0 1 0 1 0 1 0 1 0 1 0 1 0 1 0 1 0 1 0 1 0 1 0 1 0 1 0 1 0 1 0 1 0 1 0 1 0 1 0 1 0 1 0 1 0 1 0 1 0 1 0 0 -1 1 1 0 -1 1 1 0 -1 1 1 0 -1 1 1 0 -1 1 1 0 -1 1 0 1 0"/>
<path stroke="red" d="M774 701l1 0 1 0 1 0 1 0 1 0 1 0 1 0 1 0 1 0 1 0 1 0 1 0 1 0 1 0 1 0 1 0 1 0 1 0 1 0 1 0 1 0 1 0 1 0 1 0 1 0 1 0 1 0 1 0 1 0 1 0 1 0 1 0 1 0 1 0 1 0 1 0 1 0 1 0 1 0 1 0 1 0 1 0 1 0 1 0 1 0 1 0 1 0 1 0 1 0 1 0 1 0 1 0 1 0"/>
<path stroke="red" d="M827 701l1 0 1 0 1 0 1 0 1 0 1 0 1 0 1 0 1 0 1 0 1 0 1 0 1 0 1 0 1 0 1 0 1 0 1 0 1 0 1 0 1 0 1 -5 0 -21 0 -6 0 11 0 -5 0 4 0 -2 0 2 0 -1 0 -1 0 -1 0 -3 0 -4 1 -10 0 -8 0 -14 1 -13 0 -13 1 -11 0 -13 1 -11 0 -12 1 -10 0 -12"/>
<path stroke="red" d="M854 542l0 -9 1 -11 0 -9 1 -10 0 -9 1 -10 0 -8 1 -9 0 -8 1 -9 0 -7 0 -8 1 -7 0 -8 1 -6 0 -8 1 -6 0 -7 1 -5 0 -8 0 -5 1 -6 0 -5 1 -7 0 -4 1 -6 0 -4 1 -6 0 -4 1 -6 0 -3 0 -6 1 -3 0 -5 1 -3 0 -5 1 -3 0 -5 1 -3 0 -4 0 -3 1 -4"/>
<path stroke="red" d="M873 280l0 -2 1 -5 0 -2 1 -4 0 -2 1 -4 0 -1 1 -4 0 -2 0 -3 1 -2 0 -3 1 -2 0 -3 1 -1 0 -3 1 -1 0 -4 1 -4 1 -3 0 -1 1 -3 1 -3 0 -1 1 -2 0 -1 0 -3 1 0 0 -2 1 0 0 -3 1 0 0 -3 1 0 0 -2 1 -2 1 -3 0 1 1 -3 0 1 1 -3 0 1 1 -2 0 -2"/>
<path stroke="red" d="M895 189l1 0 0 -2 1 1 0 -2 1 0 0 -2 1 1 0 -2 1 -2 0 1 1 -2 0 1 1 -2 0 1 1 -2 0 1 1 -2 0 1 0 -2 1 1 0 -2 1 1 0 -2 1 1 0 -2 1 1 0 -2 0 1 1 -2 0 1 1 -2 0 2 1 -2 0 1 1 -2 0 1 1 -2 0 2 0 -2 1 1 0 -2 1 2 0 -2 1 1 0 -2 1 2 0 -2"/>
<path stroke="red" d="M917 166l0 1 1 -2 0 2 1 -2 0 1 1 -2 0 2 1 -2 0 2 1 -2 0 1 0 -2 1 2 0 -2 1 2 0 -2 1 1 0 -2 1 2 0 -2 0 2 1 -2 0 1 1 -1 0 1 1 -2 0 2 1 -2 0 2 1 -2 0 2 0 -2 1 1 0 -1 1 1 0 -2 1 2 0 -2 1 2 0 -2 0 2 1 -2 0 2 1 -2 0 1 1 -1 0 1"/>
<path stroke="red" d="M938 161l1 -2 0 2 1 -2 0 2 0 -2 1 2 0 -2 1 2 0 -2 1 2 0 -2 1 2 0 -2 0 2 1 -2 0 1 1 -1 0 1 1 -1 0 1 1 -2 0 2 1 -2 0 2 0 -2 1 2 0 -2 1 2 0 -2 1 2 0 -2 1 2 0 -2 0 2 1 -2 0 2 1 -2 0 2 1 -2 0 2 1 -2 0 2 1 -2 0 2 0 -2 1 2 0 -2"/>
<path stroke="red" d="M959 158l1 2 0 -2"/>
</svg>
